<ttFont>
    <TTGlyph name="A" xMin="15" yMin="-41" xMax="672" yMax="758">
      <contour>
        <pt x="513" y="729" on="1"/>
        <pt x="512" y="725" on="0"/>
        <pt x="512" y="719" on="0"/>
        <pt x="511" y="717" on="1"/>
        <pt x="522" y="697" on="0"/>
        <pt x="525" y="643" on="0"/>
        <pt x="527" y="617" on="1"/>
        <pt x="532" y="622" on="0"/>
        <pt x="540" y="631" on="0"/>
        <pt x="544" y="636" on="1"/>
        <pt x="549" y="641" on="0"/>
        <pt x="555" y="650" on="0"/>
        <pt x="559" y="655" on="1"/>
        <pt x="561" y="659" on="0"/>
        <pt x="568" y="665" on="0"/>
        <pt x="571" y="668" on="1"/>
        <pt x="576" y="673" on="0"/>
        <pt x="586" y="685" on="0"/>
        <pt x="591" y="690" on="1"/>
        <pt x="595" y="695" on="0"/>
        <pt x="602" y="703" on="0"/>
        <pt x="606" y="708" on="1"/>
        <pt x="614" y="718" on="0"/>
        <pt x="630" y="739" on="0"/>
        <pt x="641" y="745" on="1"/>
        <pt x="650" y="743" on="0"/>
        <pt x="652" y="741" on="0"/>
        <pt x="654" y="741" on="1"/>
        <pt x="667" y="737" on="0"/>
        <pt x="672" y="721" on="0"/>
        <pt x="672" y="714" on="1"/>
        <pt x="672" y="709" on="0"/>
        <pt x="670" y="695" on="0"/>
        <pt x="668" y="690" on="1"/>
        <pt x="666" y="684" on="0"/>
        <pt x="660" y="673" on="0"/>
        <pt x="660" y="668" on="1"/>
        <pt x="659" y="662" on="0"/>
        <pt x="656" y="649" on="0"/>
        <pt x="652" y="646" on="1"/>
        <pt x="654" y="632" on="0"/>
        <pt x="639" y="614" on="0"/>
        <pt x="634" y="606" on="1"/>
        <pt x="630" y="601" on="0"/>
        <pt x="627" y="593" on="1"/>
        <pt x="623" y="588" on="0"/>
        <pt x="621" y="579" on="0"/>
        <pt x="616" y="574" on="1"/>
        <pt x="613" y="570" on="0"/>
        <pt x="602" y="563" on="0"/>
        <pt x="598" y="559" on="1"/>
        <pt x="589" y="548" on="0"/>
        <pt x="583" y="542" on="0"/>
        <pt x="581" y="540" on="1"/>
        <pt x="576" y="534" on="0"/>
        <pt x="570" y="521" on="0"/>
        <pt x="565" y="516" on="1"/>
        <pt x="562" y="512" on="0"/>
        <pt x="555" y="507" on="0"/>
        <pt x="553" y="504" on="1"/>
        <pt x="551" y="501" on="0"/>
        <pt x="548" y="493" on="0"/>
        <pt x="546" y="489" on="1"/>
        <pt x="544" y="485" on="0"/>
        <pt x="540" y="479" on="0"/>
        <pt x="538" y="476" on="1"/>
        <pt x="536" y="472" on="0"/>
        <pt x="534" y="464" on="0"/>
        <pt x="531" y="460" on="1"/>
        <pt x="523" y="446" on="0"/>
        <pt x="517" y="434" on="1"/>
        <pt x="514" y="428" on="0"/>
        <pt x="510" y="415" on="0"/>
        <pt x="507" y="409" on="1"/>
        <pt x="505" y="403" on="0"/>
        <pt x="499" y="392" on="0"/>
        <pt x="497" y="387" on="1"/>
        <pt x="492" y="376" on="0"/>
        <pt x="485" y="351" on="0"/>
        <pt x="480" y="340" on="1"/>
        <pt x="476" y="331" on="0"/>
        <pt x="470" y="313" on="0"/>
        <pt x="465" y="305" on="1"/>
        <pt x="460" y="286" on="0"/>
        <pt x="452" y="250" on="0"/>
        <pt x="445" y="231" on="1"/>
        <pt x="438" y="211" on="0"/>
        <pt x="425" y="168" on="0"/>
        <pt x="419" y="147" on="1"/>
        <pt x="414" y="123" on="0"/>
        <pt x="409" y="81" on="0"/>
        <pt x="411" y="57" on="1"/>
        <pt x="417" y="57" on="0"/>
        <pt x="428" y="51" on="0"/>
        <pt x="434" y="53" on="1"/>
        <pt x="439" y="54" on="0"/>
        <pt x="449" y="62" on="0"/>
        <pt x="456" y="65" on="1"/>
        <pt x="461" y="67" on="0"/>
        <pt x="468" y="68" on="0"/>
        <pt x="470" y="72" on="1"/>
        <pt x="476" y="74" on="0"/>
        <pt x="486" y="79" on="0"/>
        <pt x="490" y="84" on="1"/>
        <pt x="501" y="87" on="0"/>
        <pt x="519" y="100" on="0"/>
        <pt x="528" y="105" on="1"/>
        <pt x="533" y="108" on="0"/>
        <pt x="543" y="114" on="0"/>
        <pt x="548" y="117" on="1"/>
        <pt x="553" y="119" on="0"/>
        <pt x="563" y="123" on="0"/>
        <pt x="567" y="127" on="1"/>
        <pt x="569" y="129" on="0"/>
        <pt x="581" y="137" on="0"/>
        <pt x="584" y="139" on="1"/>
        <pt x="594" y="142" on="0"/>
        <pt x="606" y="151" on="0"/>
        <pt x="608" y="153" on="1"/>
        <pt x="612" y="152" on="0"/>
        <pt x="629" y="162" on="0"/>
        <pt x="634" y="162" on="1"/>
        <pt x="638" y="160" on="0"/>
        <pt x="646" y="159" on="0"/>
        <pt x="649" y="157" on="1"/>
        <pt x="648" y="153" on="0"/>
        <pt x="649" y="146" on="0"/>
        <pt x="649" y="143" on="1"/>
        <pt x="649" y="141" on="0"/>
        <pt x="638" y="127" on="0"/>
        <pt x="636" y="125" on="1"/>
        <pt x="633" y="121" on="0"/>
        <pt x="616" y="107" on="0"/>
        <pt x="611" y="105" on="1"/>
        <pt x="606" y="94" on="0"/>
        <pt x="587" y="77" on="0"/>
        <pt x="579" y="69" on="1"/>
        <pt x="569" y="64" on="0"/>
        <pt x="551" y="48" on="0"/>
        <pt x="544" y="41" on="1"/>
        <pt x="520" y="27" on="0"/>
        <pt x="470" y="-8" on="0"/>
        <pt x="442" y="-22" on="1"/>
        <pt x="430" y="-27" on="0"/>
        <pt x="408" y="-38" on="0"/>
        <pt x="392" y="-40" on="1"/>
        <pt x="383" y="-41" on="0"/>
        <pt x="370" y="-36" on="0"/>
        <pt x="362" y="-34" on="1"/>
        <pt x="359" y="-25" on="0"/>
        <pt x="349" y="-11" on="0"/>
        <pt x="339" y="3" on="0"/>
        <pt x="332" y="18" on="0"/>
        <pt x="332" y="28" on="1"/>
        <pt x="331" y="31" on="0"/>
        <pt x="333" y="39" on="0"/>
        <pt x="334" y="43" on="1"/>
        <pt x="335" y="46" on="0"/>
        <pt x="335" y="52" on="0"/>
        <pt x="336" y="56" on="1"/>
        <pt x="338" y="67" on="0"/>
        <pt x="343" y="88" on="0"/>
        <pt x="345" y="100" on="1"/>
        <pt x="344" y="116" on="0"/>
        <pt x="349" y="140" on="0"/>
        <pt x="350" y="154" on="1"/>
        <pt x="345" y="152" on="0"/>
        <pt x="340" y="145" on="0"/>
        <pt x="335" y="143" on="1"/>
        <pt x="327" y="134" on="0"/>
        <pt x="308" y="118" on="0"/>
        <pt x="296" y="112" on="1"/>
        <pt x="283" y="103" on="0"/>
        <pt x="259" y="83" on="0"/>
        <pt x="245" y="75" on="1"/>
        <pt x="223" y="55" on="0"/>
        <pt x="175" y="22" on="0"/>
        <pt x="152" y="4" on="1"/>
        <pt x="144" y="1" on="0"/>
        <pt x="129" y="-6" on="0"/>
        <pt x="119" y="-7" on="1"/>
        <pt x="108" y="-13" on="0"/>
        <pt x="89" y="-4" on="0"/>
        <pt x="81" y="1" on="1"/>
        <pt x="75" y="6" on="0"/>
        <pt x="66" y="14" on="0"/>
        <pt x="60" y="19" on="1"/>
        <pt x="49" y="37" on="0"/>
        <pt x="38" y="68" on="0"/>
        <pt x="28" y="79" on="1"/>
        <pt x="27" y="84" on="0"/>
        <pt x="23" y="91" on="0"/>
        <pt x="20" y="95" on="1"/>
        <pt x="17" y="108" on="0"/>
        <pt x="16" y="130" on="0"/>
        <pt x="15" y="142" on="1"/>
        <pt x="16" y="164" on="0"/>
        <pt x="31" y="202" on="0"/>
        <pt x="36" y="218" on="1"/>
        <pt x="37" y="221" on="0"/>
        <pt x="37" y="227" on="0"/>
        <pt x="38" y="230" on="1"/>
        <pt x="39" y="233" on="0"/>
        <pt x="42" y="241" on="0"/>
        <pt x="44" y="245" on="1"/>
        <pt x="46" y="253" on="0"/>
        <pt x="52" y="267" on="0"/>
        <pt x="54" y="275" on="1"/>
        <pt x="56" y="280" on="0"/>
        <pt x="58" y="286" on="0"/>
        <pt x="60" y="289" on="1"/>
        <pt x="65" y="298" on="0"/>
        <pt x="70" y="316" on="0"/>
        <pt x="73" y="325" on="1"/>
        <pt x="81" y="351" on="0"/>
        <pt x="100" y="402" on="0"/>
        <pt x="114" y="425" on="1"/>
        <pt x="116" y="428" on="0"/>
        <pt x="121" y="433" on="0"/>
        <pt x="123" y="436" on="1"/>
        <pt x="144" y="469" on="1"/>
        <pt x="155" y="484" on="0"/>
        <pt x="180" y="511" on="0"/>
        <pt x="191" y="525" on="1"/>
        <pt x="205" y="538" on="0"/>
        <pt x="227" y="568" on="0"/>
        <pt x="241" y="580" on="1"/>
        <pt x="243" y="586" on="0"/>
        <pt x="253" y="593" on="0"/>
        <pt x="255" y="599" on="1"/>
        <pt x="264" y="605" on="0"/>
        <pt x="277" y="623" on="0"/>
        <pt x="287" y="629" on="1"/>
        <pt x="306" y="650" on="0"/>
        <pt x="346" y="689" on="0"/>
        <pt x="366" y="709" on="1"/>
        <pt x="383" y="711" on="0"/>
        <pt x="389" y="722" on="1"/>
        <pt x="403" y="731" on="0"/>
        <pt x="438" y="751" on="0"/>
        <pt x="455" y="756" on="1"/>
        <pt x="460" y="758" on="0"/>
        <pt x="477" y="752" on="0"/>
        <pt x="483" y="750" on="1"/>
        <pt x="498" y="747" on="0"/>
        <pt x="508" y="734" on="0"/>
      </contour>
      <contour>
        <pt x="102" y="170" on="1"/>
        <pt x="107" y="151" on="0"/>
        <pt x="114" y="121" on="0"/>
        <pt x="120" y="104" on="1"/>
        <pt x="124" y="102" on="0"/>
        <pt x="126" y="95" on="0"/>
        <pt x="131" y="93" on="1"/>
        <pt x="135" y="91" on="0"/>
        <pt x="151" y="90" on="0"/>
        <pt x="154" y="91" on="1"/>
        <pt x="159" y="93" on="0"/>
        <pt x="164" y="96" on="1"/>
        <pt x="172" y="100" on="0"/>
        <pt x="186" y="109" on="0"/>
        <pt x="194" y="113" on="1"/>
        <pt x="199" y="115" on="0"/>
        <pt x="209" y="119" on="0"/>
        <pt x="214" y="121" on="1"/>
        <pt x="224" y="123" on="0"/>
        <pt x="239" y="131" on="0"/>
        <pt x="247" y="136" on="1"/>
        <pt x="267" y="147" on="0"/>
        <pt x="306" y="178" on="0"/>
        <pt x="325" y="189" on="1"/>
        <pt x="351" y="221" on="0"/>
        <pt x="398" y="299" on="0"/>
        <pt x="406" y="351" on="1"/>
        <pt x="407" y="363" on="0"/>
        <pt x="410" y="378" on="0"/>
        <pt x="412" y="386" on="1"/>
        <pt x="414" y="392" on="0"/>
        <pt x="417" y="407" on="0"/>
        <pt x="419" y="412" on="1"/>
        <pt x="427" y="438" on="0"/>
        <pt x="435" y="484" on="0"/>
        <pt x="442" y="506" on="1"/>
        <pt x="445" y="514" on="0"/>
        <pt x="450" y="531" on="0"/>
        <pt x="452" y="538" on="1"/>
        <pt x="458" y="545" on="0"/>
        <pt x="457" y="551" on="0"/>
        <pt x="458" y="553" on="1"/>
        <pt x="460" y="558" on="0"/>
        <pt x="464" y="565" on="0"/>
        <pt x="466" y="570" on="1"/>
        <pt x="470" y="580" on="0"/>
        <pt x="478" y="609" on="0"/>
        <pt x="478" y="620" on="1"/>
        <pt x="475" y="637" on="0"/>
        <pt x="472" y="649" on="0"/>
        <pt x="469" y="657" on="1"/>
        <pt x="466" y="665" on="0"/>
        <pt x="454" y="690" on="0"/>
        <pt x="446" y="692" on="1"/>
        <pt x="435" y="694" on="0"/>
        <pt x="415" y="673" on="0"/>
        <pt x="410" y="668" on="1"/>
        <pt x="408" y="666" on="0"/>
        <pt x="401" y="663" on="0"/>
        <pt x="399" y="660" on="1"/>
        <pt x="397" y="658" on="0"/>
        <pt x="392" y="652" on="0"/>
        <pt x="389" y="649" on="1"/>
        <pt x="387" y="647" on="0"/>
        <pt x="382" y="641" on="0"/>
        <pt x="380" y="638" on="1"/>
        <pt x="376" y="633" on="0"/>
        <pt x="367" y="622" on="0"/>
        <pt x="362" y="616" on="1"/>
        <pt x="357" y="611" on="0"/>
        <pt x="351" y="599" on="0"/>
        <pt x="346" y="594" on="1"/>
        <pt x="340" y="587" on="0"/>
        <pt x="328" y="575" on="0"/>
        <pt x="325" y="567" on="1"/>
        <pt x="314" y="559" on="0"/>
        <pt x="304" y="547" on="1"/>
        <pt x="299" y="541" on="0"/>
        <pt x="291" y="529" on="0"/>
        <pt x="288" y="522" on="1"/>
        <pt x="280" y="518" on="0"/>
        <pt x="271" y="502" on="0"/>
        <pt x="265" y="497" on="1"/>
        <pt x="256" y="489" on="0"/>
        <pt x="253" y="482" on="0"/>
        <pt x="251" y="480" on="1"/>
        <pt x="236" y="462" on="0"/>
        <pt x="211" y="422" on="0"/>
        <pt x="200" y="401" on="1"/>
        <pt x="201" y="398" on="0"/>
        <pt x="197" y="393" on="0"/>
        <pt x="197" y="388" on="1"/>
        <pt x="191" y="380" on="0"/>
        <pt x="186" y="369" on="1"/>
        <pt x="182" y="361" on="0"/>
        <pt x="177" y="346" on="0"/>
        <pt x="174" y="338" on="1"/>
        <pt x="172" y="334" on="0"/>
        <pt x="169" y="328" on="0"/>
        <pt x="167" y="325" on="1"/>
        <pt x="165" y="319" on="0"/>
        <pt x="161" y="308" on="0"/>
        <pt x="159" y="303" on="1"/>
        <pt x="157" y="298" on="0"/>
        <pt x="151" y="288" on="0"/>
        <pt x="147" y="283" on="1"/>
        <pt x="145" y="279" on="0"/>
        <pt x="144" y="270" on="0"/>
        <pt x="142" y="266" on="1"/>
        <pt x="140" y="261" on="0"/>
        <pt x="135" y="253" on="0"/>
        <pt x="133" y="248" on="1"/>
        <pt x="131" y="243" on="0"/>
        <pt x="128" y="232" on="0"/>
        <pt x="126" y="227" on="1"/>
        <pt x="124" y="224" on="0"/>
        <pt x="121" y="220" on="0"/>
        <pt x="119" y="218" on="1"/>
        <pt x="117" y="215" on="0"/>
        <pt x="115" y="208" on="0"/>
        <pt x="113" y="205" on="1"/>
        <pt x="108" y="200" on="0"/>
        <pt x="98" y="192" on="0"/>
        <pt x="95" y="185" on="1"/>
        <pt x="97" y="183" on="0"/>
        <pt x="100" y="173" on="0"/>
      </contour>
    </TTGlyph>
    <TTGlyph name="AE" xMin="-52" yMin="-38" xMax="1070" yMax="760">
      <contour>
        <pt x="707" y="698" on="1"/>
        <pt x="718" y="700" on="0"/>
        <pt x="729" y="705" on="1"/>
        <pt x="738" y="708" on="0"/>
        <pt x="741" y="707" on="0"/>
        <pt x="743" y="707" on="1"/>
        <pt x="763" y="716" on="0"/>
        <pt x="794" y="725" on="0"/>
        <pt x="811" y="727" on="1"/>
        <pt x="825" y="730" on="0"/>
        <pt x="846" y="734" on="0"/>
        <pt x="857" y="730" on="1"/>
        <pt x="885" y="732" on="0"/>
        <pt x="945" y="736" on="0"/>
        <pt x="971" y="733" on="1"/>
        <pt x="975" y="732" on="0"/>
        <pt x="983" y="730" on="0"/>
        <pt x="988" y="730" on="1"/>
        <pt x="995" y="734" on="0"/>
        <pt x="1006" y="733" on="0"/>
        <pt x="1008" y="736" on="1"/>
        <pt x="1016" y="732" on="0"/>
        <pt x="1037" y="733" on="0"/>
        <pt x="1046" y="731" on="1"/>
        <pt x="1049" y="731" on="0"/>
        <pt x="1060" y="727" on="0"/>
        <pt x="1063" y="725" on="1"/>
        <pt x="1065" y="723" on="0"/>
        <pt x="1070" y="712" on="0"/>
        <pt x="1064" y="710" on="1"/>
        <pt x="1059" y="703" on="0"/>
        <pt x="1051" y="690" on="0"/>
        <pt x="1044" y="685" on="1"/>
        <pt x="1032" y="674" on="1"/>
        <pt x="1021" y="663" on="1"/>
        <pt x="1015" y="655" on="0"/>
        <pt x="1013" y="656" on="0"/>
        <pt x="1011" y="655" on="1"/>
        <pt x="1006" y="653" on="0"/>
        <pt x="998" y="649" on="1"/>
        <pt x="988" y="651" on="0"/>
        <pt x="968" y="641" on="0"/>
        <pt x="957" y="646" on="1"/>
        <pt x="947" y="644" on="0"/>
        <pt x="927" y="648" on="0"/>
        <pt x="916" y="650" on="1"/>
        <pt x="904" y="653" on="1"/>
        <pt x="893" y="654" on="0"/>
        <pt x="867" y="648" on="0"/>
        <pt x="856" y="647" on="1"/>
        <pt x="848" y="647" on="0"/>
        <pt x="835" y="647" on="0"/>
        <pt x="828" y="646" on="1"/>
        <pt x="818" y="645" on="0"/>
        <pt x="800" y="642" on="0"/>
        <pt x="792" y="640" on="1"/>
        <pt x="775" y="638" on="0"/>
        <pt x="766" y="637" on="1"/>
        <pt x="758" y="635" on="0"/>
        <pt x="744" y="630" on="0"/>
        <pt x="737" y="627" on="1"/>
        <pt x="729" y="624" on="0"/>
        <pt x="715" y="619" on="0"/>
        <pt x="710" y="611" on="1"/>
        <pt x="698" y="595" on="0"/>
        <pt x="690" y="579" on="1"/>
        <pt x="688" y="575" on="0"/>
        <pt x="687" y="569" on="0"/>
        <pt x="685" y="567" on="1"/>
        <pt x="676" y="549" on="1"/>
        <pt x="674" y="544" on="0"/>
        <pt x="670" y="536" on="0"/>
        <pt x="666" y="531" on="1"/>
        <pt x="663" y="523" on="0"/>
        <pt x="653" y="509" on="0"/>
        <pt x="649" y="501" on="1"/>
        <pt x="646" y="496" on="0"/>
        <pt x="641" y="486" on="0"/>
        <pt x="638" y="481" on="1"/>
        <pt x="636" y="476" on="0"/>
        <pt x="630" y="468" on="0"/>
        <pt x="629" y="463" on="1"/>
        <pt x="624" y="461" on="0"/>
        <pt x="621" y="453" on="0"/>
        <pt x="616" y="451" on="1"/>
        <pt x="612" y="443" on="0"/>
        <pt x="603" y="428" on="0"/>
        <pt x="600" y="420" on="1"/>
        <pt x="593" y="405" on="0"/>
        <pt x="587" y="396" on="1"/>
        <pt x="584" y="391" on="0"/>
        <pt x="579" y="381" on="0"/>
        <pt x="577" y="376" on="1"/>
        <pt x="581" y="373" on="0"/>
        <pt x="594" y="376" on="0"/>
        <pt x="598" y="374" on="1"/>
        <pt x="612" y="376" on="0"/>
        <pt x="639" y="378" on="0"/>
        <pt x="651" y="380" on="1"/>
        <pt x="665" y="382" on="0"/>
        <pt x="693" y="388" on="0"/>
        <pt x="709" y="387" on="1"/>
        <pt x="717" y="389" on="0"/>
        <pt x="728" y="390" on="0"/>
        <pt x="733" y="389" on="1"/>
        <pt x="738" y="389" on="0"/>
        <pt x="749" y="389" on="0"/>
        <pt x="753" y="387" on="1"/>
        <pt x="759" y="381" on="0"/>
        <pt x="768" y="380" on="0"/>
        <pt x="770" y="379" on="1"/>
        <pt x="774" y="378" on="0"/>
        <pt x="780" y="372" on="0"/>
        <pt x="782" y="368" on="1"/>
        <pt x="782" y="354" on="0"/>
        <pt x="768" y="333" on="0"/>
        <pt x="757" y="328" on="1"/>
        <pt x="744" y="326" on="0"/>
        <pt x="739" y="327" on="0"/>
        <pt x="733" y="323" on="1"/>
        <pt x="729" y="319" on="0"/>
        <pt x="715" y="312" on="0"/>
        <pt x="709" y="308" on="1"/>
        <pt x="707" y="306" on="0"/>
        <pt x="700" y="302" on="0"/>
        <pt x="697" y="302" on="1"/>
        <pt x="693" y="301" on="0"/>
        <pt x="685" y="302" on="0"/>
        <pt x="681" y="300" on="1"/>
        <pt x="667" y="298" on="0"/>
        <pt x="638" y="291" on="0"/>
        <pt x="624" y="291" on="1"/>
        <pt x="621" y="291" on="0"/>
        <pt x="613" y="292" on="0"/>
        <pt x="609" y="292" on="1"/>
        <pt x="593" y="293" on="0"/>
        <pt x="558" y="290" on="0"/>
        <pt x="543" y="288" on="1"/>
        <pt x="540" y="287" on="0"/>
        <pt x="534" y="288" on="0"/>
        <pt x="531" y="287" on="1"/>
        <pt x="527" y="285" on="0"/>
        <pt x="522" y="268" on="0"/>
        <pt x="520" y="263" on="1"/>
        <pt x="518" y="256" on="0"/>
        <pt x="512" y="245" on="0"/>
        <pt x="510" y="239" on="1"/>
        <pt x="507" y="237" on="0"/>
        <pt x="498" y="218" on="0"/>
        <pt x="495" y="216" on="1"/>
        <pt x="487" y="201" on="0"/>
        <pt x="473" y="167" on="0"/>
        <pt x="471" y="148" on="1"/>
        <pt x="459" y="128" on="0"/>
        <pt x="451" y="79" on="0"/>
        <pt x="447" y="51" on="1"/>
        <pt x="461" y="47" on="0"/>
        <pt x="491" y="46" on="0"/>
        <pt x="508" y="46" on="1"/>
        <pt x="513" y="46" on="0"/>
        <pt x="522" y="45" on="0"/>
        <pt x="526" y="46" on="1"/>
        <pt x="530" y="47" on="0"/>
        <pt x="542" y="55" on="0"/>
        <pt x="546" y="57" on="1"/>
        <pt x="555" y="63" on="0"/>
        <pt x="565" y="68" on="1"/>
        <pt x="590" y="79" on="0"/>
        <pt x="649" y="91" on="0"/>
        <pt x="674" y="94" on="1"/>
        <pt x="682" y="96" on="0"/>
        <pt x="700" y="99" on="0"/>
        <pt x="710" y="101" on="1"/>
        <pt x="716" y="103" on="0"/>
        <pt x="728" y="105" on="0"/>
        <pt x="733" y="106" on="1"/>
        <pt x="745" y="102" on="0"/>
        <pt x="749" y="102" on="0"/>
        <pt x="750" y="101" on="1"/>
        <pt x="760" y="93" on="0"/>
        <pt x="762" y="88" on="0"/>
        <pt x="766" y="87" on="1"/>
        <pt x="768" y="82" on="0"/>
        <pt x="773" y="70" on="0"/>
        <pt x="768" y="62" on="1"/>
        <pt x="767" y="60" on="0"/>
        <pt x="760" y="53" on="0"/>
        <pt x="758" y="51" on="1"/>
        <pt x="756" y="49" on="0"/>
        <pt x="749" y="44" on="0"/>
        <pt x="745" y="42" on="1"/>
        <pt x="742" y="40" on="0"/>
        <pt x="736" y="34" on="0"/>
        <pt x="733" y="33" on="1"/>
        <pt x="730" y="32" on="0"/>
        <pt x="724" y="33" on="0"/>
        <pt x="721" y="33" on="1"/>
        <pt x="713" y="32" on="0"/>
        <pt x="690" y="25" on="0"/>
        <pt x="682" y="22" on="1"/>
        <pt x="674" y="19" on="0"/>
        <pt x="674" y="18" on="0"/>
        <pt x="672" y="17" on="1"/>
        <pt x="660" y="15" on="0"/>
        <pt x="657" y="12" on="1"/>
        <pt x="647" y="9" on="0"/>
        <pt x="640" y="5" on="0"/>
        <pt x="635" y="5" on="1"/>
        <pt x="619" y="-4" on="0"/>
        <pt x="600" y="-9" on="1"/>
        <pt x="597" y="-10" on="0"/>
        <pt x="591" y="-9" on="0"/>
        <pt x="589" y="-10" on="1"/>
        <pt x="582" y="-12" on="0"/>
        <pt x="563" y="-18" on="0"/>
        <pt x="554" y="-16" on="1"/>
        <pt x="535" y="-22" on="0"/>
        <pt x="490" y="-28" on="0"/>
        <pt x="470" y="-33" on="1"/>
        <pt x="458" y="-33" on="0"/>
        <pt x="430" y="-36" on="0"/>
        <pt x="403" y="-38" on="0"/>
        <pt x="379" y="-34" on="0"/>
        <pt x="371" y="-26" on="1"/>
        <pt x="360" y="-10" on="0"/>
        <pt x="356" y="10" on="0"/>
        <pt x="348" y="22" on="1"/>
        <pt x="345" y="31" on="0"/>
        <pt x="341" y="52" on="0"/>
        <pt x="340" y="74" on="0"/>
        <pt x="345" y="94" on="0"/>
        <pt x="351" y="102" on="1"/>
        <pt x="362" y="118" on="0"/>
        <pt x="375" y="147" on="0"/>
        <pt x="383" y="161" on="1"/>
        <pt x="389" y="179" on="0"/>
        <pt x="398" y="194" on="1"/>
        <pt x="407" y="214" on="0"/>
        <pt x="426" y="259" on="0"/>
        <pt x="434" y="279" on="1"/>
        <pt x="416" y="278" on="0"/>
        <pt x="380" y="275" on="0"/>
        <pt x="361" y="273" on="1"/>
        <pt x="341" y="272" on="0"/>
        <pt x="304" y="268" on="0"/>
        <pt x="285" y="265" on="1"/>
        <pt x="274" y="263" on="0"/>
        <pt x="245" y="257" on="0"/>
        <pt x="233" y="254" on="1"/>
        <pt x="224" y="253" on="0"/>
        <pt x="213" y="248" on="1"/>
        <pt x="205" y="246" on="0"/>
        <pt x="199" y="242" on="0"/>
        <pt x="194" y="236" on="1"/>
        <pt x="167" y="201" on="0"/>
        <pt x="119" y="120" on="0"/>
        <pt x="97" y="89" on="1"/>
        <pt x="89" y="76" on="0"/>
        <pt x="73" y="49" on="0"/>
        <pt x="61" y="39" on="1"/>
        <pt x="50" y="26" on="0"/>
        <pt x="24" y="8" on="0"/>
        <pt x="10" y="1" on="1"/>
        <pt x="5" y="-2" on="0"/>
        <pt x="0" y="-8" on="0"/>
        <pt x="-7" y="-8" on="1"/>
        <pt x="-12" y="-8" on="0"/>
        <pt x="-15" y="-7" on="0"/>
        <pt x="-16" y="-5" on="0"/>
        <pt x="-19" y="-2" on="0"/>
        <pt x="-23" y="0" on="1"/>
        <pt x="-25" y="1" on="0"/>
        <pt x="-31" y="4" on="0"/>
        <pt x="-36" y="3" on="1"/>
        <pt x="-43" y="11" on="0"/>
        <pt x="-52" y="28" on="0"/>
        <pt x="-51" y="40" on="1"/>
        <pt x="-50" y="45" on="0"/>
        <pt x="-45" y="53" on="0"/>
        <pt x="-43" y="57" on="1"/>
        <pt x="-35" y="69" on="0"/>
        <pt x="-17" y="92" on="0"/>
        <pt x="-10" y="102" on="1"/>
        <pt x="10" y="121" on="0"/>
        <pt x="41" y="167" on="0"/>
        <pt x="61" y="187" on="1"/>
        <pt x="61" y="189" on="0"/>
        <pt x="68" y="201" on="0"/>
        <pt x="68" y="203" on="1"/>
        <pt x="76" y="208" on="0"/>
        <pt x="81" y="218" on="1"/>
        <pt x="61" y="216" on="0"/>
        <pt x="19" y="218" on="0"/>
        <pt x="0" y="223" on="1"/>
        <pt x="-7" y="225" on="0"/>
        <pt x="-24" y="219" on="0"/>
        <pt x="-29" y="224" on="1"/>
        <pt x="-39" y="230" on="0"/>
        <pt x="-41" y="233" on="1"/>
        <pt x="-40" y="237" on="0"/>
        <pt x="-35" y="241" on="0"/>
        <pt x="-33" y="243" on="1"/>
        <pt x="-25" y="251" on="0"/>
        <pt x="-7" y="263" on="0"/>
        <pt x="6" y="265" on="1"/>
        <pt x="26" y="265" on="0"/>
        <pt x="41" y="271" on="0"/>
        <pt x="49" y="273" on="1"/>
        <pt x="60" y="281" on="0"/>
        <pt x="86" y="286" on="0"/>
        <pt x="101" y="289" on="1"/>
        <pt x="109" y="291" on="0"/>
        <pt x="125" y="294" on="0"/>
        <pt x="131" y="296" on="1"/>
        <pt x="137" y="297" on="0"/>
        <pt x="148" y="297" on="0"/>
        <pt x="153" y="299" on="1"/>
        <pt x="157" y="301" on="0"/>
        <pt x="164" y="309" on="0"/>
        <pt x="168" y="313" on="1"/>
        <pt x="179" y="326" on="0"/>
        <pt x="200" y="347" on="0"/>
        <pt x="211" y="358" on="1"/>
        <pt x="226" y="371" on="0"/>
        <pt x="247" y="394" on="0"/>
        <pt x="259" y="403" on="1"/>
        <pt x="269" y="416" on="0"/>
        <pt x="278" y="439" on="0"/>
        <pt x="291" y="450" on="1"/>
        <pt x="298" y="459" on="0"/>
        <pt x="311" y="478" on="0"/>
        <pt x="319" y="486" on="1"/>
        <pt x="327" y="499" on="0"/>
        <pt x="346" y="517" on="0"/>
        <pt x="353" y="528" on="1"/>
        <pt x="358" y="530" on="0"/>
        <pt x="365" y="540" on="0"/>
        <pt x="368" y="544" on="1"/>
        <pt x="373" y="547" on="0"/>
        <pt x="374" y="550" on="0"/>
        <pt x="376" y="552" on="1"/>
        <pt x="384" y="560" on="0"/>
        <pt x="392" y="567" on="0"/>
        <pt x="395" y="571" on="1"/>
        <pt x="397" y="573" on="0"/>
        <pt x="398" y="580" on="0"/>
        <pt x="400" y="582" on="1"/>
        <pt x="402" y="584" on="0"/>
        <pt x="409" y="590" on="0"/>
        <pt x="412" y="593" on="1"/>
        <pt x="417" y="598" on="0"/>
        <pt x="428" y="609" on="0"/>
        <pt x="433" y="615" on="1"/>
        <pt x="438" y="625" on="0"/>
        <pt x="442" y="629" on="1"/>
        <pt x="452" y="638" on="0"/>
        <pt x="455" y="643" on="0"/>
        <pt x="458" y="644" on="1"/>
        <pt x="473" y="660" on="0"/>
        <pt x="495" y="686" on="0"/>
        <pt x="519" y="710" on="0"/>
        <pt x="545" y="730" on="0"/>
        <pt x="563" y="736" on="1"/>
        <pt x="579" y="739" on="0"/>
        <pt x="597" y="748" on="0"/>
        <pt x="610" y="746" on="1"/>
        <pt x="618" y="746" on="0"/>
        <pt x="630" y="747" on="0"/>
        <pt x="637" y="750" on="1"/>
        <pt x="648" y="753" on="0"/>
        <pt x="670" y="754" on="0"/>
        <pt x="681" y="756" on="1"/>
        <pt x="686" y="757" on="0"/>
        <pt x="695" y="760" on="0"/>
        <pt x="700" y="758" on="1"/>
        <pt x="706" y="752" on="0"/>
        <pt x="708" y="738" on="0"/>
        <pt x="706" y="723" on="0"/>
        <pt x="704" y="706" on="0"/>
      </contour>
      <contour>
        <pt x="630" y="694" on="1"/>
        <pt x="622" y="689" on="0"/>
        <pt x="605" y="680" on="0"/>
        <pt x="597" y="675" on="1"/>
        <pt x="583" y="659" on="0"/>
        <pt x="553" y="641" on="0"/>
        <pt x="542" y="624" on="1"/>
        <pt x="525" y="613" on="0"/>
        <pt x="501" y="589" on="0"/>
        <pt x="487" y="575" on="1"/>
        <pt x="456" y="536" on="0"/>
        <pt x="403" y="469" on="0"/>
        <pt x="377" y="435" on="1"/>
        <pt x="375" y="432" on="0"/>
        <pt x="370" y="427" on="0"/>
        <pt x="368" y="423" on="1"/>
        <pt x="357" y="413" on="0"/>
        <pt x="345" y="399" on="0"/>
        <pt x="339" y="391" on="1"/>
        <pt x="333" y="383" on="0"/>
        <pt x="319" y="370" on="0"/>
        <pt x="314" y="360" on="1"/>
        <pt x="309" y="355" on="0"/>
        <pt x="301" y="349" on="0"/>
        <pt x="300" y="345" on="1"/>
        <pt x="323" y="350" on="0"/>
        <pt x="362" y="362" on="0"/>
        <pt x="384" y="365" on="1"/>
        <pt x="409" y="374" on="0"/>
        <pt x="456" y="371" on="0"/>
        <pt x="485" y="372" on="1"/>
        <pt x="497" y="392" on="0"/>
        <pt x="516" y="433" on="0"/>
        <pt x="528" y="453" on="1"/>
        <pt x="536" y="477" on="0"/>
        <pt x="566" y="512" on="0"/>
        <pt x="577" y="534" on="1"/>
        <pt x="587" y="551" on="0"/>
        <pt x="600" y="581" on="0"/>
        <pt x="610" y="595" on="1"/>
        <pt x="619" y="611" on="0"/>
        <pt x="623" y="631" on="0"/>
        <pt x="628" y="642" on="1"/>
        <pt x="629" y="655" on="0"/>
        <pt x="636" y="680" on="0"/>
        <pt x="631" y="694" on="1"/>
      </contour>
    </TTGlyph>
    <TTGlyph name="Aacute" xMin="15" yMin="-41" xMax="672" yMax="965">
      <component glyphName="A" x="0" y="0" flags="0x204"/>
      <component glyphName="acute" x="113" y="195" flags="0x4"/>
    </TTGlyph>
    <TTGlyph name="Acircumflex" xMin="15" yMin="-41" xMax="672" yMax="937">
      <component glyphName="A" x="0" y="0" flags="0x204"/>
      <component glyphName="circumflex" x="-132" y="174" flags="0x4"/>
    </TTGlyph>
    <TTGlyph name="Adieresis" xMin="15" yMin="-41" xMax="672" yMax="917">
      <component glyphName="A" x="0" y="0" flags="0x204"/>
      <component glyphName="dieresis" x="72" y="174" flags="0x4"/>
    </TTGlyph>
    <TTGlyph name="Agrave" xMin="15" yMin="-41" xMax="672" yMax="965">
      <component glyphName="A" x="0" y="0" flags="0x204"/>
      <component glyphName="grave" x="92" y="195" flags="0x4"/>
    </TTGlyph>
    <TTGlyph name="Aring" xMin="15" yMin="-41" xMax="672" yMax="899">
      <contour>
        <pt x="102" y="170" on="1"/>
        <pt x="107" y="151" on="0"/>
        <pt x="114" y="121" on="0"/>
        <pt x="120" y="104" on="1"/>
        <pt x="124" y="102" on="0"/>
        <pt x="126" y="95" on="0"/>
        <pt x="131" y="93" on="1"/>
        <pt x="135" y="91" on="0"/>
        <pt x="151" y="90" on="0"/>
        <pt x="154" y="91" on="1"/>
        <pt x="159" y="93" on="0"/>
        <pt x="164" y="96" on="1"/>
        <pt x="172" y="100" on="0"/>
        <pt x="186" y="109" on="0"/>
        <pt x="194" y="113" on="1"/>
        <pt x="199" y="115" on="0"/>
        <pt x="209" y="119" on="0"/>
        <pt x="214" y="121" on="1"/>
        <pt x="224" y="123" on="0"/>
        <pt x="239" y="131" on="0"/>
        <pt x="247" y="136" on="1"/>
        <pt x="267" y="147" on="0"/>
        <pt x="306" y="178" on="0"/>
        <pt x="325" y="189" on="1"/>
        <pt x="351" y="221" on="0"/>
        <pt x="398" y="299" on="0"/>
        <pt x="406" y="352" on="1"/>
        <pt x="407" y="363" on="0"/>
        <pt x="410" y="378" on="0"/>
        <pt x="412" y="386" on="1"/>
        <pt x="414" y="392" on="0"/>
        <pt x="417" y="407" on="0"/>
        <pt x="419" y="412" on="1"/>
        <pt x="427" y="438" on="0"/>
        <pt x="435" y="484" on="0"/>
        <pt x="442" y="506" on="1"/>
        <pt x="445" y="514" on="0"/>
        <pt x="450" y="531" on="0"/>
        <pt x="452" y="539" on="1"/>
        <pt x="457" y="545" on="0"/>
        <pt x="457" y="551" on="0"/>
        <pt x="458" y="553" on="1"/>
        <pt x="460" y="558" on="0"/>
        <pt x="464" y="565" on="0"/>
        <pt x="466" y="570" on="1"/>
        <pt x="470" y="580" on="0"/>
        <pt x="478" y="609" on="0"/>
        <pt x="478" y="620" on="1"/>
        <pt x="475" y="638" on="0"/>
        <pt x="472" y="649" on="0"/>
        <pt x="469" y="657" on="1"/>
        <pt x="466" y="665" on="0"/>
        <pt x="454" y="690" on="0"/>
        <pt x="446" y="692" on="1"/>
        <pt x="435" y="694" on="0"/>
        <pt x="415" y="673" on="0"/>
        <pt x="410" y="668" on="1"/>
        <pt x="408" y="666" on="0"/>
        <pt x="401" y="663" on="0"/>
        <pt x="399" y="660" on="1"/>
        <pt x="397" y="658" on="0"/>
        <pt x="392" y="652" on="0"/>
        <pt x="389" y="649" on="1"/>
        <pt x="387" y="647" on="0"/>
        <pt x="382" y="641" on="0"/>
        <pt x="380" y="638" on="1"/>
        <pt x="376" y="633" on="0"/>
        <pt x="367" y="622" on="0"/>
        <pt x="362" y="616" on="1"/>
        <pt x="357" y="611" on="0"/>
        <pt x="351" y="599" on="0"/>
        <pt x="346" y="594" on="1"/>
        <pt x="340" y="587" on="0"/>
        <pt x="328" y="575" on="0"/>
        <pt x="325" y="567" on="1"/>
        <pt x="314" y="559" on="0"/>
        <pt x="304" y="547" on="1"/>
        <pt x="299" y="541" on="0"/>
        <pt x="291" y="529" on="0"/>
        <pt x="288" y="522" on="1"/>
        <pt x="280" y="518" on="0"/>
        <pt x="271" y="502" on="0"/>
        <pt x="265" y="497" on="1"/>
        <pt x="256" y="489" on="0"/>
        <pt x="253" y="482" on="0"/>
        <pt x="251" y="480" on="1"/>
        <pt x="236" y="462" on="0"/>
        <pt x="212" y="422" on="0"/>
        <pt x="201" y="401" on="1"/>
        <pt x="201" y="398" on="0"/>
        <pt x="197" y="393" on="0"/>
        <pt x="197" y="388" on="1"/>
        <pt x="191" y="380" on="0"/>
        <pt x="186" y="369" on="1"/>
        <pt x="182" y="361" on="0"/>
        <pt x="177" y="346" on="0"/>
        <pt x="174" y="338" on="1"/>
        <pt x="172" y="334" on="0"/>
        <pt x="169" y="328" on="0"/>
        <pt x="167" y="325" on="1"/>
        <pt x="165" y="319" on="0"/>
        <pt x="161" y="308" on="0"/>
        <pt x="159" y="303" on="1"/>
        <pt x="157" y="298" on="0"/>
        <pt x="151" y="288" on="0"/>
        <pt x="148" y="283" on="1"/>
        <pt x="146" y="279" on="0"/>
        <pt x="144" y="270" on="0"/>
        <pt x="142" y="266" on="1"/>
        <pt x="140" y="261" on="0"/>
        <pt x="135" y="253" on="0"/>
        <pt x="133" y="248" on="1"/>
        <pt x="131" y="243" on="0"/>
        <pt x="128" y="232" on="0"/>
        <pt x="126" y="227" on="1"/>
        <pt x="124" y="224" on="0"/>
        <pt x="121" y="220" on="0"/>
        <pt x="119" y="218" on="1"/>
        <pt x="117" y="215" on="0"/>
        <pt x="115" y="208" on="0"/>
        <pt x="113" y="205" on="1"/>
        <pt x="108" y="200" on="0"/>
        <pt x="98" y="192" on="0"/>
        <pt x="95" y="185" on="1"/>
        <pt x="97" y="183" on="0"/>
        <pt x="100" y="173" on="0"/>
      </contour>
      <contour>
        <pt x="521" y="898" on="1"/>
        <pt x="537" y="899" on="0"/>
        <pt x="549" y="896" on="1"/>
        <pt x="567" y="888" on="0"/>
        <pt x="590" y="870" on="0"/>
        <pt x="602" y="843" on="0"/>
        <pt x="603" y="809" on="0"/>
        <pt x="595" y="791" on="1"/>
        <pt x="591" y="781" on="0"/>
        <pt x="576" y="764" on="0"/>
        <pt x="565" y="762" on="1"/>
        <pt x="557" y="749" on="0"/>
        <pt x="536" y="734" on="0"/>
        <pt x="521" y="729" on="1"/>
        <pt x="512" y="725" on="0"/>
        <pt x="512" y="719" on="0"/>
        <pt x="511" y="717" on="1"/>
        <pt x="522" y="697" on="0"/>
        <pt x="525" y="643" on="0"/>
        <pt x="527" y="617" on="1"/>
        <pt x="532" y="622" on="0"/>
        <pt x="540" y="631" on="0"/>
        <pt x="544" y="636" on="1"/>
        <pt x="549" y="641" on="0"/>
        <pt x="555" y="650" on="0"/>
        <pt x="559" y="655" on="1"/>
        <pt x="561" y="659" on="0"/>
        <pt x="568" y="665" on="0"/>
        <pt x="571" y="668" on="1"/>
        <pt x="582" y="679" on="0"/>
        <pt x="591" y="691" on="1"/>
        <pt x="595" y="695" on="0"/>
        <pt x="602" y="703" on="0"/>
        <pt x="606" y="708" on="1"/>
        <pt x="614" y="718" on="0"/>
        <pt x="630" y="739" on="0"/>
        <pt x="641" y="745" on="1"/>
        <pt x="652" y="741" on="0"/>
        <pt x="654" y="741" on="1"/>
        <pt x="667" y="737" on="0"/>
        <pt x="672" y="721" on="0"/>
        <pt x="672" y="714" on="1"/>
        <pt x="672" y="709" on="0"/>
        <pt x="670" y="695" on="0"/>
        <pt x="668" y="690" on="1"/>
        <pt x="666" y="684" on="0"/>
        <pt x="660" y="673" on="0"/>
        <pt x="660" y="668" on="1"/>
        <pt x="659" y="662" on="0"/>
        <pt x="656" y="649" on="0"/>
        <pt x="652" y="646" on="1"/>
        <pt x="654" y="632" on="0"/>
        <pt x="639" y="614" on="0"/>
        <pt x="634" y="606" on="1"/>
        <pt x="632" y="603" on="0"/>
        <pt x="629" y="597" on="0"/>
        <pt x="627" y="593" on="1"/>
        <pt x="623" y="588" on="0"/>
        <pt x="621" y="579" on="0"/>
        <pt x="616" y="574" on="1"/>
        <pt x="613" y="570" on="0"/>
        <pt x="602" y="563" on="0"/>
        <pt x="598" y="559" on="1"/>
        <pt x="589" y="548" on="0"/>
        <pt x="583" y="542" on="0"/>
        <pt x="581" y="540" on="1"/>
        <pt x="576" y="534" on="0"/>
        <pt x="570" y="521" on="0"/>
        <pt x="565" y="516" on="1"/>
        <pt x="562" y="512" on="0"/>
        <pt x="555" y="507" on="0"/>
        <pt x="553" y="504" on="1"/>
        <pt x="551" y="501" on="0"/>
        <pt x="548" y="493" on="0"/>
        <pt x="546" y="489" on="1"/>
        <pt x="544" y="485" on="0"/>
        <pt x="540" y="479" on="0"/>
        <pt x="538" y="476" on="1"/>
        <pt x="536" y="472" on="0"/>
        <pt x="534" y="464" on="0"/>
        <pt x="531" y="460" on="1"/>
        <pt x="523" y="446" on="0"/>
        <pt x="517" y="434" on="1"/>
        <pt x="514" y="428" on="0"/>
        <pt x="510" y="415" on="0"/>
        <pt x="507" y="409" on="1"/>
        <pt x="505" y="403" on="0"/>
        <pt x="499" y="392" on="0"/>
        <pt x="497" y="387" on="1"/>
        <pt x="492" y="376" on="0"/>
        <pt x="485" y="351" on="0"/>
        <pt x="480" y="340" on="1"/>
        <pt x="476" y="331" on="0"/>
        <pt x="470" y="313" on="0"/>
        <pt x="466" y="305" on="1"/>
        <pt x="461" y="286" on="0"/>
        <pt x="452" y="250" on="0"/>
        <pt x="445" y="231" on="1"/>
        <pt x="438" y="211" on="0"/>
        <pt x="425" y="168" on="0"/>
        <pt x="419" y="147" on="1"/>
        <pt x="408" y="103" on="0"/>
        <pt x="411" y="57" on="1"/>
        <pt x="417" y="57" on="0"/>
        <pt x="428" y="51" on="0"/>
        <pt x="434" y="53" on="1"/>
        <pt x="439" y="54" on="0"/>
        <pt x="449" y="62" on="0"/>
        <pt x="456" y="65" on="1"/>
        <pt x="461" y="67" on="0"/>
        <pt x="468" y="68" on="0"/>
        <pt x="470" y="72" on="1"/>
        <pt x="476" y="74" on="0"/>
        <pt x="486" y="79" on="0"/>
        <pt x="490" y="84" on="1"/>
        <pt x="501" y="87" on="0"/>
        <pt x="519" y="100" on="0"/>
        <pt x="528" y="105" on="1"/>
        <pt x="533" y="108" on="0"/>
        <pt x="543" y="114" on="0"/>
        <pt x="548" y="117" on="1"/>
        <pt x="553" y="119" on="0"/>
        <pt x="563" y="123" on="0"/>
        <pt x="567" y="127" on="1"/>
        <pt x="569" y="129" on="0"/>
        <pt x="581" y="137" on="0"/>
        <pt x="584" y="139" on="1"/>
        <pt x="594" y="142" on="0"/>
        <pt x="606" y="151" on="0"/>
        <pt x="608" y="153" on="1"/>
        <pt x="612" y="152" on="0"/>
        <pt x="629" y="162" on="0"/>
        <pt x="634" y="162" on="1"/>
        <pt x="638" y="160" on="0"/>
        <pt x="646" y="159" on="0"/>
        <pt x="649" y="157" on="1"/>
        <pt x="648" y="153" on="0"/>
        <pt x="649" y="146" on="0"/>
        <pt x="649" y="143" on="1"/>
        <pt x="649" y="141" on="0"/>
        <pt x="638" y="127" on="0"/>
        <pt x="636" y="125" on="1"/>
        <pt x="633" y="121" on="0"/>
        <pt x="616" y="107" on="0"/>
        <pt x="611" y="105" on="1"/>
        <pt x="606" y="94" on="0"/>
        <pt x="587" y="77" on="0"/>
        <pt x="579" y="69" on="1"/>
        <pt x="569" y="64" on="0"/>
        <pt x="551" y="48" on="0"/>
        <pt x="544" y="41" on="1"/>
        <pt x="520" y="27" on="0"/>
        <pt x="470" y="-8" on="0"/>
        <pt x="442" y="-22" on="1"/>
        <pt x="430" y="-27" on="0"/>
        <pt x="408" y="-38" on="0"/>
        <pt x="392" y="-40" on="1"/>
        <pt x="383" y="-41" on="0"/>
        <pt x="370" y="-36" on="0"/>
        <pt x="362" y="-34" on="1"/>
        <pt x="359" y="-25" on="0"/>
        <pt x="350" y="-11" on="0"/>
        <pt x="340" y="3" on="0"/>
        <pt x="332" y="18" on="0"/>
        <pt x="332" y="28" on="1"/>
        <pt x="331" y="31" on="0"/>
        <pt x="333" y="39" on="0"/>
        <pt x="334" y="43" on="1"/>
        <pt x="335" y="46" on="0"/>
        <pt x="335" y="52" on="0"/>
        <pt x="336" y="56" on="1"/>
        <pt x="338" y="67" on="0"/>
        <pt x="343" y="88" on="0"/>
        <pt x="345" y="100" on="1"/>
        <pt x="344" y="116" on="0"/>
        <pt x="349" y="140" on="0"/>
        <pt x="350" y="154" on="1"/>
        <pt x="345" y="152" on="0"/>
        <pt x="340" y="145" on="0"/>
        <pt x="335" y="143" on="1"/>
        <pt x="327" y="134" on="0"/>
        <pt x="308" y="118" on="0"/>
        <pt x="296" y="113" on="1"/>
        <pt x="283" y="103" on="0"/>
        <pt x="259" y="83" on="0"/>
        <pt x="245" y="75" on="1"/>
        <pt x="223" y="55" on="0"/>
        <pt x="175" y="22" on="0"/>
        <pt x="152" y="4" on="1"/>
        <pt x="144" y="1" on="0"/>
        <pt x="129" y="-6" on="0"/>
        <pt x="119" y="-7" on="1"/>
        <pt x="108" y="-13" on="0"/>
        <pt x="89" y="-4" on="0"/>
        <pt x="81" y="1" on="1"/>
        <pt x="75" y="6" on="0"/>
        <pt x="66" y="14" on="0"/>
        <pt x="61" y="19" on="1"/>
        <pt x="49" y="37" on="0"/>
        <pt x="38" y="68" on="0"/>
        <pt x="28" y="79" on="1"/>
        <pt x="27" y="84" on="0"/>
        <pt x="23" y="91" on="0"/>
        <pt x="20" y="95" on="1"/>
        <pt x="17" y="108" on="0"/>
        <pt x="16" y="130" on="0"/>
        <pt x="15" y="142" on="1"/>
        <pt x="16" y="164" on="0"/>
        <pt x="31" y="202" on="0"/>
        <pt x="36" y="219" on="1"/>
        <pt x="37" y="221" on="0"/>
        <pt x="37" y="227" on="0"/>
        <pt x="38" y="230" on="1"/>
        <pt x="39" y="233" on="0"/>
        <pt x="42" y="241" on="0"/>
        <pt x="44" y="245" on="1"/>
        <pt x="46" y="253" on="0"/>
        <pt x="51" y="267" on="0"/>
        <pt x="54" y="275" on="1"/>
        <pt x="56" y="280" on="0"/>
        <pt x="59" y="286" on="0"/>
        <pt x="61" y="289" on="1"/>
        <pt x="65" y="298" on="0"/>
        <pt x="70" y="316" on="0"/>
        <pt x="73" y="326" on="1"/>
        <pt x="81" y="351" on="0"/>
        <pt x="101" y="402" on="0"/>
        <pt x="115" y="425" on="1"/>
        <pt x="117" y="428" on="0"/>
        <pt x="121" y="433" on="0"/>
        <pt x="123" y="436" on="1"/>
        <pt x="144" y="469" on="1"/>
        <pt x="155" y="484" on="0"/>
        <pt x="180" y="511" on="0"/>
        <pt x="191" y="525" on="1"/>
        <pt x="205" y="538" on="0"/>
        <pt x="226" y="568" on="0"/>
        <pt x="241" y="580" on="1"/>
        <pt x="243" y="586" on="0"/>
        <pt x="253" y="592" on="0"/>
        <pt x="255" y="599" on="1"/>
        <pt x="264" y="605" on="0"/>
        <pt x="277" y="623" on="0"/>
        <pt x="287" y="629" on="1"/>
        <pt x="306" y="649" on="0"/>
        <pt x="347" y="689" on="0"/>
        <pt x="367" y="709" on="1"/>
        <pt x="383" y="711" on="0"/>
        <pt x="389" y="723" on="1"/>
        <pt x="398" y="729" on="0"/>
        <pt x="421" y="742" on="0"/>
        <pt x="432" y="748" on="1"/>
        <pt x="419" y="763" on="0"/>
        <pt x="420" y="814" on="0"/>
        <pt x="431" y="840" on="1"/>
        <pt x="443" y="865" on="0"/>
        <pt x="493" y="893" on="0"/>
        <pt x="520" y="896" on="1"/>
      </contour>
      <contour>
        <pt x="537" y="853" on="1"/>
        <pt x="522" y="848" on="0"/>
        <pt x="506" y="850" on="0"/>
        <pt x="498" y="847" on="1"/>
        <pt x="485" y="842" on="0"/>
        <pt x="469" y="819" on="0"/>
        <pt x="461" y="808" on="1"/>
        <pt x="459" y="790" on="0"/>
        <pt x="478" y="776" on="0"/>
        <pt x="485" y="767" on="1"/>
        <pt x="497" y="772" on="0"/>
        <pt x="525" y="778" on="0"/>
        <pt x="534" y="786" on="1"/>
        <pt x="542" y="794" on="0"/>
        <pt x="549" y="818" on="0"/>
        <pt x="558" y="826" on="1"/>
        <pt x="556" y="837" on="0"/>
        <pt x="540" y="845" on="0"/>
      </contour>
    </TTGlyph>
    <TTGlyph name="Atilde" xMin="15" yMin="-41" xMax="681" yMax="902">
      <component glyphName="A" x="0" y="0" flags="0x204"/>
      <component glyphName="tilde" x="-81" y="164" flags="0x4"/>
    </TTGlyph>
    <TTGlyph name="B" xMin="-31" yMin="-34" xMax="636" yMax="753">
      <contour>
        <pt x="390" y="352" on="1"/>
        <pt x="394" y="346" on="0"/>
        <pt x="410" y="343" on="0"/>
        <pt x="415" y="339" on="1"/>
        <pt x="423" y="337" on="0"/>
        <pt x="432" y="336" on="0"/>
        <pt x="437" y="335" on="1"/>
        <pt x="444" y="328" on="0"/>
        <pt x="446" y="328" on="0"/>
        <pt x="445" y="326" on="1"/>
        <pt x="458" y="314" on="0"/>
        <pt x="469" y="299" on="1"/>
        <pt x="471" y="295" on="0"/>
        <pt x="474" y="282" on="0"/>
        <pt x="476" y="276" on="1"/>
        <pt x="478" y="271" on="0"/>
        <pt x="479" y="261" on="0"/>
        <pt x="480" y="256" on="1"/>
        <pt x="482" y="239" on="0"/>
        <pt x="474" y="211" on="0"/>
        <pt x="472" y="197" on="1"/>
        <pt x="467" y="190" on="0"/>
        <pt x="467" y="176" on="0"/>
        <pt x="465" y="169" on="1"/>
        <pt x="464" y="166" on="0"/>
        <pt x="461" y="160" on="0"/>
        <pt x="460" y="156" on="1"/>
        <pt x="457" y="142" on="0"/>
        <pt x="444" y="121" on="0"/>
        <pt x="439" y="110" on="1"/>
        <pt x="438" y="103" on="0"/>
        <pt x="434" y="91" on="0"/>
        <pt x="433" y="86" on="1"/>
        <pt x="432" y="82" on="0"/>
        <pt x="425" y="76" on="0"/>
        <pt x="427" y="72" on="1"/>
        <pt x="419" y="68" on="0"/>
        <pt x="419" y="60" on="1"/>
        <pt x="417" y="58" on="0"/>
        <pt x="410" y="53" on="0"/>
        <pt x="408" y="48" on="1"/>
        <pt x="394" y="38" on="0"/>
        <pt x="385" y="29" on="0"/>
        <pt x="380" y="25" on="1"/>
        <pt x="376" y="23" on="0"/>
        <pt x="369" y="15" on="0"/>
        <pt x="365" y="13" on="1"/>
        <pt x="362" y="11" on="0"/>
        <pt x="355" y="7" on="0"/>
        <pt x="352" y="5" on="1"/>
        <pt x="345" y="0" on="0"/>
        <pt x="331" y="-9" on="0"/>
        <pt x="323" y="-14" on="1"/>
        <pt x="317" y="-17" on="0"/>
        <pt x="308" y="-23" on="0"/>
        <pt x="303" y="-25" on="1"/>
        <pt x="298" y="-27" on="0"/>
        <pt x="285" y="-29" on="0"/>
        <pt x="280" y="-31" on="1"/>
        <pt x="260" y="-34" on="0"/>
        <pt x="222" y="-22" on="0"/>
        <pt x="208" y="-15" on="1"/>
        <pt x="197" y="-10" on="0"/>
        <pt x="170" y="-2" on="0"/>
        <pt x="160" y="6" on="1"/>
        <pt x="144" y="19" on="0"/>
        <pt x="130" y="60" on="0"/>
        <pt x="119" y="78" on="1"/>
        <pt x="120" y="85" on="0"/>
        <pt x="113" y="93" on="0"/>
        <pt x="110" y="98" on="1"/>
        <pt x="108" y="103" on="0"/>
        <pt x="103" y="110" on="0"/>
        <pt x="101" y="113" on="1"/>
        <pt x="97" y="128" on="0"/>
        <pt x="96" y="130" on="1"/>
        <pt x="84" y="128" on="0"/>
        <pt x="76" y="105" on="0"/>
        <pt x="70" y="95" on="1"/>
        <pt x="69" y="89" on="0"/>
        <pt x="64" y="80" on="0"/>
        <pt x="61" y="75" on="1"/>
        <pt x="59" y="70" on="0"/>
        <pt x="59" y="62" on="0"/>
        <pt x="55" y="60" on="1"/>
        <pt x="43" y="59" on="0"/>
        <pt x="41" y="49" on="0"/>
        <pt x="36" y="50" on="1"/>
        <pt x="37" y="43" on="0"/>
        <pt x="29" y="32" on="0"/>
        <pt x="31" y="25" on="1"/>
        <pt x="30" y="20" on="0"/>
        <pt x="25" y="14" on="0"/>
        <pt x="23" y="9" on="1"/>
        <pt x="16" y="6" on="0"/>
        <pt x="-7" y="2" on="0"/>
        <pt x="-12" y="9" on="1"/>
        <pt x="-21" y="11" on="0"/>
        <pt x="-31" y="17" on="0"/>
        <pt x="-31" y="23" on="1"/>
        <pt x="-31" y="27" on="0"/>
        <pt x="-26" y="31" on="0"/>
        <pt x="-28" y="36" on="1"/>
        <pt x="-21" y="52" on="0"/>
        <pt x="-1" y="77" on="0"/>
        <pt x="5" y="93" on="1"/>
        <pt x="13" y="107" on="0"/>
        <pt x="28" y="136" on="0"/>
        <pt x="36" y="150" on="1"/>
        <pt x="44" y="167" on="0"/>
        <pt x="62" y="195" on="0"/>
        <pt x="69" y="212" on="1"/>
        <pt x="71" y="216" on="0"/>
        <pt x="72" y="221" on="0"/>
        <pt x="70" y="225" on="1"/>
        <pt x="80" y="254" on="0"/>
        <pt x="108" y="304" on="0"/>
        <pt x="121" y="330" on="1"/>
        <pt x="126" y="348" on="0"/>
        <pt x="144" y="381" on="0"/>
        <pt x="151" y="399" on="1"/>
        <pt x="162" y="420" on="0"/>
        <pt x="179" y="452" on="0"/>
        <pt x="188" y="469" on="1"/>
        <pt x="195" y="477" on="0"/>
        <pt x="200" y="496" on="0"/>
        <pt x="206" y="501" on="1"/>
        <pt x="208" y="506" on="0"/>
        <pt x="213" y="514" on="0"/>
        <pt x="215" y="519" on="1"/>
        <pt x="223" y="539" on="0"/>
        <pt x="237" y="558" on="0"/>
        <pt x="239" y="569" on="1"/>
        <pt x="244" y="574" on="0"/>
        <pt x="253" y="591" on="0"/>
        <pt x="257" y="599" on="1"/>
        <pt x="259" y="604" on="0"/>
        <pt x="266" y="618" on="0"/>
        <pt x="269" y="626" on="1"/>
        <pt x="271" y="629" on="0"/>
        <pt x="273" y="633" on="0"/>
        <pt x="274" y="637" on="1"/>
        <pt x="279" y="642" on="0"/>
        <pt x="283" y="655" on="0"/>
        <pt x="287" y="660" on="1"/>
        <pt x="280" y="667" on="0"/>
        <pt x="260" y="659" on="0"/>
        <pt x="251" y="654" on="1"/>
        <pt x="234" y="647" on="0"/>
        <pt x="204" y="631" on="0"/>
        <pt x="190" y="623" on="1"/>
        <pt x="175" y="615" on="0"/>
        <pt x="146" y="609" on="0"/>
        <pt x="132" y="606" on="1"/>
        <pt x="124" y="611" on="0"/>
        <pt x="119" y="604" on="0"/>
        <pt x="114" y="607" on="1"/>
        <pt x="112" y="607" on="0"/>
        <pt x="107" y="604" on="0"/>
        <pt x="102" y="604" on="1"/>
        <pt x="99" y="609" on="0"/>
        <pt x="108" y="614" on="0"/>
        <pt x="109" y="618" on="1"/>
        <pt x="132" y="632" on="0"/>
        <pt x="182" y="655" on="0"/>
        <pt x="205" y="669" on="1"/>
        <pt x="230" y="684" on="0"/>
        <pt x="268" y="702" on="0"/>
        <pt x="287" y="714" on="1"/>
        <pt x="310" y="722" on="0"/>
        <pt x="349" y="741" on="0"/>
        <pt x="375" y="743" on="1"/>
        <pt x="386" y="750" on="0"/>
        <pt x="414" y="747" on="0"/>
        <pt x="426" y="752" on="1"/>
        <pt x="434" y="752" on="0"/>
        <pt x="457" y="753" on="0"/>
        <pt x="467" y="752" on="1"/>
        <pt x="490" y="751" on="0"/>
        <pt x="515" y="749" on="0"/>
        <pt x="526" y="746" on="1"/>
        <pt x="530" y="745" on="0"/>
        <pt x="539" y="743" on="0"/>
        <pt x="543" y="742" on="1"/>
        <pt x="554" y="738" on="0"/>
        <pt x="577" y="733" on="0"/>
        <pt x="585" y="728" on="1"/>
        <pt x="600" y="715" on="0"/>
        <pt x="615" y="698" on="0"/>
        <pt x="618" y="686" on="1"/>
        <pt x="624" y="672" on="0"/>
        <pt x="634" y="650" on="0"/>
        <pt x="635" y="637" on="1"/>
        <pt x="636" y="632" on="0"/>
        <pt x="635" y="620" on="0"/>
        <pt x="635" y="613" on="1"/>
        <pt x="634" y="604" on="0"/>
        <pt x="636" y="585" on="0"/>
        <pt x="635" y="574" on="1"/>
        <pt x="634" y="562" on="0"/>
        <pt x="627" y="538" on="0"/>
        <pt x="622" y="527" on="1"/>
        <pt x="617" y="516" on="0"/>
        <pt x="614" y="494" on="0"/>
        <pt x="607" y="485" on="1"/>
        <pt x="601" y="474" on="0"/>
        <pt x="594" y="461" on="0"/>
        <pt x="590" y="454" on="1"/>
        <pt x="588" y="452" on="0"/>
        <pt x="583" y="448" on="0"/>
        <pt x="582" y="444" on="1"/>
        <pt x="571" y="435" on="0"/>
        <pt x="551" y="416" on="0"/>
        <pt x="537" y="410" on="1"/>
        <pt x="527" y="400" on="0"/>
        <pt x="502" y="383" on="0"/>
        <pt x="490" y="375" on="1"/>
        <pt x="487" y="373" on="0"/>
        <pt x="480" y="368" on="0"/>
        <pt x="474" y="367" on="1"/>
        <pt x="466" y="365" on="0"/>
        <pt x="455" y="363" on="0"/>
        <pt x="446" y="361" on="1"/>
        <pt x="434" y="360" on="0"/>
        <pt x="410" y="356" on="0"/>
        <pt x="399" y="354" on="1"/>
      </contour>
      <contour>
        <pt x="331" y="392" on="1"/>
        <pt x="345" y="398" on="0"/>
        <pt x="373" y="411" on="0"/>
        <pt x="387" y="416" on="1"/>
        <pt x="395" y="418" on="0"/>
        <pt x="409" y="422" on="0"/>
        <pt x="415" y="425" on="1"/>
        <pt x="426" y="432" on="0"/>
        <pt x="434" y="436" on="0"/>
        <pt x="438" y="439" on="1"/>
        <pt x="444" y="442" on="0"/>
        <pt x="455" y="452" on="0"/>
        <pt x="460" y="455" on="1"/>
        <pt x="466" y="460" on="0"/>
        <pt x="477" y="467" on="0"/>
        <pt x="483" y="472" on="1"/>
        <pt x="487" y="475" on="0"/>
        <pt x="496" y="480" on="0"/>
        <pt x="500" y="483" on="1"/>
        <pt x="507" y="490" on="0"/>
        <pt x="516" y="506" on="0"/>
        <pt x="523" y="512" on="1"/>
        <pt x="528" y="522" on="0"/>
        <pt x="536" y="542" on="0"/>
        <pt x="539" y="553" on="1"/>
        <pt x="542" y="562" on="0"/>
        <pt x="548" y="579" on="0"/>
        <pt x="550" y="587" on="1"/>
        <pt x="551" y="597" on="0"/>
        <pt x="554" y="605" on="0"/>
        <pt x="553" y="609" on="1"/>
        <pt x="553" y="613" on="0"/>
        <pt x="549" y="621" on="0"/>
        <pt x="547" y="624" on="1"/>
        <pt x="542" y="635" on="0"/>
        <pt x="528" y="655" on="0"/>
        <pt x="522" y="665" on="1"/>
        <pt x="513" y="672" on="0"/>
        <pt x="488" y="685" on="0"/>
        <pt x="473" y="680" on="1"/>
        <pt x="471" y="682" on="0"/>
        <pt x="461" y="683" on="0"/>
        <pt x="459" y="681" on="1"/>
        <pt x="452" y="682" on="0"/>
        <pt x="437" y="681" on="0"/>
        <pt x="421" y="679" on="0"/>
        <pt x="407" y="676" on="0"/>
        <pt x="404" y="675" on="1"/>
        <pt x="402" y="673" on="0"/>
        <pt x="398" y="666" on="0"/>
        <pt x="396" y="663" on="1"/>
        <pt x="391" y="654" on="0"/>
        <pt x="382" y="647" on="0"/>
        <pt x="377" y="639" on="1"/>
        <pt x="373" y="634" on="0"/>
        <pt x="367" y="626" on="0"/>
        <pt x="365" y="621" on="1"/>
        <pt x="360" y="619" on="0"/>
        <pt x="357" y="613" on="0"/>
        <pt x="355" y="610" on="1"/>
        <pt x="350" y="608" on="0"/>
        <pt x="348" y="596" on="0"/>
        <pt x="344" y="594" on="1"/>
        <pt x="336" y="582" on="0"/>
        <pt x="329" y="565" on="0"/>
        <pt x="324" y="551" on="1"/>
        <pt x="316" y="536" on="0"/>
        <pt x="303" y="509" on="0"/>
        <pt x="296" y="495" on="1"/>
        <pt x="294" y="489" on="0"/>
        <pt x="290" y="479" on="0"/>
        <pt x="288" y="474" on="1"/>
        <pt x="285" y="469" on="0"/>
        <pt x="277" y="460" on="0"/>
        <pt x="273" y="455" on="1"/>
        <pt x="262" y="438" on="0"/>
        <pt x="247" y="404" on="0"/>
        <pt x="237" y="388" on="1"/>
        <pt x="215" y="355" on="0"/>
        <pt x="197" y="322" on="1"/>
        <pt x="192" y="318" on="0"/>
        <pt x="193" y="308" on="0"/>
        <pt x="187" y="306" on="1"/>
        <pt x="179" y="295" on="0"/>
        <pt x="174" y="289" on="1"/>
        <pt x="172" y="285" on="0"/>
        <pt x="168" y="277" on="0"/>
        <pt x="166" y="272" on="1"/>
        <pt x="163" y="267" on="0"/>
        <pt x="156" y="256" on="0"/>
        <pt x="154" y="251" on="1"/>
        <pt x="149" y="240" on="0"/>
        <pt x="137" y="219" on="0"/>
        <pt x="132" y="210" on="1"/>
        <pt x="130" y="206" on="0"/>
        <pt x="126" y="200" on="0"/>
        <pt x="124" y="197" on="1"/>
        <pt x="122" y="189" on="0"/>
        <pt x="120" y="188" on="0"/>
        <pt x="119" y="186" on="1"/>
        <pt x="118" y="181" on="0"/>
        <pt x="122" y="174" on="0"/>
        <pt x="124" y="170" on="1"/>
        <pt x="125" y="167" on="0"/>
        <pt x="125" y="162" on="0"/>
        <pt x="126" y="159" on="1"/>
        <pt x="130" y="148" on="0"/>
        <pt x="135" y="139" on="0"/>
        <pt x="139" y="130" on="1"/>
        <pt x="141" y="126" on="0"/>
        <pt x="143" y="120" on="0"/>
        <pt x="145" y="117" on="1"/>
        <pt x="147" y="113" on="0"/>
        <pt x="150" y="107" on="0"/>
        <pt x="152" y="102" on="1"/>
        <pt x="158" y="90" on="0"/>
        <pt x="176" y="72" on="0"/>
        <pt x="184" y="61" on="1"/>
        <pt x="193" y="55" on="0"/>
        <pt x="216" y="57" on="0"/>
        <pt x="227" y="56" on="1"/>
        <pt x="237" y="60" on="0"/>
        <pt x="258" y="55" on="0"/>
        <pt x="268" y="55" on="1"/>
        <pt x="271" y="56" on="0"/>
        <pt x="276" y="59" on="0"/>
        <pt x="279" y="57" on="1"/>
        <pt x="285" y="60" on="0"/>
        <pt x="298" y="66" on="0"/>
        <pt x="304" y="69" on="1"/>
        <pt x="313" y="77" on="0"/>
        <pt x="331" y="90" on="0"/>
        <pt x="337" y="100" on="1"/>
        <pt x="339" y="102" on="0"/>
        <pt x="342" y="107" on="0"/>
        <pt x="344" y="110" on="1"/>
        <pt x="348" y="115" on="0"/>
        <pt x="353" y="126" on="0"/>
        <pt x="355" y="132" on="1"/>
        <pt x="366" y="143" on="0"/>
        <pt x="378" y="164" on="0"/>
        <pt x="386" y="173" on="1"/>
        <pt x="388" y="181" on="0"/>
        <pt x="400" y="193" on="0"/>
        <pt x="401" y="203" on="1"/>
        <pt x="401" y="222" on="0"/>
        <pt x="395" y="241" on="0"/>
        <pt x="392" y="250" on="1"/>
        <pt x="390" y="254" on="0"/>
        <pt x="390" y="263" on="0"/>
        <pt x="388" y="267" on="1"/>
        <pt x="380" y="279" on="0"/>
        <pt x="371" y="296" on="0"/>
        <pt x="365" y="301" on="1"/>
        <pt x="361" y="303" on="0"/>
        <pt x="352" y="303" on="0"/>
        <pt x="348" y="305" on="1"/>
        <pt x="337" y="309" on="0"/>
        <pt x="315" y="317" on="0"/>
        <pt x="302" y="319" on="1"/>
        <pt x="297" y="322" on="0"/>
        <pt x="289" y="328" on="0"/>
        <pt x="284" y="330" on="1"/>
        <pt x="280" y="336" on="0"/>
        <pt x="275" y="337" on="1"/>
        <pt x="275" y="343" on="0"/>
        <pt x="265" y="347" on="0"/>
        <pt x="263" y="352" on="1"/>
        <pt x="261" y="357" on="0"/>
        <pt x="261" y="369" on="0"/>
        <pt x="258" y="374" on="1"/>
        <pt x="263" y="377" on="0"/>
        <pt x="277" y="376" on="0"/>
        <pt x="282" y="381" on="1"/>
        <pt x="290" y="381" on="0"/>
        <pt x="302" y="386" on="0"/>
        <pt x="310" y="388" on="1"/>
        <pt x="316" y="389" on="0"/>
        <pt x="326" y="386" on="0"/>
        <pt x="331" y="389" on="1"/>
      </contour>
    </TTGlyph>
    <TTGlyph name="C" xMin="10" yMin="-35" xMax="621" yMax="760">
      <contour>
        <pt x="604" y="734" on="1"/>
        <pt x="605" y="729" on="0"/>
        <pt x="611" y="722" on="0"/>
        <pt x="614" y="720" on="1"/>
        <pt x="615" y="712" on="0"/>
        <pt x="616" y="695" on="0"/>
        <pt x="618" y="687" on="1"/>
        <pt x="618" y="683" on="0"/>
        <pt x="618" y="674" on="0"/>
        <pt x="621" y="671" on="1"/>
        <pt x="618" y="636" on="0"/>
        <pt x="605" y="591" on="0"/>
        <pt x="600" y="564" on="1"/>
        <pt x="599" y="559" on="0"/>
        <pt x="596" y="550" on="0"/>
        <pt x="596" y="545" on="1"/>
        <pt x="595" y="541" on="0"/>
        <pt x="596" y="535" on="0"/>
        <pt x="595" y="531" on="1"/>
        <pt x="593" y="525" on="0"/>
        <pt x="585" y="511" on="0"/>
        <pt x="581" y="503" on="1"/>
        <pt x="565" y="474" on="0"/>
        <pt x="526" y="422" on="0"/>
        <pt x="497" y="408" on="1"/>
        <pt x="486" y="403" on="0"/>
        <pt x="471" y="394" on="0"/>
        <pt x="460" y="392" on="1"/>
        <pt x="453" y="388" on="0"/>
        <pt x="434" y="379" on="0"/>
        <pt x="425" y="377" on="1"/>
        <pt x="421" y="375" on="0"/>
        <pt x="413" y="375" on="0"/>
        <pt x="409" y="374" on="1"/>
        <pt x="404" y="372" on="0"/>
        <pt x="397" y="369" on="0"/>
        <pt x="394" y="368" on="1"/>
        <pt x="386" y="366" on="0"/>
        <pt x="382" y="366" on="1"/>
        <pt x="375" y="367" on="0"/>
        <pt x="369" y="382" on="0"/>
        <pt x="369" y="390" on="1"/>
        <pt x="365" y="394" on="0"/>
        <pt x="355" y="400" on="0"/>
        <pt x="353" y="408" on="1"/>
        <pt x="350" y="419" on="0"/>
        <pt x="348" y="421" on="0"/>
        <pt x="347" y="423" on="1"/>
        <pt x="342" y="437" on="0"/>
        <pt x="345" y="472" on="0"/>
        <pt x="351" y="483" on="1"/>
        <pt x="353" y="488" on="0"/>
        <pt x="361" y="493" on="0"/>
        <pt x="362" y="498" on="1"/>
        <pt x="370" y="503" on="0"/>
        <pt x="382" y="514" on="0"/>
        <pt x="390" y="519" on="1"/>
        <pt x="400" y="536" on="0"/>
        <pt x="426" y="554" on="0"/>
        <pt x="438" y="564" on="1"/>
        <pt x="442" y="567" on="0"/>
        <pt x="447" y="575" on="0"/>
        <pt x="452" y="579" on="1"/>
        <pt x="455" y="582" on="0"/>
        <pt x="463" y="587" on="0"/>
        <pt x="466" y="589" on="1"/>
        <pt x="468" y="591" on="0"/>
        <pt x="472" y="595" on="0"/>
        <pt x="474" y="597" on="1"/>
        <pt x="478" y="599" on="0"/>
        <pt x="486" y="599" on="0"/>
        <pt x="490" y="601" on="1"/>
        <pt x="504" y="603" on="0"/>
        <pt x="504" y="596" on="0"/>
        <pt x="504" y="592" on="1"/>
        <pt x="499" y="589" on="0"/>
        <pt x="485" y="584" on="0"/>
        <pt x="478" y="582" on="1"/>
        <pt x="476" y="574" on="0"/>
        <pt x="463" y="566" on="0"/>
        <pt x="458" y="559" on="1"/>
        <pt x="454" y="554" on="0"/>
        <pt x="449" y="545" on="0"/>
        <pt x="442" y="543" on="1"/>
        <pt x="437" y="531" on="0"/>
        <pt x="422" y="514" on="0"/>
        <pt x="415" y="505" on="1"/>
        <pt x="415" y="494" on="0"/>
        <pt x="406" y="479" on="0"/>
        <pt x="401" y="471" on="1"/>
        <pt x="399" y="467" on="0"/>
        <pt x="395" y="459" on="0"/>
        <pt x="395" y="457" on="1"/>
        <pt x="396" y="455" on="0"/>
        <pt x="399" y="448" on="0"/>
        <pt x="401" y="445" on="1"/>
        <pt x="403" y="442" on="0"/>
        <pt x="408" y="438" on="0"/>
        <pt x="409" y="435" on="1"/>
        <pt x="433" y="450" on="0"/>
        <pt x="480" y="480" on="0"/>
        <pt x="497" y="501" on="1"/>
        <pt x="502" y="510" on="0"/>
        <pt x="511" y="527" on="0"/>
        <pt x="516" y="537" on="1"/>
        <pt x="518" y="547" on="0"/>
        <pt x="526" y="565" on="0"/>
        <pt x="531" y="574" on="1"/>
        <pt x="536" y="584" on="0"/>
        <pt x="544" y="604" on="0"/>
        <pt x="545" y="615" on="1"/>
        <pt x="546" y="623" on="0"/>
        <pt x="545" y="642" on="0"/>
        <pt x="548" y="647" on="1"/>
        <pt x="546" y="652" on="0"/>
        <pt x="550" y="669" on="0"/>
        <pt x="549" y="677" on="1"/>
        <pt x="542" y="692" on="0"/>
        <pt x="528" y="697" on="0"/>
        <pt x="520" y="699" on="1"/>
        <pt x="512" y="694" on="0"/>
        <pt x="494" y="682" on="0"/>
        <pt x="486" y="675" on="1"/>
        <pt x="480" y="669" on="0"/>
        <pt x="467" y="657" on="0"/>
        <pt x="463" y="649" on="1"/>
        <pt x="450" y="635" on="0"/>
        <pt x="434" y="614" on="0"/>
        <pt x="426" y="603" on="1"/>
        <pt x="409" y="592" on="0"/>
        <pt x="381" y="566" on="0"/>
        <pt x="364" y="555" on="1"/>
        <pt x="351" y="545" on="0"/>
        <pt x="326" y="524" on="0"/>
        <pt x="315" y="513" on="1"/>
        <pt x="305" y="502" on="0"/>
        <pt x="283" y="483" on="0"/>
        <pt x="274" y="472" on="1"/>
        <pt x="266" y="461" on="0"/>
        <pt x="248" y="438" on="0"/>
        <pt x="239" y="427" on="1"/>
        <pt x="234" y="422" on="0"/>
        <pt x="226" y="410" on="0"/>
        <pt x="221" y="404" on="1"/>
        <pt x="216" y="399" on="0"/>
        <pt x="207" y="387" on="0"/>
        <pt x="203" y="382" on="1"/>
        <pt x="200" y="377" on="0"/>
        <pt x="196" y="366" on="0"/>
        <pt x="193" y="361" on="1"/>
        <pt x="183" y="349" on="0"/>
        <pt x="164" y="324" on="0"/>
        <pt x="157" y="308" on="1"/>
        <pt x="145" y="292" on="0"/>
        <pt x="132" y="261" on="0"/>
        <pt x="124" y="246" on="1"/>
        <pt x="122" y="232" on="0"/>
        <pt x="111" y="210" on="0"/>
        <pt x="109" y="196" on="1"/>
        <pt x="108" y="189" on="0"/>
        <pt x="103" y="176" on="0"/>
        <pt x="102" y="168" on="1"/>
        <pt x="100" y="161" on="0"/>
        <pt x="100" y="146" on="0"/>
        <pt x="98" y="140" on="1"/>
        <pt x="92" y="127" on="0"/>
        <pt x="92" y="116" on="0"/>
        <pt x="87" y="113" on="1"/>
        <pt x="90" y="105" on="0"/>
        <pt x="95" y="93" on="0"/>
        <pt x="100" y="87" on="1"/>
        <pt x="102" y="83" on="0"/>
        <pt x="110" y="77" on="0"/>
        <pt x="112" y="73" on="1"/>
        <pt x="116" y="63" on="0"/>
        <pt x="121" y="59" on="0"/>
        <pt x="125" y="56" on="1"/>
        <pt x="128" y="54" on="0"/>
        <pt x="137" y="48" on="0"/>
        <pt x="141" y="47" on="1"/>
        <pt x="146" y="45" on="0"/>
        <pt x="157" y="46" on="0"/>
        <pt x="162" y="45" on="1"/>
        <pt x="167" y="45" on="0"/>
        <pt x="175" y="44" on="0"/>
        <pt x="180" y="45" on="1"/>
        <pt x="188" y="47" on="0"/>
        <pt x="210" y="52" on="0"/>
        <pt x="219" y="54" on="1"/>
        <pt x="233" y="58" on="0"/>
        <pt x="260" y="66" on="0"/>
        <pt x="272" y="71" on="1"/>
        <pt x="285" y="76" on="0"/>
        <pt x="301" y="94" on="0"/>
        <pt x="311" y="99" on="1"/>
        <pt x="327" y="111" on="0"/>
        <pt x="340" y="126" on="0"/>
        <pt x="348" y="131" on="1"/>
        <pt x="355" y="140" on="0"/>
        <pt x="357" y="140" on="0"/>
        <pt x="358" y="141" on="1"/>
        <pt x="365" y="149" on="0"/>
        <pt x="378" y="162" on="0"/>
        <pt x="385" y="170" on="1"/>
        <pt x="396" y="175" on="0"/>
        <pt x="403" y="183" on="1"/>
        <pt x="411" y="186" on="0"/>
        <pt x="422" y="196" on="0"/>
        <pt x="428" y="201" on="1"/>
        <pt x="436" y="207" on="0"/>
        <pt x="439" y="210" on="1"/>
        <pt x="443" y="214" on="0"/>
        <pt x="450" y="222" on="0"/>
        <pt x="454" y="227" on="1"/>
        <pt x="456" y="229" on="0"/>
        <pt x="464" y="234" on="0"/>
        <pt x="468" y="239" on="1"/>
        <pt x="470" y="242" on="0"/>
        <pt x="474" y="252" on="0"/>
        <pt x="479" y="252" on="1"/>
        <pt x="485" y="253" on="0"/>
        <pt x="499" y="240" on="0"/>
        <pt x="499" y="233" on="1"/>
        <pt x="490" y="219" on="0"/>
        <pt x="489" y="216" on="1"/>
        <pt x="482" y="206" on="0"/>
        <pt x="466" y="188" on="0"/>
        <pt x="458" y="177" on="1"/>
        <pt x="450" y="168" on="0"/>
        <pt x="434" y="149" on="0"/>
        <pt x="427" y="138" on="1"/>
        <pt x="420" y="127" on="0"/>
        <pt x="403" y="110" on="0"/>
        <pt x="394" y="100" on="1"/>
        <pt x="381" y="86" on="0"/>
        <pt x="356" y="62" on="0"/>
        <pt x="345" y="45" on="1"/>
        <pt x="340" y="40" on="0"/>
        <pt x="330" y="31" on="0"/>
        <pt x="325" y="26" on="1"/>
        <pt x="320" y="23" on="0"/>
        <pt x="311" y="16" on="0"/>
        <pt x="306" y="13" on="1"/>
        <pt x="286" y="6" on="0"/>
        <pt x="245" y="-17" on="0"/>
        <pt x="220" y="-24" on="1"/>
        <pt x="209" y="-27" on="0"/>
        <pt x="186" y="-35" on="0"/>
        <pt x="172" y="-34" on="1"/>
        <pt x="170" y="-33" on="0"/>
        <pt x="164" y="-33" on="0"/>
        <pt x="161" y="-32" on="1"/>
        <pt x="155" y="-31" on="0"/>
        <pt x="142" y="-25" on="0"/>
        <pt x="134" y="-24" on="1"/>
        <pt x="129" y="-24" on="0"/>
        <pt x="121" y="-27" on="0"/>
        <pt x="116" y="-27" on="1"/>
        <pt x="94" y="-13" on="0"/>
        <pt x="67" y="6" on="0"/>
        <pt x="56" y="19" on="1"/>
        <pt x="48" y="32" on="0"/>
        <pt x="42" y="39" on="0"/>
        <pt x="38" y="44" on="1"/>
        <pt x="34" y="50" on="0"/>
        <pt x="26" y="63" on="0"/>
        <pt x="22" y="71" on="1"/>
        <pt x="22" y="75" on="0"/>
        <pt x="17" y="81" on="0"/>
        <pt x="15" y="85" on="1"/>
        <pt x="10" y="102" on="0"/>
        <pt x="10" y="139" on="0"/>
        <pt x="11" y="157" on="1"/>
        <pt x="12" y="162" on="0"/>
        <pt x="10" y="171" on="0"/>
        <pt x="10" y="176" on="1"/>
        <pt x="10" y="184" on="0"/>
        <pt x="16" y="202" on="0"/>
        <pt x="18" y="210" on="1"/>
        <pt x="24" y="232" on="0"/>
        <pt x="39" y="271" on="0"/>
        <pt x="49" y="288" on="1"/>
        <pt x="58" y="300" on="0"/>
        <pt x="67" y="322" on="0"/>
        <pt x="72" y="334" on="1"/>
        <pt x="77" y="345" on="0"/>
        <pt x="87" y="366" on="0"/>
        <pt x="93" y="377" on="1"/>
        <pt x="98" y="387" on="0"/>
        <pt x="109" y="407" on="0"/>
        <pt x="118" y="415" on="1"/>
        <pt x="121" y="426" on="0"/>
        <pt x="133" y="441" on="0"/>
        <pt x="139" y="449" on="1"/>
        <pt x="149" y="463" on="0"/>
        <pt x="170" y="487" on="0"/>
        <pt x="178" y="502" on="1"/>
        <pt x="186" y="508" on="0"/>
        <pt x="199" y="522" on="0"/>
        <pt x="205" y="529" on="1"/>
        <pt x="212" y="537" on="0"/>
        <pt x="225" y="550" on="0"/>
        <pt x="232" y="558" on="1"/>
        <pt x="236" y="561" on="0"/>
        <pt x="243" y="568" on="0"/>
        <pt x="246" y="571" on="1"/>
        <pt x="253" y="579" on="0"/>
        <pt x="267" y="591" on="0"/>
        <pt x="275" y="597" on="1"/>
        <pt x="284" y="601" on="0"/>
        <pt x="292" y="608" on="1"/>
        <pt x="301" y="617" on="0"/>
        <pt x="318" y="636" on="0"/>
        <pt x="327" y="644" on="1"/>
        <pt x="341" y="658" on="0"/>
        <pt x="371" y="685" on="0"/>
        <pt x="388" y="696" on="1"/>
        <pt x="398" y="707" on="0"/>
        <pt x="426" y="722" on="0"/>
        <pt x="440" y="729" on="1"/>
        <pt x="448" y="732" on="0"/>
        <pt x="459" y="737" on="0"/>
        <pt x="466" y="741" on="1"/>
        <pt x="477" y="748" on="0"/>
        <pt x="487" y="749" on="0"/>
        <pt x="490" y="753" on="1"/>
        <pt x="502" y="753" on="0"/>
        <pt x="520" y="760" on="0"/>
        <pt x="531" y="757" on="1"/>
        <pt x="535" y="756" on="0"/>
        <pt x="541" y="753" on="0"/>
        <pt x="544" y="752" on="1"/>
        <pt x="563" y="750" on="0"/>
        <pt x="571" y="746" on="1"/>
        <pt x="579" y="742" on="0"/>
        <pt x="594" y="735" on="0"/>
      </contour>
    </TTGlyph>
    <TTGlyph name="Ccedilla" xMin="10" yMin="-217" xMax="621" yMax="760">
      <contour>
        <pt x="135" y="-72" on="1"/>
        <pt x="139" y="-74" on="0"/>
        <pt x="157" y="-74" on="0"/>
        <pt x="178" y="-74" on="0"/>
        <pt x="199" y="-76" on="0"/>
        <pt x="206" y="-79" on="1"/>
        <pt x="211" y="-89" on="0"/>
        <pt x="221" y="-93" on="1"/>
        <pt x="223" y="-96" on="0"/>
        <pt x="222" y="-103" on="0"/>
        <pt x="225" y="-105" on="1"/>
        <pt x="227" y="-116" on="0"/>
        <pt x="227" y="-151" on="0"/>
        <pt x="219" y="-159" on="1"/>
        <pt x="217" y="-169" on="0"/>
        <pt x="209" y="-175" on="0"/>
        <pt x="209" y="-183" on="1"/>
        <pt x="198" y="-193" on="0"/>
        <pt x="175" y="-206" on="0"/>
        <pt x="160" y="-213" on="1"/>
        <pt x="150" y="-212" on="0"/>
        <pt x="132" y="-214" on="0"/>
        <pt x="116" y="-217" on="0"/>
        <pt x="101" y="-217" on="0"/>
        <pt x="94" y="-212" on="1"/>
        <pt x="57" y="-206" on="0"/>
        <pt x="14" y="-169" on="0"/>
        <pt x="16" y="-143" on="1"/>
        <pt x="18" y="-141" on="0"/>
        <pt x="24" y="-140" on="0"/>
        <pt x="26" y="-138" on="1"/>
        <pt x="36" y="-143" on="0"/>
        <pt x="47" y="-151" on="0"/>
        <pt x="53" y="-160" on="1"/>
        <pt x="64" y="-161" on="0"/>
        <pt x="76" y="-168" on="0"/>
        <pt x="82" y="-172" on="1"/>
        <pt x="99" y="-170" on="0"/>
        <pt x="136" y="-169" on="0"/>
        <pt x="151" y="-160" on="1"/>
        <pt x="164" y="-152" on="0"/>
        <pt x="178" y="-131" on="0"/>
        <pt x="176" y="-119" on="1"/>
        <pt x="171" y="-117" on="0"/>
        <pt x="160" y="-109" on="0"/>
        <pt x="152" y="-109" on="1"/>
        <pt x="144" y="-109" on="0"/>
        <pt x="128" y="-117" on="0"/>
        <pt x="119" y="-115" on="1"/>
        <pt x="106" y="-110" on="0"/>
        <pt x="101" y="-112" on="0"/>
        <pt x="99" y="-112" on="1"/>
        <pt x="91" y="-112" on="0"/>
        <pt x="79" y="-104" on="0"/>
        <pt x="73" y="-99" on="1"/>
        <pt x="73" y="-90" on="0"/>
        <pt x="70" y="-87" on="1"/>
        <pt x="75" y="-76" on="0"/>
        <pt x="82" y="-65" on="0"/>
        <pt x="88" y="-52" on="1"/>
        <pt x="93" y="-41" on="0"/>
        <pt x="98" y="-27" on="0"/>
        <pt x="103" y="-22" on="1"/>
        <pt x="92" y="-11" on="0"/>
        <pt x="67" y="7" on="0"/>
        <pt x="56" y="19" on="1"/>
        <pt x="48" y="32" on="0"/>
        <pt x="42" y="39" on="0"/>
        <pt x="38" y="44" on="1"/>
        <pt x="34" y="50" on="0"/>
        <pt x="26" y="63" on="0"/>
        <pt x="22" y="71" on="1"/>
        <pt x="22" y="75" on="0"/>
        <pt x="17" y="81" on="0"/>
        <pt x="15" y="86" on="1"/>
        <pt x="10" y="103" on="0"/>
        <pt x="10" y="139" on="0"/>
        <pt x="11" y="157" on="1"/>
        <pt x="12" y="162" on="0"/>
        <pt x="10" y="171" on="0"/>
        <pt x="10" y="176" on="1"/>
        <pt x="10" y="184" on="0"/>
        <pt x="16" y="202" on="0"/>
        <pt x="18" y="210" on="1"/>
        <pt x="24" y="232" on="0"/>
        <pt x="39" y="271" on="0"/>
        <pt x="49" y="288" on="1"/>
        <pt x="58" y="300" on="0"/>
        <pt x="67" y="322" on="0"/>
        <pt x="72" y="334" on="1"/>
        <pt x="77" y="345" on="0"/>
        <pt x="87" y="366" on="0"/>
        <pt x="93" y="377" on="1"/>
        <pt x="98" y="387" on="0"/>
        <pt x="109" y="407" on="0"/>
        <pt x="118" y="415" on="1"/>
        <pt x="121" y="426" on="0"/>
        <pt x="134" y="440" on="0"/>
        <pt x="139" y="449" on="1"/>
        <pt x="149" y="463" on="0"/>
        <pt x="170" y="487" on="0"/>
        <pt x="178" y="502" on="1"/>
        <pt x="186" y="508" on="0"/>
        <pt x="199" y="522" on="0"/>
        <pt x="205" y="530" on="1"/>
        <pt x="212" y="538" on="0"/>
        <pt x="226" y="550" on="0"/>
        <pt x="232" y="558" on="1"/>
        <pt x="236" y="561" on="0"/>
        <pt x="243" y="568" on="0"/>
        <pt x="247" y="571" on="1"/>
        <pt x="253" y="579" on="0"/>
        <pt x="267" y="591" on="0"/>
        <pt x="275" y="597" on="1"/>
        <pt x="284" y="601" on="0"/>
        <pt x="292" y="608" on="1"/>
        <pt x="301" y="617" on="0"/>
        <pt x="318" y="636" on="0"/>
        <pt x="327" y="644" on="1"/>
        <pt x="341" y="658" on="0"/>
        <pt x="371" y="685" on="0"/>
        <pt x="388" y="696" on="1"/>
        <pt x="398" y="707" on="0"/>
        <pt x="426" y="722" on="0"/>
        <pt x="440" y="729" on="1"/>
        <pt x="448" y="732" on="0"/>
        <pt x="459" y="737" on="0"/>
        <pt x="467" y="741" on="1"/>
        <pt x="477" y="748" on="0"/>
        <pt x="487" y="749" on="0"/>
        <pt x="490" y="753" on="1"/>
        <pt x="502" y="753" on="0"/>
        <pt x="520" y="760" on="0"/>
        <pt x="531" y="757" on="1"/>
        <pt x="535" y="756" on="0"/>
        <pt x="541" y="753" on="0"/>
        <pt x="544" y="752" on="1"/>
        <pt x="563" y="751" on="0"/>
        <pt x="572" y="746" on="1"/>
        <pt x="580" y="742" on="0"/>
        <pt x="594" y="735" on="0"/>
        <pt x="604" y="734" on="1"/>
        <pt x="605" y="729" on="0"/>
        <pt x="611" y="722" on="0"/>
        <pt x="614" y="720" on="1"/>
        <pt x="615" y="712" on="0"/>
        <pt x="616" y="695" on="0"/>
        <pt x="618" y="687" on="1"/>
        <pt x="618" y="683" on="0"/>
        <pt x="618" y="674" on="0"/>
        <pt x="621" y="671" on="1"/>
        <pt x="618" y="636" on="0"/>
        <pt x="605" y="591" on="0"/>
        <pt x="600" y="564" on="1"/>
        <pt x="599" y="559" on="0"/>
        <pt x="596" y="550" on="0"/>
        <pt x="596" y="545" on="1"/>
        <pt x="595" y="541" on="0"/>
        <pt x="596" y="535" on="0"/>
        <pt x="595" y="531" on="1"/>
        <pt x="593" y="525" on="0"/>
        <pt x="585" y="511" on="0"/>
        <pt x="581" y="504" on="1"/>
        <pt x="565" y="475" on="0"/>
        <pt x="526" y="422" on="0"/>
        <pt x="497" y="408" on="1"/>
        <pt x="486" y="403" on="0"/>
        <pt x="471" y="394" on="0"/>
        <pt x="460" y="392" on="1"/>
        <pt x="453" y="388" on="0"/>
        <pt x="434" y="379" on="0"/>
        <pt x="425" y="377" on="1"/>
        <pt x="421" y="375" on="0"/>
        <pt x="413" y="375" on="0"/>
        <pt x="409" y="374" on="1"/>
        <pt x="404" y="372" on="0"/>
        <pt x="397" y="369" on="0"/>
        <pt x="394" y="368" on="1"/>
        <pt x="386" y="366" on="0"/>
        <pt x="382" y="366" on="1"/>
        <pt x="375" y="368" on="0"/>
        <pt x="369" y="382" on="0"/>
        <pt x="369" y="390" on="1"/>
        <pt x="365" y="394" on="0"/>
        <pt x="355" y="400" on="0"/>
        <pt x="353" y="408" on="1"/>
        <pt x="350" y="419" on="0"/>
        <pt x="348" y="421" on="0"/>
        <pt x="348" y="423" on="1"/>
        <pt x="343" y="437" on="0"/>
        <pt x="345" y="472" on="0"/>
        <pt x="351" y="483" on="1"/>
        <pt x="353" y="488" on="0"/>
        <pt x="361" y="493" on="0"/>
        <pt x="362" y="498" on="1"/>
        <pt x="370" y="503" on="0"/>
        <pt x="382" y="514" on="0"/>
        <pt x="390" y="519" on="1"/>
        <pt x="400" y="536" on="0"/>
        <pt x="426" y="554" on="0"/>
        <pt x="438" y="564" on="1"/>
        <pt x="442" y="567" on="0"/>
        <pt x="447" y="575" on="0"/>
        <pt x="452" y="579" on="1"/>
        <pt x="455" y="582" on="0"/>
        <pt x="463" y="587" on="0"/>
        <pt x="467" y="589" on="1"/>
        <pt x="478" y="599" on="0"/>
        <pt x="486" y="599" on="0"/>
        <pt x="490" y="601" on="1"/>
        <pt x="504" y="603" on="0"/>
        <pt x="504" y="596" on="0"/>
        <pt x="504" y="592" on="1"/>
        <pt x="499" y="589" on="0"/>
        <pt x="485" y="584" on="0"/>
        <pt x="478" y="582" on="1"/>
        <pt x="476" y="574" on="0"/>
        <pt x="463" y="566" on="0"/>
        <pt x="458" y="559" on="1"/>
        <pt x="454" y="554" on="0"/>
        <pt x="449" y="546" on="0"/>
        <pt x="442" y="544" on="1"/>
        <pt x="437" y="531" on="0"/>
        <pt x="422" y="514" on="0"/>
        <pt x="415" y="505" on="1"/>
        <pt x="415" y="494" on="0"/>
        <pt x="406" y="479" on="0"/>
        <pt x="401" y="471" on="1"/>
        <pt x="399" y="467" on="0"/>
        <pt x="395" y="459" on="0"/>
        <pt x="396" y="457" on="1"/>
        <pt x="396" y="455" on="0"/>
        <pt x="399" y="448" on="0"/>
        <pt x="401" y="445" on="1"/>
        <pt x="403" y="442" on="0"/>
        <pt x="408" y="438" on="0"/>
        <pt x="409" y="435" on="1"/>
        <pt x="433" y="450" on="0"/>
        <pt x="480" y="480" on="0"/>
        <pt x="498" y="501" on="1"/>
        <pt x="502" y="510" on="0"/>
        <pt x="511" y="527" on="0"/>
        <pt x="516" y="537" on="1"/>
        <pt x="518" y="547" on="0"/>
        <pt x="526" y="565" on="0"/>
        <pt x="531" y="574" on="1"/>
        <pt x="536" y="584" on="0"/>
        <pt x="544" y="604" on="0"/>
        <pt x="545" y="615" on="1"/>
        <pt x="546" y="623" on="0"/>
        <pt x="545" y="642" on="0"/>
        <pt x="548" y="647" on="1"/>
        <pt x="546" y="652" on="0"/>
        <pt x="550" y="669" on="0"/>
        <pt x="549" y="677" on="1"/>
        <pt x="542" y="692" on="0"/>
        <pt x="528" y="697" on="0"/>
        <pt x="520" y="699" on="1"/>
        <pt x="512" y="694" on="0"/>
        <pt x="494" y="682" on="0"/>
        <pt x="486" y="675" on="1"/>
        <pt x="480" y="669" on="0"/>
        <pt x="467" y="657" on="0"/>
        <pt x="463" y="649" on="1"/>
        <pt x="450" y="635" on="0"/>
        <pt x="434" y="614" on="0"/>
        <pt x="426" y="603" on="1"/>
        <pt x="409" y="592" on="0"/>
        <pt x="381" y="566" on="0"/>
        <pt x="364" y="555" on="1"/>
        <pt x="351" y="545" on="0"/>
        <pt x="326" y="524" on="0"/>
        <pt x="315" y="513" on="1"/>
        <pt x="305" y="502" on="0"/>
        <pt x="283" y="484" on="0"/>
        <pt x="274" y="473" on="1"/>
        <pt x="256" y="447" on="0"/>
        <pt x="239" y="427" on="1"/>
        <pt x="234" y="422" on="0"/>
        <pt x="226" y="410" on="0"/>
        <pt x="221" y="404" on="1"/>
        <pt x="216" y="399" on="0"/>
        <pt x="207" y="387" on="0"/>
        <pt x="203" y="382" on="1"/>
        <pt x="200" y="377" on="0"/>
        <pt x="196" y="366" on="0"/>
        <pt x="193" y="361" on="1"/>
        <pt x="183" y="349" on="0"/>
        <pt x="164" y="324" on="0"/>
        <pt x="157" y="308" on="1"/>
        <pt x="145" y="292" on="0"/>
        <pt x="132" y="261" on="0"/>
        <pt x="124" y="246" on="1"/>
        <pt x="122" y="232" on="0"/>
        <pt x="111" y="210" on="0"/>
        <pt x="109" y="196" on="1"/>
        <pt x="108" y="189" on="0"/>
        <pt x="103" y="176" on="0"/>
        <pt x="102" y="168" on="1"/>
        <pt x="100" y="161" on="0"/>
        <pt x="100" y="146" on="0"/>
        <pt x="98" y="140" on="1"/>
        <pt x="92" y="127" on="0"/>
        <pt x="92" y="116" on="0"/>
        <pt x="87" y="113" on="1"/>
        <pt x="90" y="105" on="0"/>
        <pt x="95" y="93" on="0"/>
        <pt x="100" y="87" on="1"/>
        <pt x="102" y="83" on="0"/>
        <pt x="110" y="77" on="0"/>
        <pt x="112" y="73" on="1"/>
        <pt x="117" y="63" on="0"/>
        <pt x="121" y="59" on="0"/>
        <pt x="125" y="56" on="1"/>
        <pt x="128" y="54" on="0"/>
        <pt x="137" y="48" on="0"/>
        <pt x="141" y="47" on="1"/>
        <pt x="146" y="45" on="0"/>
        <pt x="157" y="46" on="0"/>
        <pt x="162" y="45" on="1"/>
        <pt x="167" y="45" on="0"/>
        <pt x="175" y="44" on="0"/>
        <pt x="180" y="45" on="1"/>
        <pt x="188" y="47" on="0"/>
        <pt x="210" y="52" on="0"/>
        <pt x="219" y="55" on="1"/>
        <pt x="233" y="58" on="0"/>
        <pt x="259" y="66" on="0"/>
        <pt x="272" y="71" on="1"/>
        <pt x="285" y="76" on="0"/>
        <pt x="301" y="94" on="0"/>
        <pt x="311" y="99" on="1"/>
        <pt x="327" y="111" on="0"/>
        <pt x="340" y="126" on="0"/>
        <pt x="348" y="131" on="1"/>
        <pt x="355" y="140" on="0"/>
        <pt x="357" y="140" on="0"/>
        <pt x="358" y="141" on="1"/>
        <pt x="365" y="149" on="0"/>
        <pt x="378" y="162" on="0"/>
        <pt x="385" y="170" on="1"/>
        <pt x="396" y="175" on="0"/>
        <pt x="403" y="183" on="1"/>
        <pt x="411" y="186" on="0"/>
        <pt x="422" y="196" on="0"/>
        <pt x="428" y="201" on="1"/>
        <pt x="440" y="210" on="1"/>
        <pt x="444" y="214" on="0"/>
        <pt x="450" y="222" on="0"/>
        <pt x="454" y="227" on="1"/>
        <pt x="456" y="229" on="0"/>
        <pt x="464" y="234" on="0"/>
        <pt x="468" y="239" on="1"/>
        <pt x="470" y="243" on="0"/>
        <pt x="474" y="252" on="0"/>
        <pt x="479" y="252" on="1"/>
        <pt x="485" y="253" on="0"/>
        <pt x="499" y="240" on="0"/>
        <pt x="499" y="233" on="1"/>
        <pt x="490" y="219" on="0"/>
        <pt x="489" y="216" on="1"/>
        <pt x="483" y="206" on="0"/>
        <pt x="466" y="188" on="0"/>
        <pt x="458" y="178" on="1"/>
        <pt x="450" y="168" on="0"/>
        <pt x="434" y="149" on="0"/>
        <pt x="427" y="138" on="1"/>
        <pt x="420" y="127" on="0"/>
        <pt x="403" y="110" on="0"/>
        <pt x="394" y="100" on="1"/>
        <pt x="381" y="86" on="0"/>
        <pt x="356" y="62" on="0"/>
        <pt x="345" y="45" on="1"/>
        <pt x="340" y="40" on="0"/>
        <pt x="330" y="31" on="0"/>
        <pt x="325" y="26" on="1"/>
        <pt x="320" y="21" on="0"/>
        <pt x="311" y="16" on="0"/>
        <pt x="306" y="13" on="1"/>
        <pt x="286" y="6" on="0"/>
        <pt x="245" y="-17" on="0"/>
        <pt x="220" y="-25" on="1"/>
        <pt x="209" y="-27" on="0"/>
        <pt x="186" y="-35" on="0"/>
        <pt x="172" y="-34" on="1"/>
        <pt x="169" y="-33" on="0"/>
        <pt x="164" y="-33" on="0"/>
        <pt x="161" y="-32" on="1"/>
        <pt x="151" y="-34" on="0"/>
        <pt x="150" y="-36" on="1"/>
        <pt x="146" y="-42" on="0"/>
        <pt x="145" y="-53" on="0"/>
        <pt x="142" y="-58" on="1"/>
        <pt x="137" y="-66" on="0"/>
      </contour>
    </TTGlyph>
    <TTGlyph name="D" xMin="30" yMin="-36" xMax="636" yMax="743">
      <contour>
        <pt x="274" y="584" on="1"/>
        <pt x="247" y="575" on="0"/>
        <pt x="199" y="554" on="0"/>
        <pt x="177" y="540" on="1"/>
        <pt x="170" y="535" on="0"/>
        <pt x="160" y="522" on="0"/>
        <pt x="153" y="517" on="1"/>
        <pt x="133" y="502" on="0"/>
        <pt x="111" y="502" on="1"/>
        <pt x="102" y="507" on="0"/>
        <pt x="100" y="512" on="1"/>
        <pt x="108" y="532" on="0"/>
        <pt x="131" y="559" on="0"/>
        <pt x="143" y="573" on="1"/>
        <pt x="154" y="580" on="0"/>
        <pt x="172" y="594" on="0"/>
        <pt x="181" y="602" on="1"/>
        <pt x="190" y="610" on="0"/>
        <pt x="208" y="626" on="0"/>
        <pt x="218" y="631" on="1"/>
        <pt x="232" y="638" on="0"/>
        <pt x="257" y="651" on="0"/>
        <pt x="269" y="659" on="1"/>
        <pt x="287" y="673" on="0"/>
        <pt x="332" y="695" on="0"/>
        <pt x="353" y="705" on="1"/>
        <pt x="364" y="710" on="0"/>
        <pt x="385" y="718" on="0"/>
        <pt x="396" y="720" on="1"/>
        <pt x="407" y="723" on="0"/>
        <pt x="431" y="727" on="0"/>
        <pt x="442" y="731" on="1"/>
        <pt x="458" y="733" on="0"/>
        <pt x="487" y="743" on="0"/>
        <pt x="504" y="742" on="1"/>
        <pt x="508" y="742" on="0"/>
        <pt x="512" y="740" on="0"/>
        <pt x="516" y="739" on="1"/>
        <pt x="529" y="739" on="0"/>
        <pt x="540" y="735" on="0"/>
        <pt x="545" y="733" on="1"/>
        <pt x="555" y="729" on="0"/>
        <pt x="571" y="720" on="0"/>
        <pt x="580" y="715" on="1"/>
        <pt x="585" y="712" on="0"/>
        <pt x="591" y="706" on="0"/>
        <pt x="595" y="703" on="1"/>
        <pt x="603" y="698" on="0"/>
        <pt x="608" y="693" on="0"/>
        <pt x="611" y="690" on="1"/>
        <pt x="616" y="685" on="0"/>
        <pt x="625" y="680" on="0"/>
        <pt x="624" y="673" on="1"/>
        <pt x="628" y="662" on="0"/>
        <pt x="636" y="641" on="0"/>
        <pt x="636" y="629" on="1"/>
        <pt x="636" y="624" on="0"/>
        <pt x="633" y="614" on="0"/>
        <pt x="631" y="609" on="1"/>
        <pt x="629" y="602" on="0"/>
        <pt x="628" y="590" on="0"/>
        <pt x="625" y="585" on="1"/>
        <pt x="623" y="571" on="0"/>
        <pt x="618" y="544" on="0"/>
        <pt x="616" y="529" on="1"/>
        <pt x="615" y="524" on="0"/>
        <pt x="615" y="512" on="0"/>
        <pt x="614" y="507" on="1"/>
        <pt x="612" y="494" on="0"/>
        <pt x="602" y="471" on="0"/>
        <pt x="602" y="460" on="1"/>
        <pt x="596" y="439" on="0"/>
        <pt x="582" y="414" on="0"/>
        <pt x="574" y="401" on="1"/>
        <pt x="564" y="387" on="0"/>
        <pt x="550" y="352" on="0"/>
        <pt x="542" y="335" on="1"/>
        <pt x="540" y="332" on="0"/>
        <pt x="539" y="324" on="0"/>
        <pt x="537" y="321" on="1"/>
        <pt x="528" y="310" on="0"/>
        <pt x="526" y="302" on="0"/>
        <pt x="524" y="297" on="1"/>
        <pt x="521" y="290" on="0"/>
        <pt x="514" y="273" on="0"/>
        <pt x="511" y="265" on="1"/>
        <pt x="509" y="262" on="0"/>
        <pt x="505" y="254" on="1"/>
        <pt x="502" y="248" on="0"/>
        <pt x="493" y="236" on="0"/>
        <pt x="488" y="229" on="1"/>
        <pt x="472" y="204" on="0"/>
        <pt x="438" y="160" on="0"/>
        <pt x="418" y="139" on="1"/>
        <pt x="393" y="114" on="0"/>
        <pt x="338" y="72" on="0"/>
        <pt x="311" y="49" on="1"/>
        <pt x="301" y="41" on="0"/>
        <pt x="281" y="24" on="0"/>
        <pt x="269" y="16" on="1"/>
        <pt x="264" y="12" on="0"/>
        <pt x="253" y="6" on="0"/>
        <pt x="248" y="1" on="1"/>
        <pt x="232" y="-14" on="0"/>
        <pt x="208" y="-25" on="1"/>
        <pt x="196" y="-28" on="0"/>
        <pt x="190" y="-31" on="0"/>
        <pt x="188" y="-31" on="1"/>
        <pt x="182" y="-33" on="0"/>
        <pt x="170" y="-33" on="0"/>
        <pt x="164" y="-34" on="1"/>
        <pt x="161" y="-34" on="0"/>
        <pt x="155" y="-36" on="0"/>
        <pt x="151" y="-36" on="1"/>
        <pt x="143" y="-35" on="0"/>
        <pt x="126" y="-29" on="0"/>
        <pt x="118" y="-27" on="1"/>
        <pt x="114" y="-26" on="0"/>
        <pt x="108" y="-24" on="0"/>
        <pt x="104" y="-23" on="1"/>
        <pt x="97" y="-19" on="0"/>
        <pt x="85" y="-13" on="0"/>
        <pt x="79" y="-9" on="1"/>
        <pt x="64" y="-5" on="0"/>
        <pt x="58" y="9" on="0"/>
        <pt x="53" y="15" on="1"/>
        <pt x="47" y="34" on="0"/>
        <pt x="40" y="64" on="0"/>
        <pt x="35" y="83" on="1"/>
        <pt x="33" y="90" on="0"/>
        <pt x="30" y="101" on="0"/>
        <pt x="31" y="108" on="1"/>
        <pt x="32" y="113" on="0"/>
        <pt x="38" y="125" on="0"/>
        <pt x="41" y="131" on="1"/>
        <pt x="49" y="145" on="0"/>
        <pt x="58" y="174" on="0"/>
        <pt x="66" y="188" on="1"/>
        <pt x="68" y="190" on="0"/>
        <pt x="71" y="196" on="0"/>
        <pt x="73" y="198" on="1"/>
        <pt x="76" y="204" on="0"/>
        <pt x="81" y="216" on="0"/>
        <pt x="83" y="221" on="1"/>
        <pt x="91" y="238" on="0"/>
        <pt x="108" y="271" on="0"/>
        <pt x="118" y="287" on="1"/>
        <pt x="129" y="306" on="0"/>
        <pt x="144" y="331" on="0"/>
        <pt x="155" y="342" on="1"/>
        <pt x="161" y="359" on="0"/>
        <pt x="179" y="386" on="0"/>
        <pt x="185" y="403" on="1"/>
        <pt x="191" y="411" on="0"/>
        <pt x="200" y="433" on="0"/>
        <pt x="205" y="443" on="1"/>
        <pt x="213" y="463" on="0"/>
        <pt x="221" y="477" on="1"/>
        <pt x="223" y="480" on="0"/>
        <pt x="227" y="486" on="0"/>
        <pt x="228" y="490" on="1"/>
        <pt x="231" y="499" on="0"/>
        <pt x="239" y="517" on="0"/>
        <pt x="243" y="525" on="1"/>
        <pt x="251" y="542" on="0"/>
        <pt x="266" y="569" on="0"/>
      </contour>
      <contour>
        <pt x="494" y="666" on="1"/>
        <pt x="480" y="665" on="0"/>
        <pt x="455" y="656" on="0"/>
        <pt x="442" y="651" on="1"/>
        <pt x="433" y="648" on="0"/>
        <pt x="417" y="640" on="0"/>
        <pt x="409" y="636" on="1"/>
        <pt x="400" y="631" on="0"/>
        <pt x="385" y="621" on="0"/>
        <pt x="377" y="615" on="1"/>
        <pt x="376" y="612" on="0"/>
        <pt x="373" y="607" on="0"/>
        <pt x="372" y="604" on="1"/>
        <pt x="361" y="593" on="0"/>
        <pt x="350" y="566" on="0"/>
        <pt x="343" y="554" on="1"/>
        <pt x="335" y="541" on="0"/>
        <pt x="322" y="516" on="0"/>
        <pt x="315" y="503" on="1"/>
        <pt x="310" y="492" on="0"/>
        <pt x="299" y="475" on="0"/>
        <pt x="295" y="465" on="1"/>
        <pt x="282" y="444" on="0"/>
        <pt x="278" y="432" on="1"/>
        <pt x="275" y="425" on="0"/>
        <pt x="266" y="412" on="0"/>
        <pt x="264" y="404" on="1"/>
        <pt x="261" y="397" on="0"/>
        <pt x="254" y="384" on="0"/>
        <pt x="252" y="377" on="1"/>
        <pt x="250" y="372" on="0"/>
        <pt x="249" y="360" on="0"/>
        <pt x="247" y="355" on="1"/>
        <pt x="244" y="346" on="0"/>
        <pt x="237" y="328" on="0"/>
        <pt x="234" y="317" on="1"/>
        <pt x="229" y="309" on="0"/>
        <pt x="218" y="297" on="0"/>
        <pt x="214" y="290" on="1"/>
        <pt x="210" y="279" on="0"/>
        <pt x="203" y="270" on="0"/>
        <pt x="201" y="265" on="1"/>
        <pt x="196" y="257" on="0"/>
        <pt x="188" y="239" on="0"/>
        <pt x="183" y="230" on="1"/>
        <pt x="181" y="227" on="0"/>
        <pt x="176" y="221" on="0"/>
        <pt x="174" y="217" on="1"/>
        <pt x="171" y="211" on="0"/>
        <pt x="167" y="198" on="0"/>
        <pt x="164" y="190" on="1"/>
        <pt x="161" y="183" on="0"/>
        <pt x="154" y="171" on="0"/>
        <pt x="152" y="165" on="1"/>
        <pt x="148" y="158" on="0"/>
        <pt x="142" y="144" on="0"/>
        <pt x="140" y="138" on="1"/>
        <pt x="137" y="131" on="0"/>
        <pt x="133" y="117" on="0"/>
        <pt x="130" y="110" on="1"/>
        <pt x="124" y="98" on="0"/>
        <pt x="120" y="85" on="0"/>
        <pt x="118" y="79" on="1"/>
        <pt x="116" y="73" on="0"/>
        <pt x="111" y="60" on="0"/>
        <pt x="111" y="54" on="1"/>
        <pt x="107" y="51" on="0"/>
        <pt x="105" y="43" on="0"/>
        <pt x="105" y="34" on="0"/>
        <pt x="105" y="25" on="0"/>
        <pt x="102" y="22" on="1"/>
        <pt x="118" y="24" on="0"/>
        <pt x="137" y="36" on="0"/>
        <pt x="151" y="38" on="1"/>
        <pt x="161" y="43" on="0"/>
        <pt x="176" y="58" on="0"/>
        <pt x="190" y="59" on="1"/>
        <pt x="206" y="69" on="0"/>
        <pt x="231" y="92" on="0"/>
        <pt x="250" y="99" on="1"/>
        <pt x="265" y="112" on="0"/>
        <pt x="297" y="135" on="0"/>
        <pt x="309" y="152" on="1"/>
        <pt x="314" y="154" on="0"/>
        <pt x="323" y="161" on="1"/>
        <pt x="329" y="168" on="0"/>
        <pt x="340" y="182" on="0"/>
        <pt x="345" y="190" on="1"/>
        <pt x="355" y="198" on="0"/>
        <pt x="369" y="218" on="0"/>
        <pt x="380" y="225" on="1"/>
        <pt x="384" y="235" on="0"/>
        <pt x="398" y="248" on="0"/>
        <pt x="404" y="256" on="1"/>
        <pt x="412" y="266" on="0"/>
        <pt x="425" y="288" on="0"/>
        <pt x="433" y="297" on="1"/>
        <pt x="447" y="323" on="0"/>
        <pt x="478" y="371" on="0"/>
        <pt x="489" y="400" on="1"/>
        <pt x="499" y="413" on="0"/>
        <pt x="514" y="442" on="0"/>
        <pt x="519" y="456" on="1"/>
        <pt x="526" y="463" on="0"/>
        <pt x="531" y="486" on="0"/>
        <pt x="541" y="488" on="1"/>
        <pt x="549" y="500" on="0"/>
        <pt x="550" y="532" on="0"/>
        <pt x="552" y="547" on="1"/>
        <pt x="553" y="552" on="0"/>
        <pt x="551" y="560" on="0"/>
        <pt x="551" y="564" on="1"/>
        <pt x="552" y="572" on="0"/>
        <pt x="555" y="589" on="0"/>
        <pt x="553" y="595" on="1"/>
        <pt x="548" y="603" on="0"/>
        <pt x="547" y="608" on="0"/>
        <pt x="546" y="610" on="1"/>
        <pt x="544" y="616" on="0"/>
        <pt x="544" y="621" on="1"/>
        <pt x="542" y="629" on="0"/>
        <pt x="541" y="636" on="0"/>
        <pt x="538" y="641" on="1"/>
        <pt x="533" y="648" on="0"/>
        <pt x="528" y="660" on="0"/>
        <pt x="523" y="665" on="1"/>
        <pt x="515" y="666" on="0"/>
        <pt x="502" y="666" on="0"/>
      </contour>
    </TTGlyph>
    <TTGlyph name="E" xMin="-44" yMin="-46" xMax="544" yMax="740">
      <contour>
        <pt x="502" y="715" on="1"/>
        <pt x="509" y="706" on="0"/>
        <pt x="528" y="696" on="0"/>
        <pt x="536" y="688" on="1"/>
        <pt x="542" y="681" on="0"/>
        <pt x="544" y="679" on="1"/>
        <pt x="544" y="668" on="0"/>
        <pt x="535" y="648" on="0"/>
        <pt x="534" y="636" on="1"/>
        <pt x="532" y="610" on="0"/>
        <pt x="520" y="581" on="0"/>
        <pt x="521" y="569" on="1"/>
        <pt x="521" y="560" on="0"/>
        <pt x="531" y="540" on="0"/>
        <pt x="523" y="532" on="1"/>
        <pt x="518" y="527" on="0"/>
        <pt x="507" y="524" on="0"/>
        <pt x="499" y="522" on="1"/>
        <pt x="491" y="520" on="0"/>
        <pt x="476" y="515" on="0"/>
        <pt x="468" y="515" on="1"/>
        <pt x="463" y="516" on="0"/>
        <pt x="452" y="518" on="0"/>
        <pt x="446" y="519" on="1"/>
        <pt x="443" y="522" on="0"/>
        <pt x="440" y="527" on="0"/>
        <pt x="438" y="532" on="1"/>
        <pt x="440" y="537" on="0"/>
        <pt x="439" y="546" on="0"/>
        <pt x="440" y="551" on="1"/>
        <pt x="441" y="565" on="0"/>
        <pt x="454" y="588" on="0"/>
        <pt x="457" y="600" on="1"/>
        <pt x="457" y="609" on="0"/>
        <pt x="460" y="615" on="1"/>
        <pt x="460" y="623" on="0"/>
        <pt x="466" y="635" on="0"/>
        <pt x="465" y="641" on="1"/>
        <pt x="469" y="646" on="0"/>
        <pt x="471" y="659" on="0"/>
        <pt x="473" y="667" on="1"/>
        <pt x="464" y="671" on="0"/>
        <pt x="442" y="672" on="0"/>
        <pt x="434" y="667" on="1"/>
        <pt x="396" y="666" on="0"/>
        <pt x="348" y="627" on="0"/>
        <pt x="333" y="601" on="1"/>
        <pt x="325" y="592" on="0"/>
        <pt x="310" y="569" on="0"/>
        <pt x="302" y="558" on="1"/>
        <pt x="292" y="543" on="0"/>
        <pt x="280" y="527" on="0"/>
        <pt x="275" y="519" on="1"/>
        <pt x="271" y="513" on="0"/>
        <pt x="265" y="500" on="0"/>
        <pt x="261" y="493" on="1"/>
        <pt x="258" y="486" on="0"/>
        <pt x="250" y="473" on="0"/>
        <pt x="247" y="465" on="1"/>
        <pt x="246" y="462" on="0"/>
        <pt x="244" y="456" on="0"/>
        <pt x="243" y="454" on="1"/>
        <pt x="242" y="451" on="0"/>
        <pt x="244" y="444" on="0"/>
        <pt x="245" y="442" on="1"/>
        <pt x="246" y="437" on="0"/>
        <pt x="246" y="429" on="0"/>
        <pt x="248" y="424" on="1"/>
        <pt x="254" y="414" on="0"/>
        <pt x="258" y="403" on="0"/>
        <pt x="261" y="398" on="1"/>
        <pt x="264" y="393" on="0"/>
        <pt x="271" y="386" on="0"/>
        <pt x="274" y="382" on="1"/>
        <pt x="285" y="380" on="0"/>
        <pt x="304" y="376" on="0"/>
        <pt x="313" y="375" on="1"/>
        <pt x="324" y="374" on="0"/>
        <pt x="345" y="380" on="0"/>
        <pt x="355" y="378" on="1"/>
        <pt x="364" y="384" on="0"/>
        <pt x="380" y="370" on="0"/>
        <pt x="382" y="364" on="1"/>
        <pt x="383" y="357" on="0"/>
        <pt x="380" y="339" on="0"/>
        <pt x="377" y="334" on="1"/>
        <pt x="373" y="327" on="0"/>
        <pt x="360" y="318" on="0"/>
        <pt x="355" y="315" on="1"/>
        <pt x="344" y="314" on="0"/>
        <pt x="326" y="309" on="0"/>
        <pt x="316" y="310" on="1"/>
        <pt x="292" y="304" on="0"/>
        <pt x="239" y="292" on="0"/>
        <pt x="213" y="284" on="1"/>
        <pt x="203" y="282" on="0"/>
        <pt x="199" y="278" on="0"/>
        <pt x="194" y="278" on="1"/>
        <pt x="180" y="273" on="0"/>
        <pt x="156" y="261" on="0"/>
        <pt x="145" y="253" on="1"/>
        <pt x="136" y="245" on="0"/>
        <pt x="126" y="239" on="0"/>
        <pt x="124" y="232" on="1"/>
        <pt x="111" y="217" on="0"/>
        <pt x="95" y="204" on="1"/>
        <pt x="68" y="170" on="1"/>
        <pt x="63" y="165" on="0"/>
        <pt x="62" y="161" on="0"/>
        <pt x="61" y="156" on="1"/>
        <pt x="61" y="146" on="0"/>
        <pt x="56" y="124" on="0"/>
        <pt x="55" y="115" on="1"/>
        <pt x="54" y="103" on="0"/>
        <pt x="56" y="83" on="0"/>
        <pt x="61" y="75" on="1"/>
        <pt x="63" y="73" on="0"/>
        <pt x="68" y="66" on="0"/>
        <pt x="70" y="61" on="1"/>
        <pt x="74" y="54" on="0"/>
        <pt x="80" y="45" on="0"/>
        <pt x="88" y="40" on="1"/>
        <pt x="91" y="38" on="0"/>
        <pt x="99" y="34" on="0"/>
        <pt x="101" y="34" on="1"/>
        <pt x="103" y="34" on="0"/>
        <pt x="110" y="37" on="0"/>
        <pt x="113" y="38" on="1"/>
        <pt x="116" y="39" on="0"/>
        <pt x="122" y="39" on="0"/>
        <pt x="124" y="41" on="1"/>
        <pt x="141" y="46" on="0"/>
        <pt x="166" y="64" on="0"/>
        <pt x="182" y="71" on="1"/>
        <pt x="186" y="73" on="0"/>
        <pt x="195" y="78" on="0"/>
        <pt x="200" y="80" on="1"/>
        <pt x="212" y="89" on="0"/>
        <pt x="237" y="107" on="0"/>
        <pt x="253" y="115" on="1"/>
        <pt x="264" y="120" on="0"/>
        <pt x="284" y="134" on="0"/>
        <pt x="292" y="141" on="1"/>
        <pt x="297" y="150" on="0"/>
        <pt x="308" y="162" on="0"/>
        <pt x="311" y="171" on="1"/>
        <pt x="315" y="172" on="0"/>
        <pt x="318" y="179" on="0"/>
        <pt x="321" y="182" on="1"/>
        <pt x="319" y="186" on="0"/>
        <pt x="317" y="195" on="0"/>
        <pt x="314" y="197" on="1"/>
        <pt x="305" y="196" on="0"/>
        <pt x="287" y="202" on="0"/>
        <pt x="276" y="200" on="1"/>
        <pt x="274" y="200" on="0"/>
        <pt x="268" y="198" on="0"/>
        <pt x="265" y="197" on="1"/>
        <pt x="249" y="194" on="0"/>
        <pt x="220" y="180" on="0"/>
        <pt x="211" y="170" on="1"/>
        <pt x="210" y="165" on="0"/>
        <pt x="205" y="161" on="0"/>
        <pt x="203" y="158" on="1"/>
        <pt x="198" y="148" on="0"/>
        <pt x="191" y="127" on="0"/>
        <pt x="184" y="118" on="1"/>
        <pt x="181" y="118" on="0"/>
        <pt x="175" y="124" on="0"/>
        <pt x="174" y="127" on="1"/>
        <pt x="174" y="129" on="0"/>
        <pt x="176" y="138" on="0"/>
        <pt x="176" y="141" on="1"/>
        <pt x="177" y="144" on="0"/>
        <pt x="175" y="149" on="0"/>
        <pt x="176" y="154" on="1"/>
        <pt x="177" y="160" on="0"/>
        <pt x="179" y="176" on="0"/>
        <pt x="181" y="181" on="1"/>
        <pt x="185" y="195" on="0"/>
        <pt x="193" y="206" on="0"/>
        <pt x="199" y="208" on="1"/>
        <pt x="201" y="211" on="0"/>
        <pt x="208" y="216" on="0"/>
        <pt x="213" y="219" on="1"/>
        <pt x="221" y="224" on="0"/>
        <pt x="225" y="229" on="0"/>
        <pt x="228" y="231" on="1"/>
        <pt x="233" y="233" on="0"/>
        <pt x="246" y="238" on="0"/>
        <pt x="251" y="239" on="1"/>
        <pt x="258" y="240" on="0"/>
        <pt x="273" y="245" on="0"/>
        <pt x="282" y="245" on="1"/>
        <pt x="292" y="243" on="0"/>
        <pt x="296" y="242" on="1"/>
        <pt x="300" y="242" on="0"/>
        <pt x="307" y="244" on="0"/>
        <pt x="311" y="243" on="1"/>
        <pt x="314" y="243" on="0"/>
        <pt x="319" y="242" on="0"/>
        <pt x="322" y="242" on="1"/>
        <pt x="328" y="243" on="0"/>
        <pt x="339" y="245" on="0"/>
        <pt x="343" y="240" on="1"/>
        <pt x="352" y="238" on="0"/>
        <pt x="365" y="227" on="0"/>
        <pt x="370" y="221" on="1"/>
        <pt x="372" y="218" on="0"/>
        <pt x="376" y="214" on="0"/>
        <pt x="378" y="210" on="1"/>
        <pt x="383" y="198" on="0"/>
        <pt x="378" y="170" on="0"/>
        <pt x="371" y="160" on="1"/>
        <pt x="370" y="156" on="0"/>
        <pt x="366" y="151" on="0"/>
        <pt x="364" y="148" on="1"/>
        <pt x="342" y="126" on="0"/>
        <pt x="333" y="106" on="1"/>
        <pt x="320" y="97" on="0"/>
        <pt x="301" y="75" on="0"/>
        <pt x="288" y="67" on="1"/>
        <pt x="281" y="59" on="0"/>
        <pt x="262" y="50" on="0"/>
        <pt x="254" y="44" on="1"/>
        <pt x="245" y="37" on="0"/>
        <pt x="224" y="23" on="0"/>
        <pt x="213" y="18" on="1"/>
        <pt x="204" y="12" on="0"/>
        <pt x="194" y="9" on="1"/>
        <pt x="182" y="1" on="0"/>
        <pt x="155" y="-9" on="0"/>
        <pt x="143" y="-17" on="1"/>
        <pt x="126" y="-22" on="0"/>
        <pt x="91" y="-40" on="0"/>
        <pt x="75" y="-45" on="1"/>
        <pt x="69" y="-46" on="0"/>
        <pt x="59" y="-43" on="1"/>
        <pt x="51" y="-41" on="0"/>
        <pt x="29" y="-26" on="0"/>
        <pt x="25" y="-18" on="1"/>
        <pt x="18" y="-16" on="0"/>
        <pt x="11" y="0" on="0"/>
        <pt x="6" y="6" on="1"/>
        <pt x="3" y="11" on="0"/>
        <pt x="-4" y="22" on="0"/>
        <pt x="-7" y="29" on="1"/>
        <pt x="-16" y="41" on="0"/>
        <pt x="-20" y="51" on="1"/>
        <pt x="-25" y="66" on="0"/>
        <pt x="-28" y="74" on="0"/>
        <pt x="-30" y="79" on="1"/>
        <pt x="-32" y="84" on="0"/>
        <pt x="-37" y="92" on="0"/>
        <pt x="-40" y="96" on="1"/>
        <pt x="-44" y="116" on="0"/>
        <pt x="-29" y="156" on="0"/>
        <pt x="-22" y="170" on="1"/>
        <pt x="-18" y="175" on="0"/>
        <pt x="-14" y="184" on="0"/>
        <pt x="-12" y="189" on="1"/>
        <pt x="-7" y="198" on="0"/>
        <pt x="3" y="213" on="0"/>
        <pt x="8" y="221" on="1"/>
        <pt x="13" y="229" on="0"/>
        <pt x="20" y="247" on="0"/>
        <pt x="26" y="255" on="1"/>
        <pt x="29" y="266" on="0"/>
        <pt x="43" y="277" on="0"/>
        <pt x="50" y="285" on="1"/>
        <pt x="55" y="287" on="0"/>
        <pt x="62" y="293" on="0"/>
        <pt x="66" y="296" on="1"/>
        <pt x="89" y="306" on="0"/>
        <pt x="126" y="326" on="0"/>
        <pt x="146" y="334" on="1"/>
        <pt x="176" y="340" on="0"/>
        <pt x="207" y="353" on="1"/>
        <pt x="199" y="362" on="0"/>
        <pt x="190" y="391" on="0"/>
        <pt x="185" y="407" on="1"/>
        <pt x="184" y="411" on="0"/>
        <pt x="180" y="418" on="0"/>
        <pt x="179" y="422" on="1"/>
        <pt x="177" y="432" on="0"/>
        <pt x="176" y="436" on="0"/>
        <pt x="175" y="438" on="1"/>
        <pt x="174" y="445" on="0"/>
        <pt x="174" y="460" on="0"/>
        <pt x="174" y="468" on="1"/>
        <pt x="174" y="473" on="0"/>
        <pt x="174" y="485" on="0"/>
        <pt x="176" y="490" on="1"/>
        <pt x="180" y="500" on="0"/>
        <pt x="179" y="506" on="0"/>
        <pt x="180" y="509" on="1"/>
        <pt x="181" y="513" on="0"/>
        <pt x="184" y="517" on="0"/>
        <pt x="184" y="522" on="1"/>
        <pt x="189" y="529" on="0"/>
        <pt x="200" y="545" on="0"/>
        <pt x="205" y="553" on="1"/>
        <pt x="212" y="564" on="0"/>
        <pt x="224" y="580" on="0"/>
        <pt x="228" y="589" on="1"/>
        <pt x="236" y="594" on="0"/>
        <pt x="247" y="610" on="0"/>
        <pt x="254" y="616" on="1"/>
        <pt x="267" y="631" on="0"/>
        <pt x="292" y="660" on="0"/>
        <pt x="308" y="671" on="1"/>
        <pt x="319" y="676" on="0"/>
        <pt x="337" y="690" on="0"/>
        <pt x="346" y="696" on="1"/>
        <pt x="355" y="704" on="0"/>
        <pt x="376" y="713" on="0"/>
        <pt x="386" y="720" on="1"/>
        <pt x="391" y="721" on="0"/>
        <pt x="397" y="725" on="0"/>
        <pt x="401" y="727" on="1"/>
        <pt x="408" y="731" on="0"/>
        <pt x="420" y="734" on="1"/>
        <pt x="427" y="736" on="0"/>
        <pt x="438" y="740" on="0"/>
        <pt x="446" y="739" on="1"/>
        <pt x="456" y="738" on="0"/>
        <pt x="470" y="735" on="0"/>
        <pt x="475" y="730" on="1"/>
        <pt x="483" y="729" on="0"/>
        <pt x="493" y="720" on="0"/>
        <pt x="498" y="715" on="1"/>
      </contour>
    </TTGlyph>
    <TTGlyph name="Eacute" xMin="-44" yMin="-46" xMax="661" yMax="934">
      <component glyphName="E" x="0" y="0" flags="0x204"/>
      <component glyphName="acute" x="154" y="164" flags="0x4"/>
    </TTGlyph>
    <TTGlyph name="Ecircumflex" xMin="-44" yMin="-46" xMax="624" yMax="927">
      <component glyphName="E" x="0" y="0" flags="0x204"/>
      <component glyphName="circumflex" x="-142" y="164" flags="0x4"/>
    </TTGlyph>
    <TTGlyph name="Edieresis" xMin="-44" yMin="-46" xMax="629" yMax="886">
      <component glyphName="E" x="0" y="0" flags="0x204"/>
      <component glyphName="dieresis" x="61" y="143" flags="0x4"/>
    </TTGlyph>
    <TTGlyph name="Egrave" xMin="-44" yMin="-46" xMax="574" yMax="934">
      <component glyphName="E" x="0" y="0" flags="0x204"/>
      <component glyphName="grave" x="113" y="164" flags="0x4"/>
    </TTGlyph>
    <TTGlyph name="Eth" xMin="30" yMin="-36" xMax="636" yMax="743">
      <contour>
        <pt x="139" y="323" on="1"/>
        <pt x="134" y="323" on="0"/>
        <pt x="125" y="323" on="0"/>
        <pt x="120" y="322" on="1"/>
        <pt x="110" y="319" on="0"/>
        <pt x="103" y="321" on="0"/>
        <pt x="100" y="319" on="1"/>
        <pt x="95" y="318" on="0"/>
        <pt x="86" y="317" on="0"/>
        <pt x="82" y="316" on="1"/>
        <pt x="77" y="314" on="0"/>
        <pt x="65" y="310" on="0"/>
        <pt x="58" y="311" on="1"/>
        <pt x="55" y="311" on="0"/>
        <pt x="49" y="315" on="0"/>
        <pt x="46" y="317" on="1"/>
        <pt x="41" y="320" on="0"/>
        <pt x="33" y="323" on="0"/>
        <pt x="31" y="327" on="1"/>
        <pt x="33" y="333" on="0"/>
        <pt x="34" y="351" on="0"/>
        <pt x="42" y="361" on="1"/>
        <pt x="44" y="364" on="0"/>
        <pt x="50" y="370" on="0"/>
        <pt x="53" y="373" on="1"/>
        <pt x="57" y="378" on="0"/>
        <pt x="60" y="383" on="0"/>
        <pt x="66" y="387" on="1"/>
        <pt x="71" y="389" on="0"/>
        <pt x="79" y="390" on="0"/>
        <pt x="84" y="393" on="1"/>
        <pt x="92" y="391" on="0"/>
        <pt x="110" y="393" on="0"/>
        <pt x="114" y="390" on="1"/>
        <pt x="128" y="389" on="0"/>
        <pt x="156" y="384" on="0"/>
        <pt x="171" y="385" on="1"/>
        <pt x="179" y="390" on="0"/>
        <pt x="183" y="398" on="0"/>
        <pt x="185" y="403" on="1"/>
        <pt x="191" y="411" on="0"/>
        <pt x="200" y="433" on="0"/>
        <pt x="205" y="443" on="1"/>
        <pt x="213" y="463" on="0"/>
        <pt x="221" y="477" on="1"/>
        <pt x="223" y="481" on="0"/>
        <pt x="227" y="486" on="0"/>
        <pt x="228" y="490" on="1"/>
        <pt x="231" y="499" on="0"/>
        <pt x="239" y="517" on="0"/>
        <pt x="243" y="525" on="1"/>
        <pt x="251" y="542" on="0"/>
        <pt x="266" y="568" on="0"/>
        <pt x="275" y="584" on="1"/>
        <pt x="247" y="575" on="0"/>
        <pt x="199" y="554" on="0"/>
        <pt x="177" y="540" on="1"/>
        <pt x="170" y="535" on="0"/>
        <pt x="160" y="522" on="0"/>
        <pt x="153" y="517" on="1"/>
        <pt x="133" y="502" on="0"/>
        <pt x="111" y="502" on="1"/>
        <pt x="102" y="507" on="0"/>
        <pt x="100" y="512" on="1"/>
        <pt x="108" y="532" on="0"/>
        <pt x="131" y="559" on="0"/>
        <pt x="143" y="573" on="1"/>
        <pt x="154" y="580" on="0"/>
        <pt x="172" y="594" on="0"/>
        <pt x="181" y="602" on="1"/>
        <pt x="190" y="610" on="0"/>
        <pt x="208" y="626" on="0"/>
        <pt x="218" y="631" on="1"/>
        <pt x="232" y="638" on="0"/>
        <pt x="257" y="651" on="0"/>
        <pt x="269" y="659" on="1"/>
        <pt x="287" y="673" on="0"/>
        <pt x="332" y="695" on="0"/>
        <pt x="353" y="705" on="1"/>
        <pt x="364" y="710" on="0"/>
        <pt x="385" y="718" on="0"/>
        <pt x="396" y="721" on="1"/>
        <pt x="407" y="723" on="0"/>
        <pt x="431" y="727" on="0"/>
        <pt x="442" y="731" on="1"/>
        <pt x="458" y="733" on="0"/>
        <pt x="487" y="743" on="0"/>
        <pt x="504" y="743" on="1"/>
        <pt x="508" y="742" on="0"/>
        <pt x="512" y="740" on="0"/>
        <pt x="516" y="739" on="1"/>
        <pt x="529" y="739" on="0"/>
        <pt x="540" y="735" on="0"/>
        <pt x="545" y="733" on="1"/>
        <pt x="555" y="729" on="0"/>
        <pt x="571" y="720" on="0"/>
        <pt x="580" y="715" on="1"/>
        <pt x="585" y="712" on="0"/>
        <pt x="591" y="706" on="0"/>
        <pt x="595" y="703" on="1"/>
        <pt x="603" y="698" on="0"/>
        <pt x="608" y="693" on="0"/>
        <pt x="611" y="690" on="1"/>
        <pt x="616" y="685" on="0"/>
        <pt x="625" y="680" on="0"/>
        <pt x="624" y="673" on="1"/>
        <pt x="628" y="662" on="0"/>
        <pt x="636" y="641" on="0"/>
        <pt x="636" y="629" on="1"/>
        <pt x="636" y="624" on="0"/>
        <pt x="633" y="614" on="0"/>
        <pt x="631" y="609" on="1"/>
        <pt x="629" y="602" on="0"/>
        <pt x="628" y="590" on="0"/>
        <pt x="625" y="585" on="1"/>
        <pt x="623" y="571" on="0"/>
        <pt x="618" y="544" on="0"/>
        <pt x="616" y="529" on="1"/>
        <pt x="615" y="524" on="0"/>
        <pt x="615" y="512" on="0"/>
        <pt x="614" y="507" on="1"/>
        <pt x="612" y="494" on="0"/>
        <pt x="602" y="471" on="0"/>
        <pt x="602" y="460" on="1"/>
        <pt x="596" y="440" on="0"/>
        <pt x="582" y="414" on="0"/>
        <pt x="574" y="401" on="1"/>
        <pt x="564" y="387" on="0"/>
        <pt x="550" y="352" on="0"/>
        <pt x="542" y="335" on="1"/>
        <pt x="540" y="331" on="0"/>
        <pt x="539" y="324" on="0"/>
        <pt x="537" y="321" on="1"/>
        <pt x="528" y="310" on="0"/>
        <pt x="526" y="302" on="0"/>
        <pt x="524" y="297" on="1"/>
        <pt x="521" y="290" on="0"/>
        <pt x="514" y="273" on="0"/>
        <pt x="511" y="265" on="1"/>
        <pt x="509" y="262" on="0"/>
        <pt x="505" y="254" on="1"/>
        <pt x="502" y="248" on="0"/>
        <pt x="493" y="236" on="0"/>
        <pt x="488" y="229" on="1"/>
        <pt x="472" y="204" on="0"/>
        <pt x="438" y="160" on="0"/>
        <pt x="418" y="139" on="1"/>
        <pt x="393" y="114" on="0"/>
        <pt x="338" y="72" on="0"/>
        <pt x="311" y="49" on="1"/>
        <pt x="301" y="41" on="0"/>
        <pt x="281" y="24" on="0"/>
        <pt x="269" y="16" on="1"/>
        <pt x="264" y="12" on="0"/>
        <pt x="253" y="6" on="0"/>
        <pt x="248" y="1" on="1"/>
        <pt x="232" y="-14" on="0"/>
        <pt x="208" y="-25" on="1"/>
        <pt x="196" y="-28" on="0"/>
        <pt x="190" y="-31" on="0"/>
        <pt x="188" y="-31" on="1"/>
        <pt x="182" y="-33" on="0"/>
        <pt x="170" y="-33" on="0"/>
        <pt x="164" y="-34" on="1"/>
        <pt x="161" y="-34" on="0"/>
        <pt x="155" y="-36" on="0"/>
        <pt x="151" y="-36" on="1"/>
        <pt x="143" y="-35" on="0"/>
        <pt x="126" y="-29" on="0"/>
        <pt x="118" y="-27" on="1"/>
        <pt x="115" y="-26" on="0"/>
        <pt x="108" y="-24" on="0"/>
        <pt x="104" y="-23" on="1"/>
        <pt x="97" y="-19" on="0"/>
        <pt x="85" y="-13" on="0"/>
        <pt x="79" y="-9" on="1"/>
        <pt x="64" y="-5" on="0"/>
        <pt x="58" y="9" on="0"/>
        <pt x="53" y="15" on="1"/>
        <pt x="47" y="34" on="0"/>
        <pt x="40" y="64" on="0"/>
        <pt x="35" y="83" on="1"/>
        <pt x="33" y="90" on="0"/>
        <pt x="30" y="101" on="0"/>
        <pt x="31" y="108" on="1"/>
        <pt x="32" y="113" on="0"/>
        <pt x="38" y="125" on="0"/>
        <pt x="41" y="131" on="1"/>
        <pt x="49" y="145" on="0"/>
        <pt x="58" y="174" on="0"/>
        <pt x="66" y="188" on="1"/>
        <pt x="68" y="190" on="0"/>
        <pt x="71" y="196" on="0"/>
        <pt x="73" y="198" on="1"/>
        <pt x="76" y="204" on="0"/>
        <pt x="81" y="216" on="0"/>
        <pt x="83" y="221" on="1"/>
        <pt x="91" y="238" on="0"/>
        <pt x="108" y="271" on="0"/>
        <pt x="118" y="287" on="1"/>
        <pt x="126" y="301" on="0"/>
        <pt x="134" y="315" on="0"/>
      </contour>
      <contour>
        <pt x="368" y="387" on="1"/>
        <pt x="366" y="383" on="0"/>
        <pt x="368" y="378" on="0"/>
        <pt x="366" y="374" on="1"/>
        <pt x="364" y="371" on="0"/>
        <pt x="357" y="364" on="0"/>
        <pt x="354" y="359" on="1"/>
        <pt x="349" y="351" on="0"/>
        <pt x="345" y="339" on="0"/>
        <pt x="338" y="334" on="1"/>
        <pt x="328" y="332" on="0"/>
        <pt x="304" y="328" on="0"/>
        <pt x="294" y="327" on="1"/>
        <pt x="286" y="327" on="0"/>
        <pt x="259" y="325" on="0"/>
        <pt x="249" y="327" on="1"/>
        <pt x="242" y="328" on="0"/>
        <pt x="238" y="328" on="1"/>
        <pt x="236" y="322" on="0"/>
        <pt x="234" y="317" on="1"/>
        <pt x="229" y="309" on="0"/>
        <pt x="218" y="297" on="0"/>
        <pt x="214" y="290" on="1"/>
        <pt x="210" y="279" on="0"/>
        <pt x="203" y="270" on="0"/>
        <pt x="201" y="265" on="1"/>
        <pt x="196" y="257" on="0"/>
        <pt x="188" y="239" on="0"/>
        <pt x="183" y="230" on="1"/>
        <pt x="181" y="227" on="0"/>
        <pt x="176" y="221" on="0"/>
        <pt x="174" y="217" on="1"/>
        <pt x="171" y="211" on="0"/>
        <pt x="167" y="198" on="0"/>
        <pt x="164" y="190" on="1"/>
        <pt x="161" y="183" on="0"/>
        <pt x="154" y="171" on="0"/>
        <pt x="152" y="165" on="1"/>
        <pt x="148" y="158" on="0"/>
        <pt x="142" y="144" on="0"/>
        <pt x="140" y="138" on="1"/>
        <pt x="137" y="131" on="0"/>
        <pt x="133" y="117" on="0"/>
        <pt x="130" y="110" on="1"/>
        <pt x="124" y="98" on="0"/>
        <pt x="120" y="85" on="0"/>
        <pt x="118" y="79" on="1"/>
        <pt x="116" y="73" on="0"/>
        <pt x="111" y="60" on="0"/>
        <pt x="111" y="54" on="1"/>
        <pt x="107" y="51" on="0"/>
        <pt x="105" y="43" on="0"/>
        <pt x="105" y="34" on="0"/>
        <pt x="105" y="25" on="0"/>
        <pt x="102" y="22" on="1"/>
        <pt x="118" y="24" on="0"/>
        <pt x="137" y="36" on="0"/>
        <pt x="151" y="38" on="1"/>
        <pt x="161" y="43" on="0"/>
        <pt x="176" y="58" on="0"/>
        <pt x="190" y="59" on="1"/>
        <pt x="206" y="69" on="0"/>
        <pt x="231" y="92" on="0"/>
        <pt x="250" y="99" on="1"/>
        <pt x="265" y="112" on="0"/>
        <pt x="298" y="135" on="0"/>
        <pt x="309" y="152" on="1"/>
        <pt x="314" y="154" on="0"/>
        <pt x="323" y="161" on="1"/>
        <pt x="329" y="168" on="0"/>
        <pt x="340" y="182" on="0"/>
        <pt x="345" y="190" on="1"/>
        <pt x="355" y="198" on="0"/>
        <pt x="369" y="218" on="0"/>
        <pt x="380" y="225" on="1"/>
        <pt x="384" y="235" on="0"/>
        <pt x="398" y="248" on="0"/>
        <pt x="404" y="256" on="1"/>
        <pt x="412" y="266" on="0"/>
        <pt x="425" y="288" on="0"/>
        <pt x="433" y="297" on="1"/>
        <pt x="447" y="323" on="0"/>
        <pt x="478" y="371" on="0"/>
        <pt x="490" y="400" on="1"/>
        <pt x="508" y="425" on="0"/>
        <pt x="519" y="456" on="1"/>
        <pt x="526" y="463" on="0"/>
        <pt x="531" y="486" on="0"/>
        <pt x="541" y="488" on="1"/>
        <pt x="549" y="500" on="0"/>
        <pt x="550" y="532" on="0"/>
        <pt x="552" y="547" on="1"/>
        <pt x="553" y="552" on="0"/>
        <pt x="551" y="560" on="0"/>
        <pt x="552" y="564" on="1"/>
        <pt x="552" y="572" on="0"/>
        <pt x="555" y="588" on="0"/>
        <pt x="553" y="595" on="1"/>
        <pt x="548" y="603" on="0"/>
        <pt x="548" y="608" on="0"/>
        <pt x="547" y="610" on="1"/>
        <pt x="544" y="614" on="0"/>
        <pt x="544" y="621" on="1"/>
        <pt x="542" y="629" on="0"/>
        <pt x="541" y="636" on="0"/>
        <pt x="538" y="641" on="1"/>
        <pt x="533" y="648" on="0"/>
        <pt x="528" y="660" on="0"/>
        <pt x="523" y="665" on="1"/>
        <pt x="515" y="666" on="0"/>
        <pt x="502" y="666" on="0"/>
        <pt x="494" y="666" on="1"/>
        <pt x="480" y="665" on="0"/>
        <pt x="455" y="656" on="0"/>
        <pt x="442" y="651" on="1"/>
        <pt x="433" y="648" on="0"/>
        <pt x="417" y="640" on="0"/>
        <pt x="409" y="636" on="1"/>
        <pt x="400" y="631" on="0"/>
        <pt x="385" y="621" on="0"/>
        <pt x="377" y="615" on="1"/>
        <pt x="376" y="612" on="0"/>
        <pt x="373" y="607" on="0"/>
        <pt x="372" y="604" on="1"/>
        <pt x="361" y="593" on="0"/>
        <pt x="350" y="566" on="0"/>
        <pt x="343" y="554" on="1"/>
        <pt x="335" y="541" on="0"/>
        <pt x="322" y="516" on="0"/>
        <pt x="315" y="503" on="1"/>
        <pt x="310" y="492" on="0"/>
        <pt x="299" y="475" on="0"/>
        <pt x="295" y="465" on="1"/>
        <pt x="282" y="444" on="0"/>
        <pt x="278" y="432" on="1"/>
        <pt x="275" y="425" on="0"/>
        <pt x="266" y="412" on="0"/>
        <pt x="264" y="404" on="1"/>
        <pt x="262" y="400" on="0"/>
        <pt x="259" y="393" on="0"/>
        <pt x="257" y="389" on="1"/>
        <pt x="263" y="390" on="0"/>
        <pt x="275" y="391" on="0"/>
        <pt x="282" y="391" on="1"/>
        <pt x="290" y="392" on="0"/>
        <pt x="306" y="389" on="0"/>
        <pt x="314" y="390" on="1"/>
        <pt x="323" y="390" on="0"/>
        <pt x="343" y="393" on="0"/>
        <pt x="352" y="393" on="1"/>
        <pt x="357" y="391" on="0"/>
        <pt x="366" y="390" on="0"/>
      </contour>
    </TTGlyph>
    <TTGlyph name="Euro" xMin="29" yMin="10" xMax="617" yMax="710">
      <contour>
        <pt x="616" y="673" on="1"/>
        <pt x="617" y="665" on="0"/>
        <pt x="616" y="649" on="0"/>
        <pt x="612" y="643" on="1"/>
        <pt x="607" y="641" on="0"/>
        <pt x="599" y="633" on="1"/>
        <pt x="594" y="631" on="0"/>
        <pt x="579" y="635" on="0"/>
        <pt x="572" y="635" on="1"/>
        <pt x="569" y="635" on="0"/>
        <pt x="563" y="634" on="0"/>
        <pt x="560" y="634" on="1"/>
        <pt x="556" y="635" on="0"/>
        <pt x="549" y="636" on="0"/>
        <pt x="544" y="637" on="1"/>
        <pt x="539" y="638" on="0"/>
        <pt x="530" y="637" on="0"/>
        <pt x="525" y="639" on="1"/>
        <pt x="517" y="637" on="0"/>
        <pt x="503" y="640" on="0"/>
        <pt x="496" y="640" on="1"/>
        <pt x="488" y="639" on="0"/>
        <pt x="473" y="635" on="0"/>
        <pt x="466" y="633" on="1"/>
        <pt x="462" y="633" on="0"/>
        <pt x="455" y="634" on="0"/>
        <pt x="452" y="633" on="1"/>
        <pt x="442" y="630" on="0"/>
        <pt x="438" y="631" on="0"/>
        <pt x="436" y="630" on="1"/>
        <pt x="430" y="628" on="0"/>
        <pt x="420" y="621" on="0"/>
        <pt x="415" y="618" on="1"/>
        <pt x="407" y="614" on="0"/>
        <pt x="391" y="605" on="0"/>
        <pt x="384" y="601" on="1"/>
        <pt x="374" y="593" on="0"/>
        <pt x="353" y="580" on="0"/>
        <pt x="344" y="572" on="1"/>
        <pt x="338" y="568" on="0"/>
        <pt x="334" y="564" on="1"/>
        <pt x="332" y="561" on="0"/>
        <pt x="328" y="555" on="0"/>
        <pt x="326" y="552" on="1"/>
        <pt x="324" y="549" on="0"/>
        <pt x="319" y="545" on="0"/>
        <pt x="317" y="542" on="1"/>
        <pt x="313" y="538" on="0"/>
        <pt x="310" y="530" on="1"/>
        <pt x="302" y="521" on="0"/>
        <pt x="297" y="509" on="0"/>
        <pt x="293" y="504" on="1"/>
        <pt x="282" y="487" on="0"/>
        <pt x="264" y="451" on="0"/>
        <pt x="255" y="432" on="1"/>
        <pt x="283" y="429" on="0"/>
        <pt x="337" y="432" on="0"/>
        <pt x="365" y="433" on="1"/>
        <pt x="377" y="434" on="0"/>
        <pt x="401" y="432" on="0"/>
        <pt x="413" y="433" on="1"/>
        <pt x="423" y="434" on="0"/>
        <pt x="443" y="437" on="0"/>
        <pt x="453" y="436" on="1"/>
        <pt x="455" y="434" on="0"/>
        <pt x="460" y="431" on="0"/>
        <pt x="462" y="428" on="1"/>
        <pt x="461" y="424" on="0"/>
        <pt x="464" y="418" on="0"/>
        <pt x="464" y="415" on="1"/>
        <pt x="463" y="408" on="0"/>
        <pt x="452" y="400" on="0"/>
        <pt x="444" y="403" on="1"/>
        <pt x="419" y="396" on="0"/>
        <pt x="366" y="388" on="0"/>
        <pt x="339" y="387" on="1"/>
        <pt x="333" y="387" on="0"/>
        <pt x="321" y="386" on="0"/>
        <pt x="314" y="386" on="1"/>
        <pt x="308" y="387" on="0"/>
        <pt x="295" y="389" on="0"/>
        <pt x="289" y="388" on="1"/>
        <pt x="286" y="388" on="0"/>
        <pt x="280" y="386" on="0"/>
        <pt x="276" y="387" on="1"/>
        <pt x="268" y="388" on="0"/>
        <pt x="266" y="390" on="0"/>
        <pt x="264" y="390" on="1"/>
        <pt x="256" y="392" on="0"/>
        <pt x="236" y="389" on="0"/>
        <pt x="225" y="389" on="1"/>
        <pt x="217" y="375" on="0"/>
        <pt x="207" y="343" on="0"/>
        <pt x="202" y="327" on="1"/>
        <pt x="208" y="325" on="0"/>
        <pt x="220" y="327" on="0"/>
        <pt x="227" y="327" on="1"/>
        <pt x="236" y="328" on="0"/>
        <pt x="253" y="327" on="0"/>
        <pt x="261" y="329" on="1"/>
        <pt x="274" y="330" on="0"/>
        <pt x="281" y="330" on="0"/>
        <pt x="284" y="330" on="1"/>
        <pt x="290" y="331" on="0"/>
        <pt x="301" y="330" on="0"/>
        <pt x="308" y="330" on="1"/>
        <pt x="311" y="331" on="0"/>
        <pt x="319" y="332" on="0"/>
        <pt x="322" y="330" on="1"/>
        <pt x="337" y="330" on="0"/>
        <pt x="362" y="329" on="0"/>
        <pt x="377" y="329" on="1"/>
        <pt x="391" y="329" on="0"/>
        <pt x="413" y="333" on="0"/>
        <pt x="427" y="334" on="1"/>
        <pt x="440" y="333" on="0"/>
        <pt x="445" y="326" on="0"/>
        <pt x="447" y="324" on="1"/>
        <pt x="446" y="320" on="0"/>
        <pt x="446" y="312" on="0"/>
        <pt x="444" y="309" on="1"/>
        <pt x="436" y="301" on="0"/>
        <pt x="422" y="284" on="0"/>
        <pt x="413" y="276" on="1"/>
        <pt x="411" y="274" on="0"/>
        <pt x="405" y="268" on="0"/>
        <pt x="401" y="267" on="1"/>
        <pt x="398" y="266" on="0"/>
        <pt x="391" y="267" on="0"/>
        <pt x="388" y="266" on="1"/>
        <pt x="385" y="266" on="0"/>
        <pt x="379" y="265" on="0"/>
        <pt x="377" y="265" on="1"/>
        <pt x="372" y="266" on="0"/>
        <pt x="364" y="267" on="0"/>
        <pt x="358" y="267" on="1"/>
        <pt x="354" y="267" on="0"/>
        <pt x="347" y="266" on="0"/>
        <pt x="343" y="266" on="1"/>
        <pt x="340" y="266" on="0"/>
        <pt x="333" y="267" on="0"/>
        <pt x="330" y="267" on="1"/>
        <pt x="322" y="268" on="0"/>
        <pt x="306" y="267" on="0"/>
        <pt x="298" y="267" on="1"/>
        <pt x="285" y="268" on="0"/>
        <pt x="259" y="271" on="0"/>
        <pt x="246" y="270" on="1"/>
        <pt x="241" y="269" on="0"/>
        <pt x="233" y="267" on="0"/>
        <pt x="228" y="267" on="1"/>
        <pt x="216" y="268" on="0"/>
        <pt x="192" y="268" on="0"/>
        <pt x="180" y="266" on="1"/>
        <pt x="176" y="263" on="0"/>
        <pt x="177" y="256" on="0"/>
        <pt x="175" y="252" on="1"/>
        <pt x="171" y="241" on="0"/>
        <pt x="170" y="232" on="1"/>
        <pt x="167" y="210" on="0"/>
        <pt x="176" y="165" on="0"/>
        <pt x="182" y="144" on="1"/>
        <pt x="183" y="142" on="0"/>
        <pt x="185" y="136" on="0"/>
        <pt x="186" y="132" on="1"/>
        <pt x="188" y="127" on="0"/>
        <pt x="190" y="118" on="0"/>
        <pt x="194" y="115" on="1"/>
        <pt x="197" y="110" on="0"/>
        <pt x="206" y="104" on="0"/>
        <pt x="211" y="100" on="1"/>
        <pt x="216" y="96" on="0"/>
        <pt x="224" y="89" on="0"/>
        <pt x="229" y="87" on="1"/>
        <pt x="233" y="86" on="0"/>
        <pt x="241" y="86" on="0"/>
        <pt x="245" y="86" on="1"/>
        <pt x="252" y="85" on="0"/>
        <pt x="266" y="83" on="0"/>
        <pt x="274" y="82" on="1"/>
        <pt x="290" y="81" on="0"/>
        <pt x="295" y="81" on="1"/>
        <pt x="299" y="80" on="0"/>
        <pt x="307" y="81" on="0"/>
        <pt x="312" y="82" on="1"/>
        <pt x="320" y="82" on="0"/>
        <pt x="335" y="79" on="0"/>
        <pt x="342" y="80" on="1"/>
        <pt x="368" y="83" on="0"/>
        <pt x="404" y="109" on="0"/>
        <pt x="425" y="120" on="1"/>
        <pt x="432" y="127" on="0"/>
        <pt x="443" y="132" on="1"/>
        <pt x="453" y="125" on="0"/>
        <pt x="457" y="129" on="0"/>
        <pt x="459" y="130" on="1"/>
        <pt x="459" y="123" on="0"/>
        <pt x="449" y="119" on="1"/>
        <pt x="446" y="115" on="0"/>
        <pt x="441" y="109" on="0"/>
        <pt x="439" y="104" on="1"/>
        <pt x="428" y="91" on="0"/>
        <pt x="420" y="81" on="0"/>
        <pt x="417" y="75" on="1"/>
        <pt x="411" y="73" on="0"/>
        <pt x="402" y="64" on="0"/>
        <pt x="397" y="60" on="1"/>
        <pt x="393" y="57" on="0"/>
        <pt x="386" y="52" on="0"/>
        <pt x="383" y="48" on="1"/>
        <pt x="375" y="44" on="0"/>
        <pt x="359" y="35" on="0"/>
        <pt x="349" y="32" on="1"/>
        <pt x="335" y="28" on="0"/>
        <pt x="319" y="22" on="1"/>
        <pt x="309" y="17" on="0"/>
        <pt x="298" y="13" on="0"/>
        <pt x="290" y="11" on="1"/>
        <pt x="283" y="10" on="0"/>
        <pt x="269" y="12" on="0"/>
        <pt x="262" y="11" on="1"/>
        <pt x="254" y="10" on="0"/>
        <pt x="245" y="14" on="1"/>
        <pt x="241" y="15" on="0"/>
        <pt x="233" y="16" on="0"/>
        <pt x="230" y="17" on="1"/>
        <pt x="214" y="23" on="0"/>
        <pt x="182" y="34" on="0"/>
        <pt x="168" y="44" on="1"/>
        <pt x="159" y="50" on="0"/>
        <pt x="141" y="60" on="0"/>
        <pt x="135" y="68" on="1"/>
        <pt x="128" y="76" on="0"/>
        <pt x="117" y="97" on="0"/>
        <pt x="111" y="105" on="1"/>
        <pt x="111" y="109" on="0"/>
        <pt x="106" y="113" on="0"/>
        <pt x="106" y="115" on="1"/>
        <pt x="98" y="120" on="0"/>
        <pt x="92" y="140" on="0"/>
        <pt x="89" y="164" on="0"/>
        <pt x="90" y="190" on="0"/>
        <pt x="90" y="201" on="1"/>
        <pt x="88" y="218" on="0"/>
        <pt x="92" y="251" on="0"/>
        <pt x="92" y="267" on="1"/>
        <pt x="83" y="269" on="0"/>
        <pt x="62" y="262" on="0"/>
        <pt x="51" y="265" on="1"/>
        <pt x="48" y="267" on="0"/>
        <pt x="42" y="273" on="1"/>
        <pt x="29" y="285" on="0"/>
        <pt x="31" y="295" on="1"/>
        <pt x="42" y="305" on="0"/>
        <pt x="55" y="315" on="0"/>
        <pt x="65" y="317" on="1"/>
        <pt x="68" y="318" on="0"/>
        <pt x="75" y="318" on="0"/>
        <pt x="78" y="318" on="1"/>
        <pt x="86" y="318" on="0"/>
        <pt x="100" y="319" on="0"/>
        <pt x="108" y="319" on="1"/>
        <pt x="116" y="335" on="0"/>
        <pt x="132" y="367" on="0"/>
        <pt x="140" y="383" on="1"/>
        <pt x="127" y="379" on="0"/>
        <pt x="123" y="382" on="1"/>
        <pt x="115" y="379" on="0"/>
        <pt x="97" y="378" on="0"/>
        <pt x="89" y="376" on="1"/>
        <pt x="87" y="377" on="0"/>
        <pt x="81" y="379" on="0"/>
        <pt x="78" y="380" on="1"/>
        <pt x="73" y="386" on="0"/>
        <pt x="74" y="404" on="0"/>
        <pt x="81" y="409" on="1"/>
        <pt x="86" y="419" on="0"/>
        <pt x="94" y="424" on="0"/>
        <pt x="101" y="426" on="1"/>
        <pt x="111" y="430" on="0"/>
        <pt x="120" y="430" on="1"/>
        <pt x="131" y="431" on="0"/>
        <pt x="151" y="427" on="0"/>
        <pt x="160" y="431" on="1"/>
        <pt x="171" y="427" on="0"/>
        <pt x="177" y="441" on="0"/>
        <pt x="182" y="445" on="1"/>
        <pt x="184" y="452" on="0"/>
        <pt x="192" y="463" on="0"/>
        <pt x="196" y="470" on="1"/>
        <pt x="203" y="482" on="0"/>
        <pt x="215" y="508" on="0"/>
        <pt x="223" y="519" on="1"/>
        <pt x="228" y="526" on="0"/>
        <pt x="235" y="533" on="0"/>
        <pt x="237" y="538" on="1"/>
        <pt x="243" y="546" on="0"/>
        <pt x="245" y="550" on="0"/>
        <pt x="247" y="552" on="1"/>
        <pt x="252" y="558" on="0"/>
        <pt x="261" y="570" on="0"/>
        <pt x="266" y="577" on="1"/>
        <pt x="280" y="590" on="0"/>
        <pt x="306" y="618" on="0"/>
        <pt x="321" y="631" on="1"/>
        <pt x="329" y="637" on="0"/>
        <pt x="336" y="639" on="0"/>
        <pt x="339" y="641" on="1"/>
        <pt x="350" y="649" on="0"/>
        <pt x="368" y="659" on="1"/>
        <pt x="388" y="671" on="0"/>
        <pt x="410" y="678" on="1"/>
        <pt x="415" y="682" on="0"/>
        <pt x="429" y="688" on="0"/>
        <pt x="436" y="689" on="1"/>
        <pt x="444" y="692" on="0"/>
        <pt x="464" y="698" on="0"/>
        <pt x="474" y="700" on="1"/>
        <pt x="476" y="702" on="0"/>
        <pt x="484" y="703" on="0"/>
        <pt x="487" y="705" on="1"/>
        <pt x="491" y="706" on="0"/>
        <pt x="497" y="708" on="0"/>
        <pt x="500" y="708" on="1"/>
        <pt x="519" y="710" on="0"/>
        <pt x="535" y="707" on="1"/>
        <pt x="540" y="706" on="0"/>
        <pt x="550" y="701" on="0"/>
        <pt x="555" y="700" on="1"/>
        <pt x="568" y="698" on="0"/>
        <pt x="574" y="695" on="0"/>
        <pt x="579" y="693" on="1"/>
        <pt x="588" y="688" on="0"/>
        <pt x="608" y="679" on="0"/>
      </contour>
    </TTGlyph>
    <TTGlyph name="F" xMin="30" yMin="-83" xMax="584" yMax="723">
      <contour>
        <pt x="545" y="717" on="1"/>
        <pt x="548" y="708" on="0"/>
        <pt x="548" y="705" on="1"/>
        <pt x="550" y="702" on="0"/>
        <pt x="561" y="691" on="0"/>
        <pt x="564" y="691" on="1"/>
        <pt x="576" y="691" on="0"/>
        <pt x="579" y="689" on="0"/>
        <pt x="581" y="688" on="1"/>
        <pt x="581" y="677" on="0"/>
        <pt x="583" y="675" on="0"/>
        <pt x="584" y="673" on="1"/>
        <pt x="584" y="669" on="0"/>
        <pt x="582" y="659" on="1"/>
        <pt x="580" y="651" on="0"/>
        <pt x="570" y="635" on="0"/>
        <pt x="565" y="627" on="1"/>
        <pt x="560" y="619" on="0"/>
        <pt x="549" y="605" on="0"/>
        <pt x="544" y="598" on="1"/>
        <pt x="539" y="591" on="0"/>
        <pt x="535" y="578" on="0"/>
        <pt x="527" y="572" on="1"/>
        <pt x="520" y="567" on="0"/>
        <pt x="506" y="557" on="0"/>
        <pt x="500" y="551" on="1"/>
        <pt x="488" y="536" on="1"/>
        <pt x="486" y="531" on="0"/>
        <pt x="479" y="524" on="0"/>
        <pt x="477" y="520" on="1"/>
        <pt x="471" y="511" on="0"/>
        <pt x="464" y="493" on="0"/>
        <pt x="454" y="486" on="1"/>
        <pt x="440" y="461" on="0"/>
        <pt x="404" y="419" on="0"/>
        <pt x="388" y="395" on="1"/>
        <pt x="399" y="394" on="0"/>
        <pt x="422" y="397" on="0"/>
        <pt x="436" y="398" on="1"/>
        <pt x="466" y="400" on="0"/>
        <pt x="518" y="402" on="0"/>
        <pt x="544" y="402" on="1"/>
        <pt x="552" y="396" on="0"/>
        <pt x="549" y="387" on="1"/>
        <pt x="544" y="387" on="0"/>
        <pt x="539" y="382" on="0"/>
        <pt x="534" y="384" on="1"/>
        <pt x="530" y="382" on="0"/>
        <pt x="528" y="376" on="0"/>
        <pt x="526" y="374" on="1"/>
        <pt x="520" y="356" on="0"/>
        <pt x="479" y="355" on="0"/>
        <pt x="462" y="353" on="1"/>
        <pt x="451" y="352" on="0"/>
        <pt x="450" y="351" on="0"/>
        <pt x="449" y="351" on="1"/>
        <pt x="431" y="349" on="0"/>
        <pt x="394" y="344" on="0"/>
        <pt x="376" y="342" on="1"/>
        <pt x="371" y="338" on="0"/>
        <pt x="358" y="341" on="0"/>
        <pt x="353" y="339" on="1"/>
        <pt x="350" y="337" on="0"/>
        <pt x="348" y="331" on="0"/>
        <pt x="346" y="328" on="1"/>
        <pt x="341" y="321" on="0"/>
        <pt x="333" y="309" on="0"/>
        <pt x="328" y="302" on="1"/>
        <pt x="323" y="297" on="0"/>
        <pt x="314" y="285" on="0"/>
        <pt x="310" y="278" on="1"/>
        <pt x="306" y="275" on="0"/>
        <pt x="301" y="267" on="0"/>
        <pt x="298" y="263" on="1"/>
        <pt x="290" y="252" on="0"/>
        <pt x="272" y="229" on="0"/>
        <pt x="263" y="218" on="1"/>
        <pt x="258" y="209" on="0"/>
        <pt x="247" y="192" on="0"/>
        <pt x="241" y="182" on="1"/>
        <pt x="238" y="176" on="0"/>
        <pt x="233" y="163" on="0"/>
        <pt x="231" y="157" on="1"/>
        <pt x="228" y="149" on="0"/>
        <pt x="221" y="138" on="0"/>
        <pt x="219" y="131" on="1"/>
        <pt x="214" y="123" on="0"/>
        <pt x="204" y="105" on="0"/>
        <pt x="199" y="95" on="1"/>
        <pt x="186" y="75" on="0"/>
        <pt x="157" y="30" on="0"/>
        <pt x="144" y="6" on="1"/>
        <pt x="140" y="0" on="0"/>
        <pt x="134" y="-13" on="0"/>
        <pt x="129" y="-18" on="1"/>
        <pt x="126" y="-22" on="0"/>
        <pt x="119" y="-26" on="0"/>
        <pt x="116" y="-28" on="1"/>
        <pt x="108" y="-34" on="0"/>
        <pt x="86" y="-48" on="0"/>
        <pt x="78" y="-53" on="1"/>
        <pt x="67" y="-57" on="0"/>
        <pt x="59" y="-69" on="0"/>
        <pt x="57" y="-76" on="1"/>
        <pt x="42" y="-83" on="0"/>
        <pt x="30" y="-69" on="0"/>
        <pt x="31" y="-63" on="1"/>
        <pt x="31" y="-59" on="0"/>
        <pt x="42" y="-45" on="0"/>
        <pt x="44" y="-41" on="1"/>
        <pt x="54" y="-26" on="1"/>
        <pt x="57" y="-18" on="0"/>
        <pt x="60" y="-12" on="0"/>
        <pt x="62" y="-9" on="1"/>
        <pt x="64" y="-5" on="0"/>
        <pt x="67" y="-1" on="0"/>
        <pt x="67" y="3" on="1"/>
        <pt x="72" y="9" on="0"/>
        <pt x="78" y="22" on="0"/>
        <pt x="82" y="29" on="1"/>
        <pt x="90" y="37" on="0"/>
        <pt x="102" y="59" on="0"/>
        <pt x="111" y="68" on="1"/>
        <pt x="113" y="74" on="0"/>
        <pt x="119" y="82" on="0"/>
        <pt x="123" y="86" on="1"/>
        <pt x="129" y="98" on="0"/>
        <pt x="143" y="121" on="0"/>
        <pt x="145" y="137" on="1"/>
        <pt x="149" y="153" on="0"/>
        <pt x="161" y="169" on="0"/>
        <pt x="166" y="178" on="1"/>
        <pt x="168" y="185" on="0"/>
        <pt x="172" y="197" on="0"/>
        <pt x="177" y="202" on="1"/>
        <pt x="183" y="212" on="0"/>
        <pt x="191" y="228" on="0"/>
        <pt x="196" y="238" on="1"/>
        <pt x="201" y="252" on="0"/>
        <pt x="211" y="266" on="1"/>
        <pt x="213" y="269" on="0"/>
        <pt x="217" y="274" on="0"/>
        <pt x="219" y="278" on="1"/>
        <pt x="223" y="284" on="0"/>
        <pt x="228" y="298" on="0"/>
        <pt x="232" y="304" on="1"/>
        <pt x="235" y="309" on="0"/>
        <pt x="242" y="316" on="0"/>
        <pt x="242" y="324" on="1"/>
        <pt x="233" y="326" on="0"/>
        <pt x="226" y="322" on="1"/>
        <pt x="214" y="321" on="0"/>
        <pt x="183" y="316" on="0"/>
        <pt x="167" y="316" on="1"/>
        <pt x="162" y="316" on="0"/>
        <pt x="149" y="315" on="0"/>
        <pt x="143" y="314" on="1"/>
        <pt x="138" y="312" on="0"/>
        <pt x="128" y="307" on="0"/>
        <pt x="123" y="312" on="1"/>
        <pt x="119" y="318" on="0"/>
        <pt x="116" y="319" on="0"/>
        <pt x="115" y="321" on="1"/>
        <pt x="110" y="331" on="0"/>
        <pt x="104" y="337" on="1"/>
        <pt x="102" y="340" on="0"/>
        <pt x="101" y="345" on="0"/>
        <pt x="97" y="347" on="1"/>
        <pt x="94" y="350" on="0"/>
        <pt x="91" y="358" on="1"/>
        <pt x="101" y="371" on="0"/>
        <pt x="118" y="371" on="1"/>
        <pt x="162" y="381" on="0"/>
        <pt x="248" y="389" on="0"/>
        <pt x="290" y="395" on="1"/>
        <pt x="293" y="397" on="0"/>
        <pt x="296" y="404" on="0"/>
        <pt x="298" y="407" on="1"/>
        <pt x="303" y="413" on="0"/>
        <pt x="314" y="424" on="0"/>
        <pt x="317" y="432" on="1"/>
        <pt x="321" y="434" on="0"/>
        <pt x="323" y="440" on="0"/>
        <pt x="326" y="442" on="1"/>
        <pt x="330" y="447" on="0"/>
        <pt x="331" y="455" on="0"/>
        <pt x="333" y="457" on="1"/>
        <pt x="344" y="472" on="0"/>
        <pt x="352" y="485" on="0"/>
        <pt x="357" y="492" on="1"/>
        <pt x="362" y="499" on="0"/>
        <pt x="372" y="510" on="0"/>
        <pt x="377" y="516" on="1"/>
        <pt x="381" y="521" on="0"/>
        <pt x="387" y="528" on="0"/>
        <pt x="390" y="532" on="1"/>
        <pt x="398" y="546" on="0"/>
        <pt x="411" y="561" on="1"/>
        <pt x="422" y="574" on="0"/>
        <pt x="429" y="589" on="1"/>
        <pt x="435" y="590" on="0"/>
        <pt x="438" y="599" on="0"/>
        <pt x="442" y="602" on="1"/>
        <pt x="447" y="614" on="0"/>
        <pt x="461" y="633" on="0"/>
        <pt x="466" y="645" on="1"/>
        <pt x="461" y="646" on="0"/>
        <pt x="447" y="640" on="0"/>
        <pt x="439" y="640" on="1"/>
        <pt x="429" y="638" on="0"/>
        <pt x="417" y="634" on="0"/>
        <pt x="409" y="632" on="1"/>
        <pt x="394" y="630" on="0"/>
        <pt x="361" y="616" on="0"/>
        <pt x="346" y="612" on="1"/>
        <pt x="308" y="608" on="0"/>
        <pt x="240" y="600" on="0"/>
        <pt x="205" y="597" on="1"/>
        <pt x="197" y="596" on="0"/>
        <pt x="181" y="594" on="0"/>
        <pt x="173" y="594" on="1"/>
        <pt x="157" y="594" on="0"/>
        <pt x="141" y="591" on="1"/>
        <pt x="136" y="592" on="0"/>
        <pt x="128" y="590" on="0"/>
        <pt x="123" y="591" on="1"/>
        <pt x="111" y="595" on="0"/>
        <pt x="105" y="599" on="0"/>
        <pt x="100" y="599" on="1"/>
        <pt x="96" y="601" on="0"/>
        <pt x="92" y="605" on="0"/>
        <pt x="90" y="605" on="1"/>
        <pt x="83" y="614" on="0"/>
        <pt x="81" y="619" on="0"/>
        <pt x="88" y="623" on="1"/>
        <pt x="92" y="633" on="0"/>
        <pt x="117" y="637" on="0"/>
        <pt x="125" y="641" on="1"/>
        <pt x="139" y="644" on="0"/>
        <pt x="166" y="649" on="0"/>
        <pt x="181" y="652" on="1"/>
        <pt x="197" y="657" on="0"/>
        <pt x="215" y="658" on="0"/>
        <pt x="223" y="662" on="1"/>
        <pt x="238" y="663" on="0"/>
        <pt x="265" y="670" on="0"/>
        <pt x="279" y="673" on="1"/>
        <pt x="283" y="675" on="0"/>
        <pt x="292" y="676" on="0"/>
        <pt x="295" y="679" on="1"/>
        <pt x="306" y="679" on="0"/>
        <pt x="306" y="681" on="1"/>
        <pt x="357" y="691" on="0"/>
        <pt x="453" y="717" on="0"/>
        <pt x="506" y="722" on="1"/>
        <pt x="517" y="723" on="0"/>
        <pt x="538" y="720" on="0"/>
      </contour>
    </TTGlyph>
    <TTGlyph name="G" xMin="-31" yMin="-41" xMax="768" yMax="783">
      <contour>
        <pt x="757" y="765" on="1"/>
        <pt x="768" y="757" on="0"/>
        <pt x="755" y="732" on="0"/>
        <pt x="748" y="720" on="1"/>
        <pt x="744" y="715" on="0"/>
        <pt x="738" y="704" on="0"/>
        <pt x="735" y="702" on="1"/>
        <pt x="727" y="687" on="0"/>
        <pt x="716" y="675" on="0"/>
        <pt x="711" y="668" on="1"/>
        <pt x="706" y="660" on="0"/>
        <pt x="699" y="646" on="0"/>
        <pt x="693" y="639" on="1"/>
        <pt x="691" y="633" on="0"/>
        <pt x="683" y="622" on="0"/>
        <pt x="680" y="616" on="1"/>
        <pt x="676" y="608" on="0"/>
        <pt x="673" y="605" on="0"/>
        <pt x="672" y="603" on="1"/>
        <pt x="670" y="600" on="0"/>
        <pt x="667" y="592" on="0"/>
        <pt x="665" y="589" on="1"/>
        <pt x="653" y="572" on="0"/>
        <pt x="646" y="563" on="1"/>
        <pt x="644" y="560" on="0"/>
        <pt x="642" y="554" on="0"/>
        <pt x="639" y="552" on="1"/>
        <pt x="632" y="538" on="0"/>
        <pt x="616" y="514" on="0"/>
        <pt x="609" y="500" on="1"/>
        <pt x="607" y="495" on="0"/>
        <pt x="604" y="487" on="0"/>
        <pt x="602" y="482" on="1"/>
        <pt x="600" y="477" on="0"/>
        <pt x="597" y="470" on="0"/>
        <pt x="595" y="465" on="1"/>
        <pt x="593" y="460" on="0"/>
        <pt x="584" y="450" on="0"/>
        <pt x="584" y="442" on="1"/>
        <pt x="573" y="421" on="0"/>
        <pt x="554" y="376" on="0"/>
        <pt x="543" y="354" on="1"/>
        <pt x="551" y="352" on="0"/>
        <pt x="565" y="356" on="0"/>
        <pt x="572" y="357" on="1"/>
        <pt x="586" y="359" on="0"/>
        <pt x="613" y="361" on="0"/>
        <pt x="628" y="365" on="1"/>
        <pt x="638" y="363" on="0"/>
        <pt x="649" y="366" on="1"/>
        <pt x="651" y="367" on="0"/>
        <pt x="657" y="369" on="0"/>
        <pt x="660" y="369" on="1"/>
        <pt x="665" y="370" on="0"/>
        <pt x="673" y="367" on="0"/>
        <pt x="678" y="368" on="1"/>
        <pt x="684" y="367" on="0"/>
        <pt x="690" y="369" on="0"/>
        <pt x="692" y="367" on="1"/>
        <pt x="690" y="365" on="0"/>
        <pt x="686" y="357" on="0"/>
        <pt x="690" y="356" on="1"/>
        <pt x="680" y="347" on="0"/>
        <pt x="661" y="344" on="0"/>
        <pt x="651" y="342" on="1"/>
        <pt x="649" y="337" on="0"/>
        <pt x="638" y="331" on="0"/>
        <pt x="631" y="328" on="1"/>
        <pt x="625" y="326" on="0"/>
        <pt x="614" y="323" on="0"/>
        <pt x="608" y="326" on="1"/>
        <pt x="600" y="324" on="0"/>
        <pt x="590" y="324" on="0"/>
        <pt x="582" y="322" on="1"/>
        <pt x="578" y="321" on="0"/>
        <pt x="570" y="319" on="0"/>
        <pt x="568" y="318" on="1"/>
        <pt x="557" y="318" on="1"/>
        <pt x="541" y="318" on="0"/>
        <pt x="530" y="313" on="1"/>
        <pt x="525" y="310" on="0"/>
        <pt x="522" y="300" on="0"/>
        <pt x="519" y="295" on="1"/>
        <pt x="512" y="264" on="0"/>
        <pt x="482" y="205" on="0"/>
        <pt x="469" y="178" on="1"/>
        <pt x="455" y="150" on="0"/>
        <pt x="429" y="96" on="0"/>
        <pt x="412" y="73" on="1"/>
        <pt x="401" y="51" on="0"/>
        <pt x="366" y="25" on="0"/>
        <pt x="348" y="11" on="1"/>
        <pt x="343" y="5" on="0"/>
        <pt x="327" y="-3" on="0"/>
        <pt x="322" y="-9" on="1"/>
        <pt x="312" y="-10" on="0"/>
        <pt x="309" y="-12" on="0"/>
        <pt x="307" y="-11" on="1"/>
        <pt x="299" y="-8" on="0"/>
        <pt x="291" y="-12" on="1"/>
        <pt x="280" y="-16" on="0"/>
        <pt x="255" y="-23" on="0"/>
        <pt x="247" y="-28" on="1"/>
        <pt x="232" y="-30" on="0"/>
        <pt x="226" y="-34" on="0"/>
        <pt x="223" y="-35" on="1"/>
        <pt x="216" y="-34" on="0"/>
        <pt x="214" y="-36" on="0"/>
        <pt x="212" y="-36" on="1"/>
        <pt x="206" y="-38" on="0"/>
        <pt x="189" y="-41" on="0"/>
        <pt x="184" y="-40" on="1"/>
        <pt x="181" y="-39" on="0"/>
        <pt x="175" y="-37" on="0"/>
        <pt x="171" y="-36" on="1"/>
        <pt x="162" y="-33" on="0"/>
        <pt x="161" y="-31" on="0"/>
        <pt x="159" y="-31" on="1"/>
        <pt x="155" y="-29" on="0"/>
        <pt x="144" y="-30" on="0"/>
        <pt x="139" y="-29" on="1"/>
        <pt x="131" y="-27" on="0"/>
        <pt x="110" y="-24" on="0"/>
        <pt x="100" y="-22" on="1"/>
        <pt x="91" y="-17" on="0"/>
        <pt x="76" y="-7" on="0"/>
        <pt x="66" y="-4" on="1"/>
        <pt x="57" y="3" on="0"/>
        <pt x="41" y="14" on="0"/>
        <pt x="33" y="22" on="1"/>
        <pt x="19" y="31" on="0"/>
        <pt x="9" y="46" on="1"/>
        <pt x="7" y="50" on="0"/>
        <pt x="2" y="59" on="0"/>
        <pt x="-2" y="62" on="1"/>
        <pt x="-5" y="70" on="0"/>
        <pt x="-12" y="79" on="0"/>
        <pt x="-14" y="87" on="1"/>
        <pt x="-19" y="93" on="0"/>
        <pt x="-22" y="112" on="0"/>
        <pt x="-29" y="117" on="1"/>
        <pt x="-31" y="129" on="0"/>
        <pt x="-30" y="158" on="0"/>
        <pt x="-29" y="172" on="1"/>
        <pt x="-29" y="177" on="0"/>
        <pt x="-31" y="186" on="0"/>
        <pt x="-31" y="191" on="1"/>
        <pt x="-31" y="200" on="0"/>
        <pt x="-29" y="222" on="0"/>
        <pt x="-19" y="224" on="1"/>
        <pt x="-2" y="245" on="0"/>
        <pt x="16" y="281" on="0"/>
        <pt x="36" y="286" on="1"/>
        <pt x="51" y="294" on="0"/>
        <pt x="89" y="304" on="0"/>
        <pt x="111" y="306" on="1"/>
        <pt x="122" y="303" on="0"/>
        <pt x="142" y="308" on="0"/>
        <pt x="153" y="309" on="1"/>
        <pt x="159" y="309" on="0"/>
        <pt x="171" y="312" on="0"/>
        <pt x="176" y="314" on="1"/>
        <pt x="181" y="321" on="0"/>
        <pt x="184" y="339" on="0"/>
        <pt x="189" y="346" on="1"/>
        <pt x="191" y="356" on="0"/>
        <pt x="200" y="372" on="0"/>
        <pt x="202" y="380" on="1"/>
        <pt x="204" y="386" on="0"/>
        <pt x="210" y="398" on="0"/>
        <pt x="213" y="406" on="1"/>
        <pt x="232" y="436" on="0"/>
        <pt x="263" y="507" on="0"/>
        <pt x="278" y="542" on="1"/>
        <pt x="280" y="546" on="0"/>
        <pt x="285" y="555" on="0"/>
        <pt x="284" y="559" on="1"/>
        <pt x="284" y="561" on="0"/>
        <pt x="280" y="570" on="0"/>
        <pt x="278" y="573" on="1"/>
        <pt x="273" y="582" on="0"/>
        <pt x="267" y="600" on="0"/>
        <pt x="266" y="610" on="1"/>
        <pt x="264" y="621" on="0"/>
        <pt x="265" y="639" on="0"/>
        <pt x="265" y="649" on="1"/>
        <pt x="267" y="671" on="0"/>
        <pt x="271" y="692" on="1"/>
        <pt x="284" y="700" on="0"/>
        <pt x="308" y="716" on="0"/>
        <pt x="322" y="722" on="1"/>
        <pt x="332" y="722" on="0"/>
        <pt x="337" y="718" on="1"/>
        <pt x="347" y="717" on="0"/>
        <pt x="354" y="717" on="0"/>
        <pt x="358" y="715" on="1"/>
        <pt x="371" y="712" on="0"/>
        <pt x="386" y="691" on="0"/>
        <pt x="395" y="664" on="0"/>
        <pt x="398" y="634" on="0"/>
        <pt x="399" y="621" on="1"/>
        <pt x="400" y="613" on="0"/>
        <pt x="410" y="604" on="0"/>
        <pt x="415" y="600" on="1"/>
        <pt x="424" y="603" on="0"/>
        <pt x="443" y="609" on="0"/>
        <pt x="455" y="611" on="1"/>
        <pt x="462" y="612" on="0"/>
        <pt x="472" y="616" on="0"/>
        <pt x="477" y="614" on="1"/>
        <pt x="518" y="625" on="0"/>
        <pt x="594" y="651" on="0"/>
        <pt x="624" y="673" on="1"/>
        <pt x="638" y="684" on="0"/>
        <pt x="668" y="703" on="0"/>
        <pt x="680" y="716" on="1"/>
        <pt x="688" y="724" on="0"/>
        <pt x="702" y="740" on="0"/>
        <pt x="710" y="749" on="1"/>
        <pt x="713" y="758" on="0"/>
        <pt x="715" y="761" on="1"/>
        <pt x="719" y="767" on="0"/>
        <pt x="725" y="770" on="0"/>
        <pt x="726" y="775" on="1"/>
        <pt x="735" y="778" on="0"/>
        <pt x="738" y="777" on="1"/>
        <pt x="753" y="782" on="0"/>
        <pt x="755" y="783" on="1"/>
        <pt x="760" y="778" on="0"/>
        <pt x="760" y="770" on="1"/>
      </contour>
      <contour>
        <pt x="505" y="539" on="1"/>
        <pt x="490" y="531" on="0"/>
        <pt x="455" y="517" on="0"/>
        <pt x="433" y="517" on="1"/>
        <pt x="425" y="515" on="0"/>
        <pt x="419" y="516" on="1"/>
        <pt x="408" y="518" on="0"/>
        <pt x="384" y="525" on="0"/>
        <pt x="374" y="527" on="1"/>
        <pt x="371" y="535" on="0"/>
        <pt x="351" y="539" on="0"/>
        <pt x="343" y="542" on="1"/>
        <pt x="336" y="528" on="0"/>
        <pt x="322" y="503" on="0"/>
        <pt x="316" y="489" on="1"/>
        <pt x="303" y="457" on="0"/>
        <pt x="278" y="399" on="0"/>
        <pt x="262" y="370" on="1"/>
        <pt x="256" y="359" on="0"/>
        <pt x="246" y="337" on="0"/>
        <pt x="243" y="326" on="1"/>
        <pt x="260" y="328" on="0"/>
        <pt x="294" y="334" on="0"/>
        <pt x="312" y="336" on="1"/>
        <pt x="348" y="334" on="0"/>
        <pt x="429" y="344" on="0"/>
        <pt x="467" y="346" on="1"/>
        <pt x="470" y="351" on="0"/>
        <pt x="473" y="361" on="0"/>
        <pt x="477" y="365" on="1"/>
        <pt x="483" y="374" on="0"/>
        <pt x="484" y="381" on="0"/>
        <pt x="486" y="384" on="1"/>
        <pt x="491" y="392" on="0"/>
        <pt x="500" y="409" on="0"/>
        <pt x="505" y="417" on="1"/>
        <pt x="509" y="426" on="0"/>
        <pt x="516" y="443" on="0"/>
        <pt x="521" y="453" on="1"/>
        <pt x="526" y="462" on="0"/>
        <pt x="537" y="479" on="0"/>
        <pt x="542" y="488" on="1"/>
        <pt x="548" y="499" on="0"/>
        <pt x="559" y="520" on="0"/>
        <pt x="565" y="530" on="1"/>
        <pt x="570" y="544" on="0"/>
        <pt x="577" y="548" on="1"/>
        <pt x="577" y="553" on="0"/>
        <pt x="582" y="556" on="0"/>
        <pt x="582" y="561" on="1"/>
        <pt x="585" y="563" on="0"/>
        <pt x="588" y="570" on="0"/>
        <pt x="590" y="572" on="1"/>
        <pt x="591" y="576" on="0"/>
        <pt x="598" y="581" on="0"/>
        <pt x="598" y="584" on="1"/>
        <pt x="573" y="573" on="0"/>
        <pt x="531" y="547" on="0"/>
      </contour>
      <contour>
        <pt x="432" y="297" on="1"/>
        <pt x="417" y="295" on="0"/>
        <pt x="386" y="293" on="0"/>
        <pt x="375" y="288" on="1"/>
        <pt x="348" y="284" on="0"/>
        <pt x="304" y="278" on="0"/>
        <pt x="283" y="273" on="1"/>
        <pt x="270" y="269" on="0"/>
        <pt x="262" y="270" on="0"/>
        <pt x="258" y="269" on="1"/>
        <pt x="245" y="267" on="0"/>
        <pt x="220" y="259" on="0"/>
        <pt x="207" y="257" on="1"/>
        <pt x="200" y="249" on="0"/>
        <pt x="190" y="229" on="0"/>
        <pt x="179" y="224" on="1"/>
        <pt x="168" y="207" on="0"/>
        <pt x="147" y="170" on="0"/>
        <pt x="136" y="151" on="1"/>
        <pt x="126" y="153" on="0"/>
        <pt x="121" y="152" on="1"/>
        <pt x="119" y="168" on="0"/>
        <pt x="124" y="186" on="0"/>
        <pt x="128" y="197" on="1"/>
        <pt x="130" y="202" on="0"/>
        <pt x="134" y="211" on="0"/>
        <pt x="135" y="215" on="1"/>
        <pt x="136" y="226" on="0"/>
        <pt x="140" y="234" on="0"/>
        <pt x="142" y="239" on="1"/>
        <pt x="131" y="237" on="0"/>
        <pt x="107" y="229" on="0"/>
        <pt x="98" y="221" on="1"/>
        <pt x="90" y="219" on="0"/>
        <pt x="81" y="208" on="0"/>
        <pt x="76" y="203" on="1"/>
        <pt x="73" y="200" on="0"/>
        <pt x="68" y="197" on="0"/>
        <pt x="68" y="193" on="1"/>
        <pt x="70" y="177" on="0"/>
        <pt x="65" y="165" on="0"/>
        <pt x="60" y="153" on="0"/>
        <pt x="56" y="139" on="0"/>
        <pt x="57" y="131" on="1"/>
        <pt x="60" y="108" on="0"/>
        <pt x="80" y="80" on="0"/>
        <pt x="89" y="66" on="1"/>
        <pt x="92" y="61" on="0"/>
        <pt x="96" y="53" on="0"/>
        <pt x="99" y="51" on="1"/>
        <pt x="106" y="49" on="0"/>
        <pt x="108" y="47" on="0"/>
        <pt x="110" y="46" on="1"/>
        <pt x="124" y="38" on="0"/>
        <pt x="160" y="27" on="0"/>
        <pt x="178" y="29" on="1"/>
        <pt x="183" y="27" on="0"/>
        <pt x="196" y="27" on="1"/>
        <pt x="213" y="27" on="0"/>
        <pt x="250" y="29" on="0"/>
        <pt x="266" y="31" on="1"/>
        <pt x="273" y="36" on="0"/>
        <pt x="288" y="46" on="0"/>
        <pt x="293" y="53" on="1"/>
        <pt x="301" y="58" on="0"/>
        <pt x="315" y="71" on="0"/>
        <pt x="323" y="76" on="1"/>
        <pt x="329" y="80" on="0"/>
        <pt x="333" y="82" on="1"/>
        <pt x="341" y="87" on="0"/>
        <pt x="350" y="97" on="0"/>
        <pt x="356" y="105" on="1"/>
        <pt x="364" y="116" on="0"/>
        <pt x="382" y="140" on="0"/>
        <pt x="386" y="156" on="1"/>
        <pt x="393" y="168" on="0"/>
        <pt x="398" y="183" on="1"/>
        <pt x="406" y="194" on="0"/>
        <pt x="416" y="222" on="0"/>
        <pt x="423" y="233" on="1"/>
        <pt x="428" y="249" on="0"/>
        <pt x="436" y="268" on="0"/>
        <pt x="440" y="279" on="1"/>
        <pt x="443" y="283" on="0"/>
        <pt x="450" y="294" on="0"/>
        <pt x="450" y="300" on="1"/>
        <pt x="445" y="301" on="0"/>
        <pt x="435" y="299" on="0"/>
      </contour>
    </TTGlyph>
    <TTGlyph name="H" xMin="-20" yMin="-49" xMax="756" yMax="764">
      <contour>
        <pt x="739" y="736" on="1"/>
        <pt x="748" y="731" on="0"/>
        <pt x="754" y="715" on="0"/>
        <pt x="755" y="703" on="1"/>
        <pt x="755" y="695" on="0"/>
        <pt x="754" y="682" on="0"/>
        <pt x="756" y="674" on="1"/>
        <pt x="753" y="668" on="0"/>
        <pt x="743" y="657" on="0"/>
        <pt x="741" y="649" on="1"/>
        <pt x="732" y="627" on="0"/>
        <pt x="707" y="593" on="0"/>
        <pt x="695" y="573" on="1"/>
        <pt x="684" y="563" on="0"/>
        <pt x="671" y="534" on="0"/>
        <pt x="665" y="518" on="1"/>
        <pt x="645" y="485" on="0"/>
        <pt x="608" y="417" on="0"/>
        <pt x="591" y="382" on="1"/>
        <pt x="605" y="379" on="0"/>
        <pt x="634" y="373" on="0"/>
        <pt x="646" y="367" on="1"/>
        <pt x="651" y="359" on="0"/>
        <pt x="656" y="358" on="0"/>
        <pt x="654" y="355" on="1"/>
        <pt x="656" y="341" on="0"/>
        <pt x="648" y="331" on="0"/>
        <pt x="640" y="335" on="1"/>
        <pt x="633" y="333" on="0"/>
        <pt x="629" y="335" on="1"/>
        <pt x="613" y="331" on="0"/>
        <pt x="585" y="327" on="0"/>
        <pt x="567" y="325" on="1"/>
        <pt x="561" y="312" on="0"/>
        <pt x="549" y="288" on="0"/>
        <pt x="543" y="275" on="1"/>
        <pt x="513" y="222" on="0"/>
        <pt x="464" y="115" on="0"/>
        <pt x="443" y="58" on="1"/>
        <pt x="441" y="49" on="0"/>
        <pt x="437" y="33" on="0"/>
        <pt x="433" y="26" on="1"/>
        <pt x="431" y="14" on="0"/>
        <pt x="427" y="5" on="1"/>
        <pt x="425" y="0" on="0"/>
        <pt x="423" y="-9" on="0"/>
        <pt x="421" y="-14" on="1"/>
        <pt x="418" y="-22" on="0"/>
        <pt x="407" y="-30" on="0"/>
        <pt x="404" y="-37" on="1"/>
        <pt x="398" y="-31" on="0"/>
        <pt x="391" y="-42" on="0"/>
        <pt x="389" y="-47" on="1"/>
        <pt x="378" y="-49" on="0"/>
        <pt x="369" y="-35" on="0"/>
        <pt x="369" y="-27" on="1"/>
        <pt x="365" y="-22" on="0"/>
        <pt x="354" y="-23" on="0"/>
        <pt x="349" y="-18" on="1"/>
        <pt x="341" y="11" on="0"/>
        <pt x="327" y="47" on="0"/>
        <pt x="319" y="63" on="1"/>
        <pt x="317" y="71" on="0"/>
        <pt x="313" y="84" on="0"/>
        <pt x="311" y="91" on="1"/>
        <pt x="309" y="96" on="0"/>
        <pt x="304" y="106" on="0"/>
        <pt x="302" y="111" on="1"/>
        <pt x="300" y="114" on="0"/>
        <pt x="300" y="120" on="0"/>
        <pt x="298" y="123" on="1"/>
        <pt x="293" y="134" on="0"/>
        <pt x="279" y="156" on="0"/>
        <pt x="273" y="166" on="1"/>
        <pt x="265" y="176" on="0"/>
        <pt x="261" y="186" on="0"/>
        <pt x="256" y="190" on="1"/>
        <pt x="250" y="202" on="0"/>
        <pt x="250" y="207" on="0"/>
        <pt x="248" y="209" on="1"/>
        <pt x="241" y="217" on="0"/>
        <pt x="235" y="225" on="0"/>
        <pt x="231" y="227" on="1"/>
        <pt x="226" y="230" on="0"/>
        <pt x="214" y="234" on="0"/>
        <pt x="209" y="237" on="1"/>
        <pt x="204" y="239" on="0"/>
        <pt x="193" y="244" on="0"/>
        <pt x="186" y="246" on="1"/>
        <pt x="177" y="228" on="0"/>
        <pt x="165" y="188" on="0"/>
        <pt x="153" y="172" on="1"/>
        <pt x="147" y="158" on="0"/>
        <pt x="132" y="131" on="0"/>
        <pt x="126" y="117" on="1"/>
        <pt x="121" y="110" on="0"/>
        <pt x="117" y="93" on="0"/>
        <pt x="113" y="85" on="1"/>
        <pt x="110" y="79" on="0"/>
        <pt x="102" y="67" on="0"/>
        <pt x="98" y="61" on="1"/>
        <pt x="87" y="43" on="0"/>
        <pt x="54" y="17" on="0"/>
        <pt x="40" y="1" on="1"/>
        <pt x="29" y="-8" on="0"/>
        <pt x="14" y="-13" on="0"/>
        <pt x="6" y="-8" on="1"/>
        <pt x="3" y="-4" on="0"/>
        <pt x="-2" y="-11" on="0"/>
        <pt x="-4" y="-13" on="1"/>
        <pt x="-11" y="-13" on="0"/>
        <pt x="-16" y="-8" on="0"/>
        <pt x="-20" y="-4" on="1"/>
        <pt x="-18" y="5" on="0"/>
        <pt x="-9" y="19" on="0"/>
        <pt x="-5" y="27" on="1"/>
        <pt x="0" y="29" on="0"/>
        <pt x="2" y="41" on="0"/>
        <pt x="6" y="44" on="1"/>
        <pt x="9" y="58" on="0"/>
        <pt x="18" y="80" on="0"/>
        <pt x="26" y="90" on="1"/>
        <pt x="28" y="95" on="0"/>
        <pt x="32" y="106" on="0"/>
        <pt x="35" y="112" on="1"/>
        <pt x="38" y="117" on="0"/>
        <pt x="47" y="125" on="0"/>
        <pt x="49" y="130" on="1"/>
        <pt x="56" y="152" on="0"/>
        <pt x="70" y="177" on="0"/>
        <pt x="77" y="190" on="1"/>
        <pt x="84" y="211" on="0"/>
        <pt x="102" y="248" on="0"/>
        <pt x="112" y="267" on="1"/>
        <pt x="107" y="269" on="0"/>
        <pt x="107" y="284" on="0"/>
        <pt x="102" y="287" on="1"/>
        <pt x="100" y="309" on="0"/>
        <pt x="87" y="319" on="1"/>
        <pt x="92" y="326" on="0"/>
        <pt x="92" y="332" on="1"/>
        <pt x="94" y="334" on="0"/>
        <pt x="101" y="338" on="0"/>
        <pt x="106" y="340" on="1"/>
        <pt x="110" y="342" on="0"/>
        <pt x="116" y="345" on="0"/>
        <pt x="121" y="346" on="1"/>
        <pt x="129" y="347" on="0"/>
        <pt x="144" y="348" on="0"/>
        <pt x="152" y="350" on="1"/>
        <pt x="159" y="361" on="0"/>
        <pt x="167" y="385" on="0"/>
        <pt x="175" y="394" on="1"/>
        <pt x="176" y="397" on="0"/>
        <pt x="180" y="403" on="0"/>
        <pt x="179" y="406" on="1"/>
        <pt x="187" y="416" on="0"/>
        <pt x="199" y="440" on="0"/>
        <pt x="207" y="451" on="1"/>
        <pt x="214" y="467" on="0"/>
        <pt x="233" y="494" on="0"/>
        <pt x="241" y="511" on="1"/>
        <pt x="250" y="522" on="0"/>
        <pt x="263" y="558" on="0"/>
        <pt x="268" y="573" on="1"/>
        <pt x="270" y="578" on="0"/>
        <pt x="270" y="585" on="0"/>
        <pt x="272" y="589" on="1"/>
        <pt x="274" y="594" on="0"/>
        <pt x="282" y="606" on="0"/>
        <pt x="285" y="612" on="1"/>
        <pt x="289" y="619" on="0"/>
        <pt x="295" y="631" on="0"/>
        <pt x="297" y="639" on="1"/>
        <pt x="294" y="645" on="0"/>
        <pt x="281" y="638" on="0"/>
        <pt x="273" y="634" on="1"/>
        <pt x="265" y="630" on="0"/>
        <pt x="252" y="622" on="0"/>
        <pt x="245" y="617" on="1"/>
        <pt x="201" y="595" on="0"/>
        <pt x="168" y="567" on="1"/>
        <pt x="163" y="566" on="0"/>
        <pt x="153" y="562" on="0"/>
        <pt x="146" y="561" on="1"/>
        <pt x="139" y="566" on="0"/>
        <pt x="138" y="568" on="0"/>
        <pt x="137" y="570" on="1"/>
        <pt x="140" y="573" on="0"/>
        <pt x="154" y="579" on="0"/>
        <pt x="154" y="584" on="1"/>
        <pt x="153" y="603" on="0"/>
        <pt x="176" y="624" on="0"/>
        <pt x="187" y="634" on="1"/>
        <pt x="202" y="643" on="0"/>
        <pt x="224" y="654" on="0"/>
        <pt x="234" y="662" on="1"/>
        <pt x="247" y="667" on="0"/>
        <pt x="272" y="680" on="0"/>
        <pt x="285" y="686" on="1"/>
        <pt x="290" y="688" on="0"/>
        <pt x="299" y="696" on="0"/>
        <pt x="304" y="700" on="1"/>
        <pt x="316" y="708" on="0"/>
        <pt x="343" y="724" on="0"/>
        <pt x="357" y="732" on="1"/>
        <pt x="365" y="734" on="0"/>
        <pt x="366" y="736" on="0"/>
        <pt x="368" y="737" on="1"/>
        <pt x="377" y="740" on="0"/>
        <pt x="388" y="745" on="0"/>
        <pt x="393" y="748" on="1"/>
        <pt x="401" y="751" on="0"/>
        <pt x="416" y="759" on="0"/>
        <pt x="425" y="758" on="1"/>
        <pt x="433" y="758" on="0"/>
        <pt x="447" y="744" on="0"/>
        <pt x="439" y="737" on="1"/>
        <pt x="447" y="729" on="0"/>
        <pt x="447" y="701" on="0"/>
        <pt x="449" y="687" on="1"/>
        <pt x="449" y="682" on="0"/>
        <pt x="451" y="673" on="0"/>
        <pt x="450" y="669" on="1"/>
        <pt x="449" y="664" on="0"/>
        <pt x="444" y="655" on="0"/>
        <pt x="444" y="651" on="1"/>
        <pt x="440" y="646" on="0"/>
        <pt x="436" y="635" on="0"/>
        <pt x="432" y="630" on="1"/>
        <pt x="430" y="621" on="0"/>
        <pt x="420" y="611" on="0"/>
        <pt x="417" y="605" on="1"/>
        <pt x="408" y="598" on="0"/>
        <pt x="403" y="592" on="1"/>
        <pt x="399" y="592" on="0"/>
        <pt x="398" y="585" on="0"/>
        <pt x="396" y="583" on="1"/>
        <pt x="376" y="578" on="0"/>
        <pt x="349" y="543" on="0"/>
        <pt x="336" y="524" on="1"/>
        <pt x="319" y="513" on="0"/>
        <pt x="308" y="500" on="1"/>
        <pt x="304" y="495" on="0"/>
        <pt x="299" y="482" on="0"/>
        <pt x="295" y="476" on="1"/>
        <pt x="287" y="463" on="0"/>
        <pt x="269" y="430" on="0"/>
        <pt x="261" y="416" on="1"/>
        <pt x="259" y="410" on="0"/>
        <pt x="253" y="400" on="0"/>
        <pt x="251" y="393" on="1"/>
        <pt x="246" y="383" on="0"/>
        <pt x="240" y="373" on="0"/>
        <pt x="238" y="365" on="1"/>
        <pt x="255" y="365" on="0"/>
        <pt x="289" y="369" on="0"/>
        <pt x="306" y="371" on="1"/>
        <pt x="332" y="369" on="0"/>
        <pt x="377" y="384" on="0"/>
        <pt x="401" y="385" on="1"/>
        <pt x="405" y="387" on="0"/>
        <pt x="411" y="386" on="0"/>
        <pt x="415" y="387" on="1"/>
        <pt x="437" y="388" on="0"/>
        <pt x="482" y="389" on="0"/>
        <pt x="506" y="387" on="1"/>
        <pt x="510" y="389" on="0"/>
        <pt x="515" y="397" on="0"/>
        <pt x="517" y="401" on="1"/>
        <pt x="519" y="406" on="0"/>
        <pt x="526" y="414" on="0"/>
        <pt x="528" y="418" on="1"/>
        <pt x="531" y="426" on="0"/>
        <pt x="537" y="432" on="0"/>
        <pt x="539" y="437" on="1"/>
        <pt x="545" y="449" on="0"/>
        <pt x="548" y="454" on="0"/>
        <pt x="550" y="458" on="1"/>
        <pt x="567" y="487" on="0"/>
        <pt x="579" y="507" on="1"/>
        <pt x="581" y="510" on="0"/>
        <pt x="584" y="517" on="0"/>
        <pt x="586" y="521" on="1"/>
        <pt x="588" y="525" on="0"/>
        <pt x="589" y="535" on="0"/>
        <pt x="594" y="539" on="1"/>
        <pt x="598" y="549" on="0"/>
        <pt x="609" y="571" on="0"/>
        <pt x="614" y="582" on="1"/>
        <pt x="619" y="592" on="0"/>
        <pt x="629" y="611" on="0"/>
        <pt x="634" y="621" on="1"/>
        <pt x="636" y="626" on="0"/>
        <pt x="640" y="635" on="0"/>
        <pt x="642" y="640" on="1"/>
        <pt x="650" y="651" on="0"/>
        <pt x="655" y="662" on="1"/>
        <pt x="659" y="668" on="0"/>
        <pt x="667" y="680" on="0"/>
        <pt x="671" y="687" on="1"/>
        <pt x="676" y="700" on="0"/>
        <pt x="682" y="710" on="1"/>
        <pt x="684" y="714" on="0"/>
        <pt x="688" y="721" on="0"/>
        <pt x="689" y="723" on="1"/>
        <pt x="691" y="726" on="0"/>
        <pt x="689" y="733" on="0"/>
        <pt x="690" y="736" on="1"/>
        <pt x="692" y="739" on="0"/>
        <pt x="698" y="746" on="0"/>
        <pt x="700" y="749" on="1"/>
        <pt x="702" y="751" on="0"/>
        <pt x="708" y="758" on="0"/>
        <pt x="713" y="755" on="1"/>
        <pt x="716" y="758" on="0"/>
        <pt x="723" y="762" on="0"/>
        <pt x="727" y="764" on="1"/>
        <pt x="732" y="763" on="0"/>
        <pt x="736" y="758" on="0"/>
        <pt x="740" y="756" on="1"/>
        <pt x="742" y="751" on="0"/>
        <pt x="744" y="739" on="0"/>
      </contour>
      <contour>
        <pt x="442" y="317" on="1"/>
        <pt x="439" y="318" on="0"/>
        <pt x="432" y="317" on="0"/>
        <pt x="429" y="318" on="1"/>
        <pt x="422" y="318" on="0"/>
        <pt x="415" y="321" on="1"/>
        <pt x="394" y="322" on="0"/>
        <pt x="353" y="316" on="0"/>
        <pt x="337" y="318" on="1"/>
        <pt x="310" y="314" on="0"/>
        <pt x="255" y="309" on="0"/>
        <pt x="229" y="304" on="1"/>
        <pt x="223" y="303" on="0"/>
        <pt x="212" y="300" on="0"/>
        <pt x="207" y="298" on="1"/>
        <pt x="205" y="294" on="0"/>
        <pt x="203" y="287" on="0"/>
        <pt x="201" y="282" on="1"/>
        <pt x="215" y="266" on="0"/>
        <pt x="233" y="253" on="1"/>
        <pt x="246" y="237" on="0"/>
        <pt x="273" y="209" on="0"/>
        <pt x="287" y="195" on="1"/>
        <pt x="295" y="190" on="0"/>
        <pt x="298" y="180" on="1"/>
        <pt x="304" y="175" on="0"/>
        <pt x="311" y="161" on="0"/>
        <pt x="316" y="154" on="1"/>
        <pt x="326" y="153" on="0"/>
        <pt x="332" y="139" on="0"/>
        <pt x="337" y="133" on="1"/>
        <pt x="345" y="120" on="0"/>
        <pt x="366" y="94" on="0"/>
        <pt x="372" y="80" on="1"/>
        <pt x="375" y="78" on="0"/>
        <pt x="377" y="73" on="0"/>
        <pt x="380" y="71" on="1"/>
        <pt x="390" y="104" on="0"/>
        <pt x="405" y="154" on="0"/>
        <pt x="416" y="178" on="1"/>
        <pt x="417" y="185" on="0"/>
        <pt x="426" y="199" on="0"/>
        <pt x="425" y="207" on="1"/>
        <pt x="436" y="233" on="0"/>
        <pt x="460" y="283" on="0"/>
        <pt x="471" y="310" on="1"/>
        <pt x="463" y="311" on="0"/>
        <pt x="450" y="315" on="0"/>
      </contour>
    </TTGlyph>
    <TTGlyph name="I" xMin="-72" yMin="-46" xMax="498" yMax="733">
      <contour>
        <pt x="498" y="729" on="1"/>
        <pt x="492" y="716" on="0"/>
        <pt x="491" y="706" on="0"/>
        <pt x="489" y="701" on="1"/>
        <pt x="487" y="696" on="0"/>
        <pt x="486" y="692" on="0"/>
        <pt x="484" y="688" on="1"/>
        <pt x="481" y="683" on="0"/>
        <pt x="475" y="683" on="0"/>
        <pt x="470" y="678" on="1"/>
        <pt x="468" y="675" on="0"/>
        <pt x="462" y="669" on="0"/>
        <pt x="460" y="667" on="1"/>
        <pt x="457" y="662" on="0"/>
        <pt x="455" y="654" on="0"/>
        <pt x="449" y="652" on="1"/>
        <pt x="446" y="651" on="0"/>
        <pt x="439" y="652" on="0"/>
        <pt x="437" y="650" on="1"/>
        <pt x="426" y="646" on="0"/>
        <pt x="412" y="644" on="0"/>
        <pt x="404" y="643" on="1"/>
        <pt x="392" y="638" on="0"/>
        <pt x="384" y="638" on="0"/>
        <pt x="380" y="637" on="1"/>
        <pt x="376" y="636" on="0"/>
        <pt x="367" y="633" on="0"/>
        <pt x="361" y="631" on="1"/>
        <pt x="356" y="614" on="0"/>
        <pt x="338" y="590" on="0"/>
        <pt x="332" y="573" on="1"/>
        <pt x="314" y="544" on="0"/>
        <pt x="287" y="494" on="0"/>
        <pt x="276" y="471" on="1"/>
        <pt x="271" y="466" on="0"/>
        <pt x="264" y="452" on="0"/>
        <pt x="260" y="444" on="1"/>
        <pt x="255" y="434" on="0"/>
        <pt x="253" y="432" on="0"/>
        <pt x="252" y="430" on="1"/>
        <pt x="250" y="426" on="0"/>
        <pt x="246" y="417" on="0"/>
        <pt x="244" y="412" on="1"/>
        <pt x="238" y="404" on="0"/>
        <pt x="233" y="393" on="0"/>
        <pt x="231" y="388" on="1"/>
        <pt x="228" y="383" on="0"/>
        <pt x="222" y="373" on="0"/>
        <pt x="219" y="367" on="1"/>
        <pt x="209" y="343" on="0"/>
        <pt x="194" y="308" on="0"/>
        <pt x="189" y="288" on="1"/>
        <pt x="187" y="281" on="0"/>
        <pt x="182" y="263" on="0"/>
        <pt x="179" y="258" on="1"/>
        <pt x="160" y="209" on="0"/>
        <pt x="120" y="107" on="0"/>
        <pt x="102" y="55" on="1"/>
        <pt x="118" y="55" on="0"/>
        <pt x="138" y="66" on="0"/>
        <pt x="155" y="66" on="1"/>
        <pt x="166" y="51" on="0"/>
        <pt x="157" y="36" on="1"/>
        <pt x="149" y="26" on="0"/>
        <pt x="147" y="16" on="0"/>
        <pt x="145" y="12" on="1"/>
        <pt x="139" y="5" on="0"/>
        <pt x="136" y="-1" on="0"/>
        <pt x="133" y="-4" on="1"/>
        <pt x="124" y="-12" on="0"/>
        <pt x="102" y="-15" on="1"/>
        <pt x="91" y="-17" on="0"/>
        <pt x="76" y="-24" on="0"/>
        <pt x="67" y="-26" on="1"/>
        <pt x="61" y="-27" on="0"/>
        <pt x="51" y="-29" on="0"/>
        <pt x="47" y="-30" on="1"/>
        <pt x="43" y="-30" on="0"/>
        <pt x="36" y="-29" on="0"/>
        <pt x="33" y="-31" on="1"/>
        <pt x="16" y="-31" on="0"/>
        <pt x="-7" y="-35" on="0"/>
        <pt x="-18" y="-38" on="1"/>
        <pt x="-26" y="-40" on="0"/>
        <pt x="-41" y="-46" on="0"/>
        <pt x="-50" y="-46" on="1"/>
        <pt x="-53" y="-46" on="0"/>
        <pt x="-59" y="-43" on="0"/>
        <pt x="-63" y="-43" on="1"/>
        <pt x="-66" y="-40" on="0"/>
        <pt x="-72" y="-31" on="0"/>
        <pt x="-72" y="-26" on="1"/>
        <pt x="-72" y="-21" on="0"/>
        <pt x="-69" y="-12" on="0"/>
        <pt x="-70" y="-7" on="1"/>
        <pt x="-70" y="5" on="0"/>
        <pt x="-53" y="18" on="0"/>
        <pt x="-48" y="26" on="1"/>
        <pt x="-33" y="28" on="0"/>
        <pt x="-10" y="38" on="0"/>
        <pt x="6" y="40" on="1"/>
        <pt x="20" y="81" on="0"/>
        <pt x="54" y="167" on="0"/>
        <pt x="70" y="208" on="1"/>
        <pt x="73" y="216" on="0"/>
        <pt x="80" y="231" on="0"/>
        <pt x="83" y="239" on="1"/>
        <pt x="88" y="252" on="0"/>
        <pt x="98" y="277" on="0"/>
        <pt x="104" y="290" on="1"/>
        <pt x="110" y="297" on="0"/>
        <pt x="113" y="307" on="1"/>
        <pt x="115" y="312" on="0"/>
        <pt x="116" y="319" on="0"/>
        <pt x="118" y="324" on="1"/>
        <pt x="122" y="332" on="0"/>
        <pt x="132" y="348" on="0"/>
        <pt x="137" y="356" on="1"/>
        <pt x="144" y="366" on="0"/>
        <pt x="159" y="385" on="0"/>
        <pt x="166" y="395" on="1"/>
        <pt x="173" y="415" on="0"/>
        <pt x="190" y="452" on="0"/>
        <pt x="198" y="471" on="1"/>
        <pt x="200" y="484" on="0"/>
        <pt x="213" y="515" on="0"/>
        <pt x="218" y="526" on="1"/>
        <pt x="224" y="537" on="0"/>
        <pt x="232" y="562" on="0"/>
        <pt x="239" y="573" on="1"/>
        <pt x="241" y="580" on="0"/>
        <pt x="247" y="591" on="0"/>
        <pt x="249" y="598" on="1"/>
        <pt x="253" y="604" on="0"/>
        <pt x="258" y="619" on="0"/>
        <pt x="261" y="627" on="1"/>
        <pt x="257" y="625" on="0"/>
        <pt x="250" y="624" on="0"/>
        <pt x="246" y="623" on="1"/>
        <pt x="243" y="622" on="0"/>
        <pt x="235" y="618" on="0"/>
        <pt x="230" y="617" on="1"/>
        <pt x="214" y="615" on="0"/>
        <pt x="202" y="617" on="1"/>
        <pt x="189" y="619" on="0"/>
        <pt x="185" y="635" on="1"/>
        <pt x="184" y="643" on="0"/>
        <pt x="193" y="644" on="0"/>
        <pt x="195" y="651" on="1"/>
        <pt x="194" y="674" on="0"/>
        <pt x="208" y="697" on="0"/>
        <pt x="219" y="699" on="1"/>
        <pt x="224" y="701" on="0"/>
        <pt x="232" y="701" on="0"/>
        <pt x="236" y="705" on="1"/>
        <pt x="246" y="708" on="0"/>
        <pt x="267" y="709" on="0"/>
        <pt x="278" y="711" on="1"/>
        <pt x="289" y="713" on="0"/>
        <pt x="309" y="716" on="0"/>
        <pt x="318" y="716" on="1"/>
        <pt x="329" y="719" on="0"/>
        <pt x="347" y="724" on="0"/>
        <pt x="360" y="723" on="1"/>
        <pt x="367" y="723" on="0"/>
        <pt x="379" y="720" on="0"/>
        <pt x="386" y="720" on="1"/>
        <pt x="393" y="720" on="0"/>
        <pt x="406" y="718" on="0"/>
        <pt x="414" y="720" on="1"/>
        <pt x="420" y="721" on="0"/>
        <pt x="431" y="727" on="0"/>
        <pt x="437" y="725" on="1"/>
        <pt x="447" y="727" on="0"/>
        <pt x="468" y="731" on="0"/>
        <pt x="479" y="731" on="1"/>
        <pt x="490" y="730" on="0"/>
        <pt x="490" y="733" on="0"/>
        <pt x="493" y="732" on="1"/>
      </contour>
    </TTGlyph>
    <TTGlyph name="Iacute" xMin="-72" yMin="-46" xMax="548" yMax="944">
      <component glyphName="I" x="0" y="0" flags="0x204"/>
      <component glyphName="acute" x="41" y="174" flags="0x4"/>
    </TTGlyph>
    <TTGlyph name="Icircumflex" xMin="-72" yMin="-46" xMax="562" yMax="937">
      <component glyphName="I" x="0" y="0" flags="0x204"/>
      <component glyphName="circumflex" x="-204" y="174" flags="0x4"/>
    </TTGlyph>
    <TTGlyph name="Idieresis" xMin="-72" yMin="-46" xMax="538" yMax="907">
      <component glyphName="I" x="0" y="0" flags="0x204"/>
      <component glyphName="dieresis" x="-30" y="164" flags="0x4"/>
    </TTGlyph>
    <TTGlyph name="Igrave" xMin="-72" yMin="-46" xMax="498" yMax="954">
      <component glyphName="I" x="0" y="0" flags="0x204"/>
      <component glyphName="grave" x="-30" y="184" flags="0x4"/>
    </TTGlyph>
    <TTGlyph name="J" xMin="-115" yMin="-58" xMax="521" yMax="731">
      <contour>
        <pt x="-11" y="253" on="1"/>
        <pt x="-9" y="245" on="0"/>
        <pt x="-11" y="220" on="0"/>
        <pt x="-12" y="209" on="1"/>
        <pt x="-12" y="196" on="0"/>
        <pt x="-14" y="185" on="0"/>
        <pt x="-16" y="180" on="1"/>
        <pt x="-18" y="170" on="0"/>
        <pt x="-24" y="147" on="0"/>
        <pt x="-26" y="135" on="1"/>
        <pt x="-26" y="128" on="0"/>
        <pt x="-27" y="115" on="0"/>
        <pt x="-27" y="108" on="1"/>
        <pt x="-27" y="100" on="0"/>
        <pt x="-29" y="80" on="0"/>
        <pt x="-25" y="72" on="1"/>
        <pt x="-23" y="67" on="0"/>
        <pt x="-11" y="50" on="0"/>
        <pt x="-9" y="43" on="1"/>
        <pt x="-1" y="38" on="0"/>
        <pt x="-2" y="35" on="0"/>
        <pt x="-1" y="33" on="1"/>
        <pt x="3" y="25" on="0"/>
        <pt x="10" y="23" on="1"/>
        <pt x="20" y="17" on="0"/>
        <pt x="49" y="19" on="0"/>
        <pt x="61" y="16" on="1"/>
        <pt x="79" y="19" on="0"/>
        <pt x="93" y="27" on="1"/>
        <pt x="97" y="29" on="0"/>
        <pt x="106" y="33" on="0"/>
        <pt x="109" y="37" on="1"/>
        <pt x="112" y="42" on="0"/>
        <pt x="117" y="56" on="0"/>
        <pt x="120" y="63" on="1"/>
        <pt x="123" y="70" on="0"/>
        <pt x="129" y="94" on="0"/>
        <pt x="130" y="101" on="1"/>
        <pt x="141" y="120" on="0"/>
        <pt x="154" y="162" on="0"/>
        <pt x="161" y="182" on="1"/>
        <pt x="165" y="194" on="0"/>
        <pt x="173" y="215" on="0"/>
        <pt x="178" y="226" on="1"/>
        <pt x="182" y="237" on="0"/>
        <pt x="190" y="258" on="0"/>
        <pt x="197" y="267" on="1"/>
        <pt x="200" y="283" on="0"/>
        <pt x="212" y="307" on="0"/>
        <pt x="218" y="319" on="1"/>
        <pt x="225" y="335" on="0"/>
        <pt x="233" y="349" on="1"/>
        <pt x="242" y="364" on="0"/>
        <pt x="257" y="392" on="0"/>
        <pt x="266" y="406" on="1"/>
        <pt x="273" y="423" on="0"/>
        <pt x="292" y="454" on="0"/>
        <pt x="298" y="471" on="1"/>
        <pt x="303" y="485" on="0"/>
        <pt x="311" y="511" on="0"/>
        <pt x="319" y="522" on="1"/>
        <pt x="327" y="538" on="0"/>
        <pt x="337" y="565" on="0"/>
        <pt x="345" y="578" on="1"/>
        <pt x="346" y="583" on="0"/>
        <pt x="349" y="591" on="0"/>
        <pt x="351" y="596" on="1"/>
        <pt x="343" y="594" on="0"/>
        <pt x="329" y="582" on="0"/>
        <pt x="319" y="579" on="1"/>
        <pt x="311" y="574" on="0"/>
        <pt x="293" y="561" on="0"/>
        <pt x="287" y="554" on="1"/>
        <pt x="284" y="542" on="0"/>
        <pt x="278" y="536" on="0"/>
        <pt x="275" y="532" on="1"/>
        <pt x="269" y="531" on="0"/>
        <pt x="259" y="528" on="0"/>
        <pt x="253" y="527" on="1"/>
        <pt x="247" y="529" on="0"/>
        <pt x="244" y="537" on="0"/>
        <pt x="241" y="542" on="1"/>
        <pt x="236" y="551" on="0"/>
        <pt x="241" y="561" on="0"/>
        <pt x="243" y="565" on="1"/>
        <pt x="245" y="568" on="0"/>
        <pt x="250" y="572" on="0"/>
        <pt x="251" y="575" on="1"/>
        <pt x="264" y="587" on="0"/>
        <pt x="292" y="607" on="0"/>
        <pt x="305" y="618" on="1"/>
        <pt x="311" y="624" on="0"/>
        <pt x="323" y="637" on="0"/>
        <pt x="329" y="642" on="1"/>
        <pt x="356" y="663" on="1"/>
        <pt x="366" y="670" on="0"/>
        <pt x="381" y="687" on="0"/>
        <pt x="397" y="702" on="0"/>
        <pt x="418" y="713" on="0"/>
        <pt x="434" y="715" on="1"/>
        <pt x="438" y="716" on="0"/>
        <pt x="444" y="718" on="0"/>
        <pt x="449" y="718" on="1"/>
        <pt x="455" y="719" on="0"/>
        <pt x="455" y="717" on="0"/>
        <pt x="462" y="719" on="1"/>
        <pt x="467" y="720" on="0"/>
        <pt x="474" y="723" on="0"/>
        <pt x="479" y="725" on="1"/>
        <pt x="484" y="727" on="0"/>
        <pt x="494" y="728" on="0"/>
        <pt x="498" y="730" on="1"/>
        <pt x="501" y="731" on="0"/>
        <pt x="508" y="729" on="0"/>
        <pt x="512" y="728" on="1"/>
        <pt x="518" y="723" on="0"/>
        <pt x="521" y="708" on="0"/>
        <pt x="517" y="693" on="0"/>
        <pt x="510" y="678" on="0"/>
        <pt x="507" y="673" on="1"/>
        <pt x="504" y="667" on="0"/>
        <pt x="495" y="655" on="0"/>
        <pt x="490" y="652" on="1"/>
        <pt x="482" y="641" on="0"/>
        <pt x="465" y="619" on="0"/>
        <pt x="457" y="607" on="1"/>
        <pt x="449" y="596" on="0"/>
        <pt x="436" y="570" on="0"/>
        <pt x="428" y="559" on="1"/>
        <pt x="420" y="547" on="0"/>
        <pt x="406" y="523" on="0"/>
        <pt x="399" y="510" on="1"/>
        <pt x="391" y="493" on="0"/>
        <pt x="370" y="462" on="0"/>
        <pt x="362" y="443" on="1"/>
        <pt x="357" y="431" on="0"/>
        <pt x="350" y="407" on="0"/>
        <pt x="345" y="394" on="1"/>
        <pt x="343" y="391" on="0"/>
        <pt x="340" y="384" on="0"/>
        <pt x="338" y="381" on="1"/>
        <pt x="336" y="377" on="0"/>
        <pt x="335" y="371" on="0"/>
        <pt x="332" y="369" on="1"/>
        <pt x="325" y="350" on="0"/>
        <pt x="308" y="317" on="0"/>
        <pt x="303" y="297" on="1"/>
        <pt x="301" y="295" on="0"/>
        <pt x="299" y="288" on="0"/>
        <pt x="297" y="286" on="1"/>
        <pt x="298" y="285" on="0"/>
        <pt x="296" y="268" on="0"/>
        <pt x="294" y="264" on="1"/>
        <pt x="288" y="253" on="0"/>
        <pt x="281" y="241" on="0"/>
        <pt x="278" y="234" on="1"/>
        <pt x="267" y="213" on="0"/>
        <pt x="249" y="167" on="0"/>
        <pt x="238" y="144" on="1"/>
        <pt x="232" y="134" on="0"/>
        <pt x="223" y="113" on="0"/>
        <pt x="218" y="101" on="1"/>
        <pt x="218" y="94" on="0"/>
        <pt x="212" y="84" on="0"/>
        <pt x="210" y="78" on="1"/>
        <pt x="206" y="69" on="0"/>
        <pt x="203" y="53" on="0"/>
        <pt x="198" y="45" on="1"/>
        <pt x="195" y="41" on="0"/>
        <pt x="189" y="34" on="0"/>
        <pt x="187" y="30" on="1"/>
        <pt x="185" y="26" on="0"/>
        <pt x="184" y="17" on="0"/>
        <pt x="182" y="13" on="1"/>
        <pt x="180" y="7" on="0"/>
        <pt x="170" y="-5" on="0"/>
        <pt x="165" y="-10" on="1"/>
        <pt x="160" y="-15" on="0"/>
        <pt x="155" y="-25" on="0"/>
        <pt x="150" y="-30" on="1"/>
        <pt x="144" y="-33" on="0"/>
        <pt x="134" y="-40" on="0"/>
        <pt x="128" y="-42" on="1"/>
        <pt x="115" y="-49" on="0"/>
        <pt x="103" y="-52" on="1"/>
        <pt x="94" y="-54" on="0"/>
        <pt x="87" y="-57" on="0"/>
        <pt x="82" y="-57" on="1"/>
        <pt x="75" y="-57" on="0"/>
        <pt x="67" y="-55" on="0"/>
        <pt x="60" y="-55" on="1"/>
        <pt x="52" y="-58" on="0"/>
        <pt x="36" y="-54" on="0"/>
        <pt x="28" y="-52" on="1"/>
        <pt x="24" y="-52" on="0"/>
        <pt x="15" y="-52" on="0"/>
        <pt x="11" y="-51" on="1"/>
        <pt x="-4" y="-48" on="0"/>
        <pt x="-30" y="-27" on="0"/>
        <pt x="-45" y="-25" on="1"/>
        <pt x="-68" y="-10" on="0"/>
        <pt x="-99" y="40" on="0"/>
        <pt x="-110" y="71" on="1"/>
        <pt x="-115" y="89" on="0"/>
        <pt x="-109" y="128" on="0"/>
        <pt x="-108" y="148" on="1"/>
        <pt x="-106" y="161" on="0"/>
        <pt x="-104" y="183" on="0"/>
        <pt x="-101" y="194" on="1"/>
        <pt x="-99" y="201" on="0"/>
        <pt x="-94" y="214" on="0"/>
        <pt x="-92" y="219" on="1"/>
        <pt x="-88" y="225" on="0"/>
        <pt x="-78" y="235" on="0"/>
        <pt x="-74" y="242" on="1"/>
        <pt x="-68" y="246" on="0"/>
        <pt x="-48" y="245" on="0"/>
        <pt x="-38" y="247" on="1"/>
        <pt x="-31" y="249" on="0"/>
        <pt x="-17" y="256" on="0"/>
      </contour>
    </TTGlyph>
</ttFont>
